<?xml version="1.0" encoding="utf-8"?>
<!-- Generator: Adobe Illustrator 27.5.0, SVG Export Plug-In . SVG Version: 6.00 Build 0)  -->
<svg version="1.1" id="Illustration" xmlns="http://www.w3.org/2000/svg" xmlns:xlink="http://www.w3.org/1999/xlink" x="0px"
	 y="0px" viewBox="0 0 1200 800" style="enable-background:new 0 0 1200 800;" xml:space="preserve">
<g>
	
		<linearGradient id="SVGID_1_" gradientUnits="userSpaceOnUse" x1="186.8605" y1="414.8817" x2="1259.6724" y2="414.8817" gradientTransform="matrix(0.9979 -0.0652 0.0652 0.9979 -162.5136 -1.2611)">
		<stop  offset="0" style="stop-color:#B37CFF"/>
		<stop  offset="1" style="stop-color:#F895E7"/>
	</linearGradient>
	<path style="opacity:0.26;fill:url(#SVGID_1_);" d="M222.486,98.92c-78.558,74.054,38.202,154.897-16.795,197.11
		c-54.997,42.213-288.269,132.772-38.704,265.901s266.419,204.592,431.486,99.196s147.836-94.825,292.897-40.337
		c145.061,54.488,285.859-54.223,228.106-168.557s-89.538-110.786-37.268-189.625c52.27-78.839-63.459-320.033-249.784-146.562
		s-213.944,80.062-302.627,1.98C481.784,75.75,346.635-18.109,222.486,98.92z"/>
	
		<linearGradient id="SVGID_00000124871164051915683550000014454835914926788798_" gradientUnits="userSpaceOnUse" x1="-1368.2108" y1="457.2809" x2="-292.1795" y2="457.2809" gradientTransform="matrix(-0.9963 0.0864 0.0864 0.9963 -239.6524 3.6096)">
		<stop  offset="0" style="stop-color:#B37CFF"/>
		<stop  offset="1" style="stop-color:#F895E7"/>
	</linearGradient>
	<path style="opacity:0.26;fill:url(#SVGID_00000124871164051915683550000014454835914926788798_);" d="M944.675,69.17
		c88.852,61.325-14.343,158.893,46.404,192.305s314.022,147.495,88.773,318.576C966.811,665.907,837.12,760.989,658.015,681.761
		s-160.474-71.382-295.629,4.412c-135.155,75.794-290.771-10.378-250.969-132.131c39.802-121.752,71.758-123.05,8.168-193.079
		S133.927,35.015,344.338,178.32s223.59,46.794,299.447-43.799C684.856,85.471,804.26-27.744,944.675,69.17z"/>
	<g style="opacity:0.37;">
		
			<linearGradient id="SVGID_00000059302638653540897160000016750017621832874120_" gradientUnits="userSpaceOnUse" x1="2828.2495" y1="-2119.0181" x2="3118.2275" y2="-2119.0181" gradientTransform="matrix(0.7401 -0.6725 0.6725 0.7401 -496.0246 3854.0127)">
			<stop  offset="0" style="stop-color:#53D8FF"/>
			<stop  offset="1" style="stop-color:#3840F7"/>
		</linearGradient>
		<path style="fill:url(#SVGID_00000059302638653540897160000016750017621832874120_);" d="M259.185,56.129
			c-26.04,41.202-167.786,287.165,39.129,461.635c0,0,135-137.904-31.981-461.337C264.873,53.598,260.886,53.437,259.185,56.129z"/>
		<path style="opacity:0.86;fill:#FFFFFF;" d="M264.386,105.211c-2.431,15.352-4.547,30.774-6.528,46.201
			c-1.974,15.431-3.771,30.884-5.386,46.355c-3.232,30.942-5.772,61.956-7.355,93.015c-1.559,31.055-2.215,62.167-1.17,93.215
			c0.473,15.524,1.509,31.025,3.133,46.447c1.646,15.415,3.903,30.773,7.361,45.841l0.002,0.008c0.247,1.077-0.425,2.15-1.502,2.397
			c-1.077,0.247-2.15-0.425-2.397-1.502l-0.003-0.012c-3.413-15.304-5.591-30.814-7.154-46.351
			c-1.54-15.542-2.484-31.13-2.863-46.722c-0.857-31.185-0.005-62.368,1.749-93.474c1.778-31.108,4.514-62.148,7.94-93.105
			c1.713-15.479,3.607-30.936,5.678-46.37c2.079-15.434,4.291-30.843,6.823-46.221c0.076-0.462,0.512-0.774,0.974-0.698
			c0.46,0.076,0.772,0.509,0.699,0.968L264.386,105.211z"/>
	</g>
	<g style="opacity:0.79;">
		
			<linearGradient id="SVGID_00000015353545537045933380000011543998308897751958_" gradientUnits="userSpaceOnUse" x1="2426.3755" y1="-2292.2749" x2="2793.5742" y2="-2292.2749" gradientTransform="matrix(0.4894 -0.872 0.872 0.4894 916.4871 3767.5959)">
			<stop  offset="0" style="stop-color:#A737D5"/>
			<stop  offset="1" style="stop-color:#EF497A"/>
		</linearGradient>
		<path style="fill:url(#SVGID_00000015353545537045933380000011543998308897751958_);" d="M78.482,101.566
			C63.701,161.488-8.07,513.711,310.353,640.43c0,0,106.942-219.718-223.165-541.368C84.301,96.248,79.447,97.651,78.482,101.566z"
			/>
		<path style="opacity:0.86;fill:#FFFFFF;" d="M104.168,158.526c2.326,20.584,5.517,41.105,9.107,61.527
			c3.609,20.425,7.711,40.762,12.316,60.983c9.224,40.433,20.364,80.449,34.085,119.568c13.757,39.082,30.052,77.351,50.329,113.449
			c5.038,9.038,10.418,17.878,16.017,26.568c5.588,8.699,11.507,17.181,17.739,25.418c12.398,16.524,26.221,31.967,41.427,45.885
			l0.013,0.012c0.815,0.746,0.871,2.011,0.125,2.826c-0.746,0.815-2.011,0.871-2.826,0.125l-0.007-0.006
			c-15.357-14.186-29.263-29.876-41.7-46.612c-6.252-8.344-12.182-16.925-17.772-25.717c-5.601-8.783-10.977-17.71-16.004-26.827
			c-20.234-36.418-36.411-74.917-50.029-114.184c-13.581-39.303-24.558-79.457-33.612-120.007
			c-4.52-20.279-8.534-40.668-12.054-61.141c-3.502-20.479-6.599-41.017-8.84-61.698c-0.05-0.465,0.286-0.883,0.751-0.933
			c0.465-0.05,0.883,0.286,0.933,0.751L104.168,158.526z"/>
	</g>
	<g style="opacity:0.94;">
		
			<linearGradient id="SVGID_00000124848341059465491040000011039412270800012458_" gradientUnits="userSpaceOnUse" x1="2232.2544" y1="-3387.2683" x2="2425.6812" y2="-3387.2683" gradientTransform="matrix(0.1491 -0.963 0.881 0.1364 2773.0503 3241.8391)">
			<stop  offset="0" style="stop-color:#CB236D"/>
			<stop  offset="1" style="stop-color:#4C246D"/>
		</linearGradient>
		<path style="fill:url(#SVGID_00000124848341059465491040000011039412270800012458_);" d="M41.944,430.514
			c2.955,31.358,27.022,212.879,188.237,214.297c0,0,12.538-124.772-184.776-217.108C43.68,426.895,41.751,428.465,41.944,430.514z"
			/>
		<path style="opacity:0.86;fill:#FFFFFF;" d="M62.774,452.793c4.231,8.944,8.819,17.757,13.529,26.478
			c4.72,8.722,9.638,17.337,14.722,25.85c5.092,8.508,10.369,16.904,15.831,25.175c5.458,8.273,11.101,16.423,17,24.38
			c5.891,7.961,11.949,15.8,18.345,23.35c6.385,7.555,12.951,14.964,19.937,21.95c1.705,1.788,3.489,3.495,5.274,5.199
			c1.794,1.694,3.524,3.46,5.388,5.076l5.509,4.938l5.686,4.723c7.669,6.179,15.697,11.898,24.151,16.882l0.023,0.014
			c0.952,0.561,1.268,1.787,0.707,2.739c-0.561,0.952-1.787,1.268-2.739,0.707l-0.018-0.011
			c-17.231-10.407-32.553-23.533-46.427-37.871c-6.993-7.13-13.543-14.666-19.902-22.34c-6.37-7.669-12.389-15.615-18.234-23.677
			c-5.853-8.057-11.443-16.299-16.843-24.659c-5.404-8.357-10.618-16.834-15.644-25.419c-5.017-8.59-9.866-17.277-14.515-26.07
			c-4.643-8.8-9.146-17.657-13.323-26.711c-0.196-0.425-0.011-0.928,0.414-1.124c0.422-0.195,0.922-0.013,1.12,0.407L62.774,452.793
			z"/>
	</g>
	<g style="opacity:0.79;">
		
			<linearGradient id="SVGID_00000005252581702314068410000007708846268693184674_" gradientUnits="userSpaceOnUse" x1="982.1165" y1="-4648.71" x2="1211.5498" y2="-4648.71" gradientTransform="matrix(-0.4516 -0.8921 -0.8921 0.4516 -2598.9082 3633.9504)">
			<stop  offset="0" style="stop-color:#A737D5"/>
			<stop  offset="1" style="stop-color:#EF497A"/>
		</linearGradient>
		<path style="fill:url(#SVGID_00000005252581702314068410000007708846268693184674_);" d="M1132.75,391.75
			c7.623,37.8,43.004,259.582-159.15,330.166c0,0-60.878-140.012,153.782-331.961C1129.26,388.275,1132.252,389.281,1132.75,391.75z
			"/>
		<path style="opacity:0.86;fill:#FFFFFF;" d="M1116.555,426.815c-1.932,12.869-4.413,25.606-7.124,38.308
			c-2.724,12.696-5.758,25.326-9.11,37.874c-3.352,12.547-7.021,25.012-11.018,37.375c-1.023,3.083-1.984,6.186-3.059,9.252
			l-3.192,9.209c-2.241,6.099-4.435,12.218-6.862,18.249c-2.32,6.073-4.904,12.042-7.429,18.034l-3.99,8.903
			c-1.302,2.981-2.789,5.877-4.174,8.82c-5.681,11.704-11.773,23.233-18.645,34.311l-2.541,4.175l-2.689,4.084l-2.69,4.084
			l-1.345,2.042l-1.427,1.987l-5.723,7.942l-6.074,7.685c-8.285,10.098-17.331,19.613-27.307,28.139
			c-0.84,0.718-2.102,0.619-2.82-0.221c-0.718-0.84-0.619-2.102,0.221-2.82l0.011-0.009l0.022-0.019
			c9.814-8.265,18.769-17.539,27.003-27.425l6.044-7.531l5.708-7.799l1.424-1.952l1.345-2.009l2.69-4.019l2.69-4.019l2.545-4.115
			c6.884-10.916,13.013-22.308,18.74-33.889c1.398-2.913,2.896-5.778,4.212-8.731l4.031-8.819
			c2.554-5.939,5.169-11.856,7.522-17.882c2.459-5.983,4.688-12.058,6.965-18.114l3.247-9.147c1.093-3.045,2.073-6.13,3.116-9.194
			c4.073-12.287,7.823-24.684,11.257-37.17s6.554-25.061,9.365-37.704c2.796-12.641,5.37-25.358,7.384-38.126l0.003-0.016
			c0.073-0.462,0.507-0.778,0.969-0.705C1116.309,425.925,1116.624,426.356,1116.555,426.815z"/>
	</g>
	<g style="opacity:0.94;">
		
			<linearGradient id="SVGID_00000013173390525155656570000004207294669926262457_" gradientUnits="userSpaceOnUse" x1="1768.7981" y1="-6532.4043" x2="1938.9412" y2="-6532.4043" gradientTransform="matrix(-0.028 -0.974 -0.8912 0.0256 -4699.1387 2631.6062)">
			<stop  offset="0" style="stop-color:#CB236D"/>
			<stop  offset="1" style="stop-color:#4C246D"/>
		</linearGradient>
		<path style="fill:url(#SVGID_00000013173390525155656570000004207294669926262457_);" d="M1164.49,576.076
			c-6.016,27.044-46.913,182.826-187.765,166.395c0,0,2.731-110.267,185.053-169.228
			C1163.373,572.727,1164.883,574.31,1164.49,576.076z"/>
		<path style="opacity:0.86;fill:#FFFFFF;" d="M1145.225,594.074c-4.635,7.451-9.531,14.69-14.544,21.867
			c-5.017,7.169-10.197,14.224-15.514,21.176c-5.324,6.947-10.8,13.778-16.429,20.485c-5.626,6.709-11.405,13.296-17.394,19.692
			c-5.983,6.401-12.105,12.683-18.504,18.685c-6.39,6.008-12.932,11.875-19.818,17.34c-13.683,11.009-28.5,20.806-44.702,28.023
			c-1.009,0.449-2.191-0.004-2.641-1.013c-0.45-1.009,0.004-2.191,1.013-2.641c0.003-0.001,0.007-0.003,0.01-0.004l0.037-0.016
			c15.829-6.843,30.52-16.3,44.154-27.03c6.861-5.322,13.404-11.061,19.804-16.948c6.41-5.881,12.558-12.052,18.574-18.348
			c6.022-6.291,11.843-12.78,17.516-19.396c5.676-6.614,11.205-13.357,16.585-20.22c5.373-6.868,10.613-13.842,15.692-20.932
			c5.07-7.09,10.044-14.276,14.72-21.61l0.008-0.012c0.251-0.394,0.775-0.51,1.17-0.259
			C1145.353,593.162,1145.47,593.68,1145.225,594.074z"/>
	</g>
	<g>
		<g>
			<g>
				
					<linearGradient id="SVGID_00000018230690600361389290000015113268418009653393_" gradientUnits="userSpaceOnUse" x1="9124.5693" y1="521.9549" x2="8877.7939" y2="681.9263" gradientTransform="matrix(-1 0 0 1 9352.3076 0)">
					<stop  offset="0" style="stop-color:#53D8FF"/>
					<stop  offset="1" style="stop-color:#3840F7"/>
				</linearGradient>
				<path style="fill:url(#SVGID_00000018230690600361389290000015113268418009653393_);" d="M129.425,569.42l271.348,0v-46.494
					l-271.348,0C135.233,522.927,135.233,569.42,129.425,569.42z"/>
				
					<linearGradient id="SVGID_00000011736910684262770300000006444525051448303527_" gradientUnits="userSpaceOnUse" x1="91.1921" y1="517.3024" x2="473.0179" y2="580.3718">
					<stop  offset="0" style="stop-color:#53D8FF"/>
					<stop  offset="1" style="stop-color:#3840F7"/>
				</linearGradient>
				<path style="fill:url(#SVGID_00000011736910684262770300000006444525051448303527_);" d="M400.773,557.786v-21.277
					c0-7.501-5.362-13.581-11.977-13.581H130.569c-5.202,0-9.419-3.61-9.419-8.063c0-1.353,1.281-2.45,2.862-2.45h282.222
					c6.472,0,16.748,8.711,16.748,19.457v29.717c0,10.132-9.976,18.345-16.078,18.345H125.497c-2.4,0-4.346-1.666-4.346-3.721
					c0-3.751,3.552-6.792,7.934-6.792h261.428C396.179,569.42,400.773,564.211,400.773,557.786z"/>
			</g>
			<path style="fill:#FFFFFF;" d="M393.248,533.467H138.822c-0.552,0-1-0.448-1-1s0.448-1,1-1h254.426c0.552,0,1,0.448,1,1
				S393.8,533.467,393.248,533.467z"/>
			<path style="fill:#FFFFFF;" d="M393.248,540.368H138.822c-0.552,0-1-0.448-1-1s0.448-1,1-1h254.426c0.552,0,1,0.448,1,1
				S393.8,540.368,393.248,540.368z"/>
			<path style="fill:#FFFFFF;" d="M393.248,547.269H138.822c-0.552,0-1-0.448-1-1c0-0.552,0.448-1,1-1h254.426c0.552,0,1,0.448,1,1
				C394.248,546.821,393.8,547.269,393.248,547.269z"/>
			<path style="fill:#FFFFFF;" d="M393.248,554.17H138.822c-0.552,0-1-0.448-1-1c0-0.552,0.448-1,1-1h254.426c0.552,0,1,0.448,1,1
				C394.248,553.722,393.8,554.17,393.248,554.17z"/>
			<path style="fill:#FFFFFF;" d="M393.248,561.071H138.822c-0.552,0-1-0.448-1-1c0-0.552,0.448-1,1-1h254.426c0.552,0,1,0.448,1,1
				C394.248,560.623,393.8,561.071,393.248,561.071z"/>
		</g>
		<g>
			
				<linearGradient id="SVGID_00000155121367379397822030000011167756131350312381_" gradientUnits="userSpaceOnUse" x1="4354.7876" y1="611.1359" x2="4350.3232" y2="791.935" gradientTransform="matrix(-1 0 0 1 4608.7476 0)">
				<stop  offset="0" style="stop-color:#53D8FF"/>
				<stop  offset="1" style="stop-color:#3840F7"/>
			</linearGradient>
			<path style="fill:url(#SVGID_00000155121367379397822030000011167756131350312381_);" d="M451.835,760.881h-390.6
				c-11.098,0-20.095-8.997-20.095-20.095v-50.728c0-11.098,8.997-20.095,20.095-20.095h390.6c11.098,0,20.095,8.997,20.095,20.095
				v50.728C471.93,751.885,462.933,760.881,451.835,760.881z"/>
			<path style="opacity:0.6;fill:#FFFFFF;" d="M133.192,750.432H97.067c-3.999,0-7.242-3.242-7.242-7.242v-55.536
				c0-4,3.242-7.242,7.242-7.242h36.125c4,0,7.242,3.242,7.242,7.242v55.536C140.434,747.19,137.191,750.432,133.192,750.432z"/>
		</g>
		<g>
			
				<linearGradient id="SVGID_00000061435847932870426780000012736298610106226329_" gradientUnits="userSpaceOnUse" x1="-5466.2227" y1="490.1285" x2="-5805.1597" y2="703.5546" gradientTransform="matrix(-1 0 0 1 -5407.2471 0)">
				<stop  offset="0" style="stop-color:#B37CFF"/>
				<stop  offset="1" style="stop-color:#F895E7"/>
			</linearGradient>
			<path style="fill:url(#SVGID_00000061435847932870426780000012736298610106226329_);" d="M437.597,584.987v15.658
				c0,2.688-1.401,5.243-3.84,7.002l-2.409,1.738c-1.978,1.427-1.563,4.075,0.79,5.03l0,0c1.553,0.63,1.842,2.372,0.553,3.33
				l-3.037,2.257c-1.987,1.477-1.991,4.065-0.009,5.546l2.18,1.629c1.881,1.406,1.827,3.876-0.115,5.223l-2.342,1.625
				c-1.626,1.128-1.897,3.123-0.617,4.526l1.29,1.413c0.924,1.013,1.424,2.25,1.424,3.522v24.726H113.807v-84.713L437.597,584.987z"
				/>
			<path style="opacity:0.78;fill:#FFFFFF;" d="M124.811,603.117h301.65c0.658,0,1.19-0.444,1.19-0.992
				c0-0.548-0.532-0.992-1.19-0.992h-301.65c-0.658,0-1.19,0.444-1.19,0.992C123.621,602.673,124.153,603.117,124.811,603.117z"/>
			<path style="opacity:0.78;fill:#FFFFFF;" d="M124.811,617.864h294.511c0.658,0,1.19-0.444,1.19-0.992
				c0-0.548-0.532-0.992-1.19-0.992H124.811c-0.658,0-1.19,0.444-1.19,0.992C123.621,617.421,124.153,617.864,124.811,617.864z"/>
			<path style="opacity:0.78;fill:#FFFFFF;" d="M124.811,628.719H415.66c0.658,0,1.19-0.444,1.19-0.992
				c0-0.548-0.532-0.992-1.19-0.992H124.811c-0.658,0-1.19,0.444-1.19,0.992C123.621,628.275,124.153,628.719,124.811,628.719z"/>
			
				<linearGradient id="SVGID_00000039134672792360192310000003552199535425131426_" gradientUnits="userSpaceOnUse" x1="-4156.9116" y1="625.6004" x2="-3797.0725" y2="625.6004" gradientTransform="matrix(-1 0 0 1 -3707.2471 0)">
				<stop  offset="0" style="stop-color:#A737D5"/>
				<stop  offset="1" style="stop-color:#EF497A"/>
			</linearGradient>
			<path style="fill:url(#SVGID_00000039134672792360192310000003552199535425131426_);" d="M108.046,578.097h336.5
				c2.564,0,4.853,1.562,5.096,3.689c0.279,2.44-2.015,4.493-4.885,4.493H132.737c-5.48,0-10.215,3.198-11.354,7.666
				c-5.103,20.02-4.717,40.864,0.091,62.371c1.115,4.987,6.349,8.603,12.435,8.603h304.47c2.564,0,4.853,1.562,5.096,3.689
				c0.279,2.44-2.015,4.493-4.885,4.493H110.275c-7.849,0-14.609-4.67-16.008-11.108c-5.67-26.091-6.166-51.134-0.004-74.828
				c1.381-5.311,7.08-9.07,13.6-9.07H108.046z"/>
		</g>
	</g>
	<g>
		<g>
			
				<linearGradient id="SVGID_00000054266075783872215160000015724026279577174446_" gradientUnits="userSpaceOnUse" x1="550.9303" y1="678.8608" x2="740.6236" y2="109.7792">
				<stop  offset="0" style="stop-color:#2B3582"/>
				<stop  offset="1" style="stop-color:#150E42"/>
			</linearGradient>
			<path style="fill:url(#SVGID_00000054266075783872215160000015724026279577174446_);" d="M1017.423,706.484
				c0,8.396-6.314,15.265-14.032,15.265H244.612c-7.717,0-14.032-6.869-14.032-15.265l-6.314-474.845
				c0-8.396,9.084-24.787,25.731-23.555l741.562-20.895c9.683-0.273,19.046,3.786,25.903,11.229
				c6.857,7.443,10.609,17.619,10.38,28.154L1017.423,706.484z"/>
			
				<linearGradient id="SVGID_00000176004427306621251990000000791337544756351914_" gradientUnits="userSpaceOnUse" x1="966.4558" y1="80.7943" x2="-57.8424" y2="1250.7172">
				<stop  offset="0" style="stop-color:#FDF53F"/>
				<stop  offset="1" style="stop-color:#D93C65"/>
			</linearGradient>
			<path style="fill:url(#SVGID_00000176004427306621251990000000791337544756351914_);" d="M1003.57,691.839
				c0,7.951-5.974,14.456-13.275,14.456H262.91c-7.301,0-13.275-6.505-13.275-14.456l-5.958-431.069
				c0.702-25.941,21.586-35.264,34.246-34.713c0,0,579.599-16.933,710.72-20.764c6.803-0.199,13.38,2.655,18.198,7.889
				c4.818,5.233,7.468,12.396,7.298,19.804L1003.57,691.839z"/>
			<g>
				<path style="fill:#FFFFFF;" d="M257.496,485.932c-0.546,0-0.992-0.439-1-0.986l-0.471-34.96
					c-0.007-0.552,0.434-1.006,0.986-1.014c0.545-0.019,1.006,0.434,1.014,0.986l0.471,34.959c0.007,0.552-0.434,1.006-0.986,1.014
					C257.505,485.932,257.501,485.932,257.496,485.932z"/>
				<path style="fill:#FFFFFF;" d="M256.341,400.264c-0.546,0-0.992-0.439-0.999-0.986l-1.806-133.892
					c0.039-9.331,2.809-16.681,8.232-21.862c9.001-8.598,22.362-8.143,22.919-8.122l226.964-6.633
					c0.58-0.026,1.013,0.418,1.029,0.97c0.016,0.552-0.419,1.013-0.97,1.029l-227.026,6.633c-0.611-0.023-13.141-0.448-21.534,7.57
					c-5.016,4.792-7.577,11.657-7.614,20.407l1.806,133.874c0.007,0.552-0.434,1.006-0.986,1.014
					C256.35,400.264,256.346,400.264,256.341,400.264z"/>
			</g>
			<path style="opacity:0.37;fill:#FFFFFF;" d="M281.681,667.926c0.762-35.628,0.478-351.126-1.399-378.374
				c-1.877-27.248,37.092-32.359,96.922-35.425c59.83-3.067,564.639-15.207,577.637-16.354c29.216-2.58,35.263,44.975,32.34,148.211
				c-2.196,77.561-5.835,205.329-7.51,264.086c-0.499,17.496-13.63,31.377-29.704,31.425
				c-121.478,0.363-587.066,1.816-618.061,2.822C296.239,685.473,281.379,682.053,281.681,667.926z"/>
		</g>
		
			<linearGradient id="SVGID_00000134211256538446910750000011317220810811229088_" gradientUnits="userSpaceOnUse" x1="971.2126" y1="657.7214" x2="174.3085" y2="851.5628">
			<stop  offset="0" style="stop-color:#2B3582"/>
			<stop  offset="1" style="stop-color:#150E42"/>
		</linearGradient>
		<path style="fill:url(#SVGID_00000134211256538446910750000011317220810811229088_);" d="M1071.473,761.168h-879.56
			c-4.128,0-7.505-3.377-7.505-7.505v-26.712c0-4.128,3.377-7.505,7.505-7.505h879.56c4.128,0,7.505,3.377,7.505,7.505v26.711
			C1078.978,757.791,1075.601,761.168,1071.473,761.168z"/>
		<g>
			<path style="fill:#FFFFFF;" d="M926.014,624.89H343.026c-8.4,0-14.98-6.95-14.98-15.821V309.67
				c0-8.673,6.535-15.588,14.877-15.744l582.908-10.842c4.089-0.061,7.988,1.528,10.948,4.519c2.917,2.949,4.59,7.041,4.59,11.225
				v310.241C941.368,617.792,934.48,624.89,926.014,624.89z M342.96,295.927c-7.242,0.135-12.914,6.172-12.914,13.744v299.398
				c0,7.75,5.702,13.821,12.98,13.821h582.988c7.363,0,13.354-6.2,13.354-13.821V298.828c0-3.662-1.462-7.24-4.012-9.818
				c-2.571-2.598-5.928-3.974-9.489-3.926L342.96,295.927z"/>
			
				<linearGradient id="SVGID_00000054980317892809772220000015662132136103216809_" gradientUnits="userSpaceOnUse" x1="626.8618" y1="394.4864" x2="102.9253" y2="705.2346">
				<stop  offset="0" style="stop-color:#53D8FF"/>
				<stop  offset="1" style="stop-color:#3840F7"/>
			</linearGradient>
			<path style="fill:url(#SVGID_00000054980317892809772220000015662132136103216809_);" d="M717.022,347.285
				c0-6.192-5.02-11.212-11.212-11.212H364.434c-6.192,0-11.212,5.02-11.212,11.212V550.51c0,6.192,5.02,11.212,11.212,11.212
				H705.81c6.192,0,11.212-5.02,11.212-11.212V347.285z"/>
			<g>
				<path style="fill:#FFFFFF;" d="M879.342,410.754H755.703c-8.048,0-14.353-6.337-14.353-14.428v-47.047
					c0-7.966,6.305-14.206,14.353-14.206h123.639c8.51,0,15.975,6.638,15.975,14.206v47.047
					C895.317,404.012,887.852,410.754,879.342,410.754z M755.703,337.073c-7.042,0-12.353,5.247-12.353,12.206v47.047
					c0,6.109,4.621,12.428,12.353,12.428h123.639c7.314,0,13.975-5.924,13.975-12.428v-47.047c0-6.502-6.53-12.206-13.975-12.206
					H755.703z"/>
				<path style="fill:#FFFFFF;" d="M879.342,505.158H755.703c-8.183,0-14.353-6.02-14.353-14.002v-47.047
					c0-9.159,7.298-14.632,14.353-14.632h123.639c8.361,0,15.975,6.974,15.975,14.632v47.047
					C895.317,498.746,888.001,505.158,879.342,505.158z M755.703,431.477c-7.732,0-12.353,6.422-12.353,12.632v47.047
					c0,6.842,5.31,12.002,12.353,12.002h123.639c7.445,0,13.975-5.608,13.975-12.002v-47.047c0-6.611-6.661-12.632-13.975-12.632
					H755.703z"/>
				<path style="fill:#FFFFFF;" d="M879.342,599.562H755.703c-8.317,0-14.353-5.71-14.353-13.576v-47.047
					c0-7.242,5.487-15.058,14.353-15.058h123.639c8.361,0,15.975,7.177,15.975,15.058v47.047
					C895.317,593.472,888.151,599.562,879.342,599.562z M755.703,525.881c-7.63,0-12.353,6.778-12.353,13.058v47.047
					c0,6.708,5.195,11.576,12.353,11.576h123.639c7.575,0,13.975-5.301,13.975-11.576v-47.047c0-6.712-6.792-13.058-13.975-13.058
					H755.703z"/>
			</g>
			<path style="opacity:0.5;fill:#FFFFFF;" d="M587.668,576.512c-34.798-0.086-192.534-0.449-227.404-0.122
				c-3.752,0.035-7.043,3.083-7.043,6.835v3.817c0,3.715,2.986,6.75,6.7,6.836l227.063,5.213c1.84,0.042,4.124-0.659,5.44-1.945
				c1.316-1.287,2.563-3.05,2.563-4.89v-8.906C594.988,579.579,591.437,576.521,587.668,576.512z"/>
			<path style="fill:#FFFFFF;" d="M940.368,316.351H329.045c-0.552,0-1-0.448-1-1c0-0.552,0.448-1,1-1h611.323c0.552,0,1,0.448,1,1
				C941.368,315.903,940.92,316.351,940.368,316.351z"/>
			<path style="fill:#FFFFFF;" d="M866.609,307.141h-0.996c-3.768,0-6.834-3.066-6.834-6.834v-0.996
				c0-3.768,3.066-6.834,6.834-6.834h0.996c3.768,0,6.834,3.066,6.834,6.834v0.996C873.443,304.075,870.377,307.141,866.609,307.141
				z M865.613,294.477c-2.666,0-4.834,2.168-4.834,4.834v0.996c0,2.666,2.168,4.834,4.834,4.834h0.996
				c2.666,0,4.834-2.168,4.834-4.834v-0.996c0-2.665-2.168-4.834-4.834-4.834H865.613z"/>
			<path style="fill:#FFFFFF;" d="M893.088,307.141h-0.996c-3.768,0-6.834-3.066-6.834-6.834v-0.996
				c0-3.768,3.066-6.834,6.834-6.834h0.996c3.768,0,6.834,3.066,6.834,6.834v0.996C899.922,304.075,896.856,307.141,893.088,307.141
				z M892.092,294.477c-2.666,0-4.834,2.168-4.834,4.834v0.996c0,2.666,2.168,4.834,4.834,4.834h0.996
				c2.666,0,4.834-2.168,4.834-4.834v-0.996c0-2.665-2.168-4.834-4.834-4.834H892.092z"/>
			<path style="fill:#FFFFFF;" d="M920.719,307.141h-0.996c-3.768,0-6.834-3.066-6.834-6.834v-0.996
				c0-3.768,3.066-6.834,6.834-6.834h0.996c3.768,0,6.834,3.066,6.834,6.834v0.996C927.553,304.075,924.487,307.141,920.719,307.141
				z M919.723,294.477c-2.666,0-4.834,2.168-4.834,4.834v0.996c0,2.666,2.168,4.834,4.834,4.834h0.996
				c2.666,0,4.834-2.168,4.834-4.834v-0.996c0-2.665-2.168-4.834-4.834-4.834H919.723z"/>
			<g>
				<path style="fill:#FFFFFF;" d="M671.504,550.264c-18.703,0-33.89-15.187-33.89-33.853c0-18.703,15.187-33.89,33.854-33.89
					c18.703,0,33.89,15.187,33.89,33.854v0.036C705.358,535.077,690.171,550.264,671.504,550.264z M671.504,484.52
					c-17.6,0-31.89,14.29-31.89,31.854c0,17.6,14.29,31.89,31.854,31.89c17.601,0,31.89-14.29,31.89-31.853v-0.036
					C703.358,498.81,689.069,484.52,671.504,484.52z"/>
				<path style="fill:#FFFFFF;" d="M662.148,533.404c-0.946,0-1.726-0.754-1.752-1.706l-0.801-29.904
					c-0.026-0.986,0.451-1.897,1.275-2.437c0.825-0.541,1.85-0.615,2.744-0.197l29.539,13.816c0.975,0.456,1.598,1.407,1.627,2.483
					c0.028,1.076-0.544,2.059-1.494,2.566l-26.075,13.901c-0.856,0.455-1.917,0.131-2.372-0.722
					c-0.456-0.854-0.132-1.916,0.722-2.372l24.869-13.258l-27.3-12.769l0.771,28.798c0.026,0.968-0.738,1.774-1.706,1.8
					C662.18,533.404,662.164,533.404,662.148,533.404z"/>
			</g>
			<g>
				
					<linearGradient id="SVGID_00000178920942775206236840000000009763938620283056_" gradientUnits="userSpaceOnUse" x1="4290.4058" y1="1001.787" x2="4468.5044" y2="1088.4077" gradientTransform="matrix(-0.9535 -0.3012 -0.3012 0.9535 5018.311 804.611)">
					<stop  offset="0" style="stop-color:#FDF53F"/>
					<stop  offset="1" style="stop-color:#D93C65"/>
				</linearGradient>
				<path style="fill:url(#SVGID_00000178920942775206236840000000009763938620283056_);" d="M514.826,475.392
					c11.285-29.581,42.45-45.984,71.341-36.857c3.101,0.98,6.052,2.219,8.844,3.682c9.701,11.533,13.482,27.622,8.607,43.055
					c-7.575,23.979-33.155,37.276-57.134,29.701C528.355,509.246,516.341,493.228,514.826,475.392z"/>
				
					<linearGradient id="SVGID_00000183210159871285704930000016739097393399089853_" gradientUnits="userSpaceOnUse" x1="636.7123" y1="311.472" x2="492.6868" y2="465.9507">
					<stop  offset="0" style="stop-color:#FDF53F"/>
					<stop  offset="1" style="stop-color:#D93C65"/>
				</linearGradient>
				<circle style="fill:url(#SVGID_00000183210159871285704930000016739097393399089853_);" cx="537.254" cy="418.148" r="66.655"/>
				<path style="opacity:0.31;fill:#FFFFFF;" d="M522.765,375.852c26.23,14.358,35.695,47.552,21.141,74.141
					c-4.242,7.75-10.058,14.08-16.817,18.808c23.404,5.856,48.845-4.709,61.12-27.134c14.554-26.589,5.089-59.783-21.141-74.141
					c-18.585-10.173-40.598-8.158-57.03,3.338C514.384,371.951,518.658,373.604,522.765,375.852z"/>
				
					<linearGradient id="SVGID_00000006698386873325007190000011741282314298831238_" gradientUnits="userSpaceOnUse" x1="720.2966" y1="2263.7295" x2="898.381" y2="2350.3433" gradientTransform="matrix(0.5987 0.801 -0.801 0.5987 1844.7325 -1581.2974)">
					<stop  offset="0" style="stop-color:#FDF53F"/>
					<stop  offset="1" style="stop-color:#D93C65"/>
				</linearGradient>
				<path style="fill:url(#SVGID_00000006698386873325007190000011741282314298831238_);" d="M491.853,458.193
					c24.209-20.404,29.424-55.233,11.285-79.502c-1.947-2.605-4.089-4.982-6.391-7.137c-14.085-5.358-30.522-3.625-43.486,6.065
					c-20.142,15.055-24.267,43.588-9.212,63.73C455.43,456.577,474.514,462.641,491.853,458.193z"/>
				<path style="opacity:0.31;fill:#FFFFFF;" d="M496.13,378.632c2.744,3.631,6.054,9.178,7.632,16.269
					c1.169,5.251-3.197,10.065-8.548,9.507c-13.58-1.417-37.601-0.697-42.285,20.987c-0.756,3.501-5.707,3.658-6.721,0.223
					c-4.96-16.785-3.932-48.589,39.703-51.639C489.878,373.701,493.732,375.459,496.13,378.632z"/>
				<path style="fill:#FFFFFF;" d="M563.4,509.64c-0.446,0-0.853-0.3-0.968-0.752c-0.137-0.535,0.186-1.08,0.721-1.217
					c17.456-4.472,28.378-13.923,32.462-28.091c3.05-10.579,0.951-19.929,0.929-20.022c-0.125-0.538,0.211-1.075,0.749-1.2
					c0.537-0.125,1.075,0.211,1.2,0.749c0.091,0.393,8.578,39.378-34.844,50.502C563.565,509.63,563.482,509.64,563.4,509.64z"/>
			</g>
			<g style="opacity:0.78;">
				<path style="fill:#FFFFFF;" d="M566.007,428.676c0.466,0,0.933-0.172,1.299-0.518l25.646-24.293
					c2.23-2.113,5.151-3.276,8.223-3.276h87.292c1.043,0,1.889-0.846,1.889-1.889s-0.846-1.889-1.889-1.889h-87.292
					c-4.043,0-7.885,1.531-10.821,4.311l-25.647,24.293c-0.757,0.717-0.79,1.913-0.072,2.67
					C565.007,428.478,565.506,428.676,566.007,428.676z"/>
				<path style="fill:#FFFFFF;" d="M614.578,388.875h73.889c1.043,0,1.889-0.846,1.889-1.889c0-1.043-0.846-1.889-1.889-1.889
					h-73.889c-1.043,0-1.889,0.846-1.889,1.889C612.689,388.029,613.535,388.875,614.578,388.875z"/>
				<path style="fill:#FFFFFF;" d="M626.6,377.16h61.867c1.043,0,1.889-0.846,1.889-1.889c0-1.043-0.846-1.889-1.889-1.889H626.6
					c-1.043,0-1.889,0.845-1.889,1.889C624.712,376.315,625.557,377.16,626.6,377.16z"/>
			</g>
			<g style="opacity:0.78;">
				<path style="fill:#FFFFFF;" d="M516.286,465.803c-0.507,0-1.014,0.186-1.411,0.562l-27.868,26.398
					c-2.424,2.296-5.597,3.56-8.935,3.56h-94.854c-1.134,0-2.052,0.919-2.052,2.052s0.919,2.052,2.052,2.052h94.854
					c4.393,0,8.569-1.664,11.758-4.685l27.868-26.398c0.823-0.779,0.858-2.079,0.079-2.901
					C517.372,466.018,516.829,465.803,516.286,465.803z"/>
				<path style="fill:#FFFFFF;" d="M463.507,509.052h-80.29c-1.134,0-2.052,0.919-2.052,2.053s0.919,2.053,2.052,2.053h80.29
					c1.134,0,2.052-0.919,2.052-2.053S464.64,509.052,463.507,509.052z"/>
				<path style="fill:#FFFFFF;" d="M450.443,521.781h-67.226c-1.134,0-2.052,0.919-2.052,2.052c0,1.134,0.919,2.053,2.052,2.053
					h67.226c1.134,0,2.052-0.919,2.052-2.053C452.495,522.7,451.576,521.781,450.443,521.781z"/>
			</g>
		</g>
	</g>
	<g>
		
			<linearGradient id="SVGID_00000050658681083215159520000014470977279360294277_" gradientUnits="userSpaceOnUse" x1="857.4148" y1="29.399" x2="881.0898" y2="-44.5855" gradientTransform="matrix(1.1658 0.0701 -0.0712 1.1846 -148.8819 277.9343)">
			<stop  offset="0" style="stop-color:#53D8FF"/>
			<stop  offset="1" style="stop-color:#3840F7"/>
		</linearGradient>
		<path style="fill:url(#SVGID_00000050658681083215159520000014470977279360294277_);" d="M786.163,134.794l-26.845,58.781
			c0,0,14.871,98.206,118.335,136.482c103.464,38.276,149.506-11.458,149.506-11.458l32.925-86.639L786.163,134.794z"/>
		
			<linearGradient id="SVGID_00000032640178160265494650000007286518050436200887_" gradientUnits="userSpaceOnUse" x1="860.8251" y1="-20.2711" x2="976.234" y2="-275.7486" gradientTransform="matrix(1.1658 0.0701 -0.0712 1.1846 -148.8819 277.9343)">
			<stop  offset="0" style="stop-color:#53D8FF"/>
			<stop  offset="1" style="stop-color:#3840F7"/>
		</linearGradient>
		<path style="fill:url(#SVGID_00000032640178160265494650000007286518050436200887_);" d="M955.313,53.415l-216.44,41.282
			c-11.145,2.126-15.476,16.012-7.554,24.233c38.645,40.102,126.29,133.297,157.976,185.711c3.39,5.607,10.106,8.132,16.293,6.155
			l221.561-70.817c10.022-3.203,13.282-15.969,6.041-23.681c-38.186-40.669-135.496-142.648-168.405-161.334
			C961.908,53.329,958.555,52.797,955.313,53.415z"/>
		
			<linearGradient id="SVGID_00000164490120015906265000000010378844760609176250_" gradientUnits="userSpaceOnUse" x1="1010.5659" y1="103.0364" x2="986.8928" y2="-46.8943" gradientTransform="matrix(1.1658 0.0701 -0.0712 1.1846 -148.8819 277.9343)">
			<stop  offset="0" style="stop-color:#53D8FF"/>
			<stop  offset="1" style="stop-color:#3840F7"/>
		</linearGradient>
		<path style="fill:url(#SVGID_00000164490120015906265000000010378844760609176250_);" d="M940.968,163.839
			c0,0,106.2,82.178,113.323,99.426c7.124,17.248-16.753,90.637-16.753,90.637c12.127,64.997,8.676,134.097-24.435,167.456
			c0,0-29.547-86.683-9.961-120.364c19.586-33.681,27.211-47.523,27.211-47.523s21.468-78.591,17.914-90.416
			C1048.269,263.055,931.012,167.556,940.968,163.839z"/>
		<path style="fill:#FFFFFF;" d="M765.353,117.323l98.332,117.631l24.583,29.408l6.146,7.352l3.073,3.676
			c0.989,1.164,2.042,2.215,3.223,3.154c4.725,3.727,11.161,5.165,17.031,3.75l74.458-18.196c0.521-0.128,1.046,0.191,1.174,0.712
			c0.127,0.518-0.189,1.042-0.706,1.172l-74.353,18.7c-6.573,1.633-13.836,0.07-19.189-4.098c-1.331-1.039-2.553-2.244-3.639-3.51
			l-3.097-3.655l-6.195-7.311l-24.78-29.242l-99.119-116.968c-0.714-0.843-0.61-2.105,0.233-2.819
			c0.843-0.714,2.105-0.61,2.819,0.233L765.353,117.323z"/>
		<path style="fill:#FFFFFF;" d="M1025.758,391.479l-0.246,0.224l-0.282,0.285l-0.57,0.576l-1.102,1.263
			c-0.726,0.855-1.383,1.796-2.078,2.692l-1.878,2.881c-0.587,0.989-1.123,2.013-1.688,3.018c-0.591,0.992-1.05,2.058-1.534,3.111
			c-0.473,1.058-0.993,2.096-1.429,3.172l-1.214,3.273c-0.399,1.094-0.846,2.171-1.132,3.306l-0.969,3.367
			c-0.317,1.125-0.682,2.237-0.884,3.393c-0.469,2.295-0.982,4.582-1.418,6.887l-0.941,6.986c-0.072,0.583-0.173,1.163-0.22,1.749
			l-0.112,1.762l-0.225,3.525c-0.447,4.696-0.217,9.423-0.253,14.144c-0.027,1.182,0.063,2.36,0.147,3.539l0.238,3.538
			c0.169,2.358,0.292,4.721,0.5,7.077c0.624,4.69,1.151,9.4,1.855,14.084l2.601,13.984l0.007,0.036
			c0.07,0.378-0.179,0.741-0.557,0.811c-0.372,0.069-0.73-0.173-0.808-0.541l-2.937-13.999c-0.817-4.698-1.457-9.431-2.194-14.15
			c-0.264-2.373-0.443-4.757-0.669-7.137l-0.322-3.572c-0.112-1.191-0.23-2.381-0.231-3.579c-0.074-4.785-0.413-9.574-0.071-14.368
			l0.148-3.597l0.074-1.799c0.035-0.599,0.124-1.195,0.184-1.792l0.8-7.171c0.392-2.375,0.865-4.741,1.296-7.115
			c0.183-1.194,0.531-2.354,0.832-3.524l0.925-3.508c0.271-1.18,0.708-2.315,1.097-3.463l1.19-3.441
			c0.43-1.136,0.95-2.24,1.421-3.363c0.484-1.118,0.943-2.247,1.544-3.317c0.574-1.08,1.118-2.176,1.721-3.244l1.946-3.138
			c0.735-1.001,1.42-2.028,2.21-3.004l1.211-1.451l0.668-0.708l0.338-0.355l0.407-0.383c0.804-0.757,2.069-0.72,2.826,0.084
			c0.757,0.804,0.72,2.069-0.084,2.826c-0.006,0.006-0.013,0.012-0.02,0.018L1025.758,391.479z"/>
		<path style="fill:#FFFFFF;" d="M1026.509,421.428l-0.408,4.542l-0.399,5.038l-0.746,10.097l-1.412,20.212l-2.705,40.438
			c-0.038,0.599-0.555,1.054-1.154,1.016c-0.59-0.038-1.04-0.545-1.017-1.133l1.793-40.497l0.957-20.249l0.519-10.129l0.287-5.072
			l0.167-2.552l0.09-1.281c0.051-0.533,0.141-1.151,0.24-1.715c0.186-1.059,1.195-1.767,2.254-1.582
			c1.002,0.176,1.69,1.089,1.604,2.084L1026.509,421.428z"/>
	</g>
	<g>
		<g>
			
				<linearGradient id="SVGID_00000139264529319297731140000003700867277750731441_" gradientUnits="userSpaceOnUse" x1="235.9137" y1="660.3002" x2="171.3386" y2="806.444">
				<stop  offset="0" style="stop-color:#FDF53F"/>
				<stop  offset="0.6645" style="stop-color:#E57A58"/>
				<stop  offset="1" style="stop-color:#D93C65"/>
			</linearGradient>
			<path style="fill:url(#SVGID_00000139264529319297731140000003700867277750731441_);" d="M213.414,672.204
				c-1.872,2.77-9.312,65.486-10.476,88.649c-0.079,1.566,1.174,2.872,2.743,2.872l0,0c1.353,0,2.504-0.985,2.712-2.322
				l13.608-87.205L213.414,672.204z"/>
			
				<linearGradient id="SVGID_00000175281448606157529410000003600306028691431615_" gradientUnits="userSpaceOnUse" x1="289.2148" y1="683.8519" x2="224.6397" y2="829.9959">
				<stop  offset="0" style="stop-color:#FDF53F"/>
				<stop  offset="0.6645" style="stop-color:#E57A58"/>
				<stop  offset="1" style="stop-color:#D93C65"/>
			</linearGradient>
			<path style="fill:url(#SVGID_00000175281448606157529410000003600306028691431615_);" d="M273.231,672.204
				c1.872,2.77,9.312,65.486,10.476,88.649c0.079,1.566-1.174,2.872-2.743,2.872l0,0c-1.352,0-2.503-0.985-2.712-2.322
				l-13.608-87.205L273.231,672.204z"/>
			
				<linearGradient id="SVGID_00000016033216640262390840000007501370340086288809_" gradientUnits="userSpaceOnUse" x1="227.0805" y1="746.0435" x2="238.4095" y2="691.6644">
				<stop  offset="0" style="stop-color:#FDF53F"/>
				<stop  offset="0.6645" style="stop-color:#E57A58"/>
				<stop  offset="1" style="stop-color:#D93C65"/>
			</linearGradient>
			<path style="fill:url(#SVGID_00000016033216640262390840000007501370340086288809_);" d="M202.16,667.309l-0.006,0.684
				c-0.045,4.92,4.194,8.956,9.501,9.046l62.9,1.07c5.231,0.089,9.592-3.691,9.845-8.535l0.033-0.626
				c0.265-5.052-4.025-9.308-9.481-9.405l-62.926-1.128C206.64,658.318,202.205,662.316,202.16,667.309z"/>
		</g>
		<g>
			<g>
				
					<linearGradient id="SVGID_00000166664095225041990590000014445525608687585210_" gradientUnits="userSpaceOnUse" x1="306.185" y1="758.3837" x2="351.7948" y2="758.3837">
					<stop  offset="0" style="stop-color:#CB236D"/>
					<stop  offset="1" style="stop-color:#4C246D"/>
				</linearGradient>
				<path style="fill:url(#SVGID_00000166664095225041990590000014445525608687585210_);" d="M324.525,758.575
					c-11.181,0-16.129-0.959-18.34-1.834c0.43,1.836,2.065,3.286,4.132,3.286h39.556c1.332,0,2.173-1.275,1.854-2.43
					C347.219,757.96,337.642,758.575,324.525,758.575z"/>
				
					<linearGradient id="SVGID_00000183952922541075521890000008200018782775453333_" gradientUnits="userSpaceOnUse" x1="341.3255" y1="670.6816" x2="328.8637" y2="756.7814">
					<stop  offset="0" style="stop-color:#CB236D"/>
					<stop  offset="1" style="stop-color:#4C246D"/>
				</linearGradient>
				<path style="fill:url(#SVGID_00000183952922541075521890000008200018782775453333_);" d="M351.727,757.597
					c-0.064-0.233-0.158-0.462-0.324-0.673c-3.013-3.847-9.066-9.888-17.3-9.773c-12.062,0.17-16.267,1.478-25.641,0.073
					l-2.211,7.33c-0.225,0.747-0.229,1.493-0.067,2.186c2.212,0.875,7.159,1.834,18.34,1.834
					C337.642,758.575,347.219,757.96,351.727,757.597z"/>
			</g>
			
				<linearGradient id="SVGID_00000137834580308243892210000017073871615408656545_" gradientUnits="userSpaceOnUse" x1="308.4633" y1="744.6391" x2="320.8039" y2="744.6391">
				<stop  offset="0" style="stop-color:#F9B776"/>
				<stop  offset="1" style="stop-color:#F47960"/>
			</linearGradient>
			<path style="fill:url(#SVGID_00000137834580308243892210000017073871615408656545_);" d="M311.178,739.326l-2.714,9.232
				c0,0,6.013,2.737,11.302,0.54l1.039-7.998L311.178,739.326z"/>
			<g>
				
					<linearGradient id="SVGID_00000136379822545851753080000007632261154351132342_" gradientUnits="userSpaceOnUse" x1="377.7216" y1="749.345" x2="414.5463" y2="749.345">
					<stop  offset="0" style="stop-color:#CB236D"/>
					<stop  offset="1" style="stop-color:#4C246D"/>
				</linearGradient>
				<path style="fill:url(#SVGID_00000136379822545851753080000007632261154351132342_);" d="M393.162,752.761
					c-8.716,7.003-13.171,9.358-15.44,10.065c1.48,1.155,3.658,1.256,5.269-0.039l30.835-24.776c1.038-0.834,0.899-2.35-0.069-3.047
					C410.469,738.07,403.387,744.546,393.162,752.761z"/>
				
					<linearGradient id="SVGID_00000153692367426241039100000014742426001995895962_" gradientUnits="userSpaceOnUse" x1="403.0514" y1="679.6152" x2="390.5895" y2="765.7153">
					<stop  offset="0" style="stop-color:#CB236D"/>
					<stop  offset="1" style="stop-color:#4C246D"/>
				</linearGradient>
				<path style="fill:url(#SVGID_00000153692367426241039100000014742426001995895962_);" d="M413.758,734.965
					c-0.195-0.14-0.411-0.259-0.672-0.319c-4.747-1.097-13.232-1.994-19.578,3.254c-9.297,7.687-11.76,11.336-19.942,16.117
					l2.845,7.072c0.29,0.721,0.752,1.302,1.311,1.738c2.27-0.707,6.724-3.061,15.44-10.065
					C403.387,744.546,410.469,738.07,413.758,734.965z"/>
			</g>
			
				<linearGradient id="SVGID_00000098900791939309772500000003307266608973637764_" gradientUnits="userSpaceOnUse" x1="240.2257" y1="688.9547" x2="337.9157" y2="688.9547">
				<stop  offset="0" style="stop-color:#2B3582"/>
				<stop  offset="1" style="stop-color:#150E42"/>
			</linearGradient>
			<path style="fill:url(#SVGID_00000098900791939309772500000003307266608973637764_);" d="M253.113,634.149
				c0,0,66.943,5.466,80.675,11.931c13.733,6.465-11.207,97.071-11.207,97.071s-3.739,1.799-12.057-0.787
				c0,0,8.531-66.864,2.183-81.363l-72.482-11.855L253.113,634.149z"/>
			
				<linearGradient id="SVGID_00000169529931412018036120000002603519851193709501_" gradientUnits="userSpaceOnUse" x1="366.9143" y1="745.6777" x2="381.6473" y2="745.6777">
				<stop  offset="0" style="stop-color:#F9B776"/>
				<stop  offset="1" style="stop-color:#F47960"/>
			</linearGradient>
			<path style="fill:url(#SVGID_00000169529931412018036120000002603519851193709501_);" d="M366.914,741.289
				c0.622,0.566,6.651,12.727,6.651,12.727s6.713-1.452,8.082-5.701l-6.04-10.976L366.914,741.289z"/>
			
				<linearGradient id="SVGID_00000039095868769395282480000012141385651637098144_" gradientUnits="userSpaceOnUse" x1="328.9625" y1="648.2534" x2="221.715" y2="769.8508">
				<stop  offset="0" style="stop-color:#2B3582"/>
				<stop  offset="1" style="stop-color:#150E42"/>
			</linearGradient>
			<path style="fill:url(#SVGID_00000039095868769395282480000012141385651637098144_);" d="M212.794,633.59
				c0,0-2.181,5.249-2.092,12.225c0.123,9.647,7.879,17.475,17.515,17.956l79.137,3.609c1.671,0.076,3.085,1.233,3.504,2.853
				c1.86,7.193,10.949,29.282,55.382,73.359c1.182,1.173,3.024,1.372,4.431,0.483l6.325-3.995c0.664-0.419,0.876-1.29,0.479-1.968
				l-46.078-78.685c-2.42-3.994-6.31-6.879-10.835-8.036l-67.449-17.241L212.794,633.59z"/>
			
				<linearGradient id="SVGID_00000152947893661791497480000003707638934131021954_" gradientUnits="userSpaceOnUse" x1="285.0778" y1="538.0667" x2="292.3413" y2="519.7499">
				<stop  offset="0" style="stop-color:#F9B776"/>
				<stop  offset="1" style="stop-color:#F47960"/>
			</linearGradient>
			<path style="fill:url(#SVGID_00000152947893661791497480000003707638934131021954_);" d="M290.783,510.678
				c0,0-8.478,14.989-17.121,22.25l17.866,9.968c0,0,4.026-15.868,13.223-20.515L290.783,510.678z"/>
			
				<linearGradient id="SVGID_00000061441875816595936340000013531203275968677764_" gradientUnits="userSpaceOnUse" x1="282.3029" y1="640.7417" x2="274.4102" y2="464.4727">
				<stop  offset="0" style="stop-color:#CB236D"/>
				<stop  offset="1" style="stop-color:#4C246D"/>
			</linearGradient>
			<path style="fill:url(#SVGID_00000061441875816595936340000013531203275968677764_);" d="M211.357,634.149
				c0,0,21.364,5.206,41.756,0c0,0,28.534-38.359,39.574-48.799c0,0,17.609,27.786,56.802,31.724l2.186-4.884
				c0,0-31.202-14.384-40.808-36.484c-9.606-22.101-13.464-31.527-22.203-37.293c-5.443-3.591-8.701-6.044-10.386-7.384
				c-0.922-0.734-2.194-0.816-3.201-0.203C265.804,536.477,222.165,566.365,211.357,634.149z"/>
			
				<linearGradient id="SVGID_00000178164254187304129750000002889997859779229872_" gradientUnits="userSpaceOnUse" x1="312.8714" y1="520.836" x2="301.2831" y2="544.0125">
				<stop  offset="0" style="stop-color:#CB236D"/>
				<stop  offset="1" style="stop-color:#4C246D"/>
			</linearGradient>
			<path style="fill:url(#SVGID_00000178164254187304129750000002889997859779229872_);" d="M291.528,584.44
				c-0.3,0-0.597-0.135-0.794-0.392c-6.77-8.83-10.541-18.558-10.698-18.968c-0.198-0.515,0.06-1.094,0.575-1.292
				c0.517-0.198,1.094,0.06,1.292,0.575c0.038,0.098,3.83,9.876,10.418,18.468c0.336,0.438,0.253,1.066-0.185,1.402
				C291.955,584.373,291.741,584.44,291.528,584.44z"/>
			
				<linearGradient id="SVGID_00000118356538673070798710000009875364743870666374_" gradientUnits="userSpaceOnUse" x1="347.1329" y1="609.3015" x2="381.1644" y2="609.3015">
				<stop  offset="0" style="stop-color:#F9B776"/>
				<stop  offset="1" style="stop-color:#F47960"/>
			</linearGradient>
			<path style="fill:url(#SVGID_00000118356538673070798710000009875364743870666374_);" d="M347.133,609.639l4.412-1.176
				l13.395-3.102c1.612-0.373,3.307-0.088,4.708,0.794l11.517,7.246l-31.806-0.054L347.133,609.639z"/>
			<g>
				
					<linearGradient id="SVGID_00000104692074195850615540000016161589192229573048_" gradientUnits="userSpaceOnUse" x1="2210.7017" y1="1036.2434" x2="2174.2324" y2="1064.1481" gradientTransform="matrix(0.9914 -0.1306 0.1306 0.9914 -2019.7687 -237.7983)">
					<stop  offset="0" style="stop-color:#F9B776"/>
					<stop  offset="1" style="stop-color:#F47960"/>
				</linearGradient>
				<path style="fill:url(#SVGID_00000104692074195850615540000016161589192229573048_);" d="M304.244,488.202
					c0,0,8.239,13.695,9.668,21.265c1.429,7.57,3.725,12.301-4.891,14.999c-8.615,2.697-16.621-0.716-21.646-7.782
					c0,0-7.847-10.874-7.064-15.854C281.094,495.85,304.244,488.202,304.244,488.202z"/>
				
					<linearGradient id="SVGID_00000152967106059181656980000013309786435069041312_" gradientUnits="userSpaceOnUse" x1="2185.0803" y1="1014.2155" x2="2218.1045" y2="1056.734" gradientTransform="matrix(0.9914 -0.1306 0.1306 0.9914 -2019.7687 -237.7983)">
					<stop  offset="0" style="stop-color:#2B3582"/>
					<stop  offset="1" style="stop-color:#150E42"/>
				</linearGradient>
				<path style="fill:url(#SVGID_00000152967106059181656980000013309786435069041312_);" d="M289.669,510.825l1.115-0.147
					c0,0-5.834-8.815-2.017-11.002c3.817-2.187,19.373-7.553,22.074-13.679c2.604-5.906-1.291-12.578-5.988-13.971
					c-0.297-0.088-0.611,0.088-0.718,0.378l-0.276,0.744c-0.189,0.509-0.902,0.53-1.12,0.032l0,0
					c-0.207-0.472-0.882-0.492-1.095-0.023c-0.832,1.835-3.328,4.97-10.808,7.395c-10.615,3.441-17.227,8.792-16.413,16.334
					c0.052,0.478-0.423,0.807-0.862,0.613c-0.868-0.384-2.183-0.444-3.711,1.227c-2.656,2.905-0.576,9.26,6.679,13.757
					c0.345,0.214,0.406,0.7,0.098,0.964c-1.085,0.929-2.612,3.001,2.296,4.848c5.021,1.889,7.761,1.25,8.774,0.844
					c0.272-0.109,0.428-0.391,0.372-0.679l-1.29-6.609c-0.067-0.342,0.169-0.669,0.514-0.715L289.669,510.825z"/>
				
					<linearGradient id="SVGID_00000010307520305512588350000009315716282253078682_" gradientUnits="userSpaceOnUse" x1="2206.178" y1="1030.3317" x2="2169.7087" y2="1058.2362" gradientTransform="matrix(0.9914 -0.1306 0.1306 0.9914 -2019.7687 -237.7983)">
					<stop  offset="0" style="stop-color:#F9B776"/>
					<stop  offset="1" style="stop-color:#F47960"/>
				</linearGradient>
				<path style="fill:url(#SVGID_00000010307520305512588350000009315716282253078682_);" d="M290.126,512.183
					c0,0-3.635-8.963-7.454-5.812c-3.818,3.15,3.529,10.114,6.92,10.021L290.126,512.183z"/>
			</g>
		</g>
		<g>
			<g>
				
					<linearGradient id="SVGID_00000111176705660168554470000005289176776620504482_" gradientUnits="userSpaceOnUse" x1="-352.9267" y1="-5127.5801" x2="-443.9411" y2="-5039.5869" gradientTransform="matrix(-1.388 -0.0686 -0.0685 1.3855 -7786.7813 -95.8076)">
					<stop  offset="0" style="stop-color:#9CFFFB"/>
					<stop  offset="1" style="stop-color:#9BFFFA"/>
				</linearGradient>
				<path style="fill:url(#SVGID_00000111176705660168554470000005289176776620504482_);" d="M334.845,619.641
					c0.052,0.003,0.104,0.004,0.156,0.004l67.947-0.068c1.68-0.001,3.04-1.362,3.038-3.038c-0.002-1.677-1.37-3.063-3.045-3.033
					l-67.947,0.068c-1.68,0.001-3.04,1.362-3.038,3.038C331.958,618.236,333.238,619.561,334.845,619.641z"/>
			</g>
			<g>
				
					<linearGradient id="SVGID_00000124144155315399649510000011012875661183266189_" gradientUnits="userSpaceOnUse" x1="-2887.0413" y1="-4796.0313" x2="-2978.0518" y2="-4708.0415" gradientTransform="matrix(0.6475 -1.2297 -1.2274 -0.6463 6547.7163 -9410.8408)">
					<stop  offset="0" style="stop-color:#9CFFFB"/>
					<stop  offset="1" style="stop-color:#9BFFFA"/>
				</linearGradient>
				<path style="fill:url(#SVGID_00000124144155315399649510000011012875661183266189_);" d="M429.262,553.099
					c-0.024,0.046-0.047,0.093-0.069,0.14l-28.589,61.639c-0.707,1.524-0.047,3.33,1.474,4.036c1.522,0.706,3.355,0.049,4.034-1.482
					l28.589-61.639c0.707-1.524,0.047-3.33-1.474-4.036C431.753,551.074,430.011,551.676,429.262,553.099z"/>
			</g>
		</g>
		<g>
			
				<linearGradient id="SVGID_00000091728533571749211200000002479501212838192812_" gradientUnits="userSpaceOnUse" x1="352.8429" y1="772.3955" x2="359.6401" y2="932.7007">
				<stop  offset="0" style="stop-color:#53D8FF"/>
				<stop  offset="1" style="stop-color:#3840F7"/>
			</linearGradient>
			<path style="fill:url(#SVGID_00000091728533571749211200000002479501212838192812_);" d="M365.1,623.051
				c-0.297,1.229-28.648,107.56-35.836,134.517c-0.828,3.107,1.485,6.157,4.665,6.157l0,0c2.217,0,4.149-1.527,4.686-3.704
				l31.472-127.601L365.1,623.051z"/>
			
				<linearGradient id="SVGID_00000141417614259357503250000006316539765429036980_" gradientUnits="userSpaceOnUse" x1="399.3074" y1="770.4249" x2="406.1046" y2="930.7292">
				<stop  offset="0" style="stop-color:#53D8FF"/>
				<stop  offset="1" style="stop-color:#3840F7"/>
			</linearGradient>
			<path style="fill:url(#SVGID_00000141417614259357503250000006316539765429036980_);" d="M380.625,623.051
				c0.297,1.229,28.648,107.56,35.836,134.517c0.828,3.107-1.485,6.157-4.665,6.157l0,0c-2.217,0-4.15-1.527-4.686-3.704
				l-31.472-127.601L380.625,623.051z"/>
			
				<linearGradient id="SVGID_00000072261177429515636130000005263517292489740456_" gradientUnits="userSpaceOnUse" x1="379.1076" y1="771.2816" x2="385.9049" y2="931.5861">
				<stop  offset="0" style="stop-color:#53D8FF"/>
				<stop  offset="1" style="stop-color:#3840F7"/>
			</linearGradient>
			<path style="fill:url(#SVGID_00000072261177429515636130000005263517292489740456_);" d="M381.806,619.574h-17.657v14.18
				c0,2.038,1.632,3.69,3.646,3.69h2.422v31.851c0,1.543,1.236,2.794,2.76,2.794l0,0c1.525,0,2.76-1.251,2.76-2.794v-31.851h1.229
				c2.673,0,4.839-2.193,4.839-4.898V619.574z"/>
			
				<linearGradient id="SVGID_00000025439691284535115020000009269418412458565522_" gradientUnits="userSpaceOnUse" x1="371.3091" y1="615.537" x2="358.7808" y2="708.1703">
				<stop  offset="0" style="stop-color:#2B3582"/>
				<stop  offset="1" style="stop-color:#150E42"/>
			</linearGradient>
			<path style="fill:url(#SVGID_00000025439691284535115020000009269418412458565522_);" d="M320.733,616.168h98.593
				c1.378,0,2.581,0.944,2.926,2.294l1.376,5.398c0.495,1.943-0.961,3.834-2.943,3.822l-101.167-0.589
				c-1.961-0.011-3.392-1.881-2.913-3.805l1.197-4.809C318.141,617.12,319.348,616.168,320.733,616.168z"/>
		</g>
	</g>
	<g>
		<g>
			
				<linearGradient id="SVGID_00000020373107131150998780000003813974117991687048_" gradientUnits="userSpaceOnUse" x1="1045.2815" y1="-208.9751" x2="1016.4546" y2="-149.5564" gradientTransform="matrix(0.987 0.1608 -0.1608 0.987 -123.2953 540.1338)">
				<stop  offset="0" style="stop-color:#2B3582"/>
				<stop  offset="1" style="stop-color:#150E42"/>
			</linearGradient>
			<path style="fill:url(#SVGID_00000020373107131150998780000003813974117991687048_);" d="M886.627,551.958
				c-0.147,0.279-9.418,7.1-9.418,7.1s2.047,14.646,10.36,20.429c9.14,6.358,22.048-5.237,22.048-5.237s10.273,2.442,15.736-18.942
				c1.253-4.906-5.981-5.321-14.713-4.417C899.38,552.057,886.627,551.958,886.627,551.958z"/>
			
				<linearGradient id="SVGID_00000124150167520882230560000002831881834653280909_" gradientUnits="userSpaceOnUse" x1="900.717" y1="602.5903" x2="900.717" y2="730.5852">
				<stop  offset="0" style="stop-color:#CB236D"/>
				<stop  offset="1" style="stop-color:#4C246D"/>
			</linearGradient>
			<path style="fill:url(#SVGID_00000124150167520882230560000002831881834653280909_);" d="M869.299,601.926
				c3.627-2.494,7.636-4.373,11.887-5.53c1.597-0.435,10.218,2.071,15.547,1.949c7.316-0.168,14.762-3.497,20.792-1.995
				c5.99,1.493,10.892,3.442,13.723,5.456c8.473,6.026,13.448,17.263,16.479,28.394c-5.74,5.893-12.964,8.512-12.964,8.512
				l-1.335,54.103l-31.992,16.368l-36.515-18.333l1.308-52.871c0,0-11.595-5.4-12.446-7.364
				C852.933,628.649,859.069,608.959,869.299,601.926z"/>
			
				<linearGradient id="SVGID_00000175310175723265352890000015412678949512383384_" gradientUnits="userSpaceOnUse" x1="846.3849" y1="618.7947" x2="907.1786" y2="765.647">
				<stop  offset="0" style="stop-color:#F9B776"/>
				<stop  offset="1" style="stop-color:#F47960"/>
			</linearGradient>
			<path style="fill:url(#SVGID_00000175310175723265352890000015412678949512383384_);" d="M854.324,630.377
				c0,0-15.538,43.079,19.895,60.784c7.357-0.977,4.528-13.196,4.528-13.196s-15.396-3.407-10.772-39.343
				C863.717,635.12,854.324,630.377,854.324,630.377z"/>
			
				<linearGradient id="SVGID_00000079469080942752404760000015885314923868871610_" gradientUnits="userSpaceOnUse" x1="-7631.2324" y1="618.4791" x2="-7570.4385" y2="765.3314" gradientTransform="matrix(-1 0 0 1 -6677.0742 0)">
				<stop  offset="0" style="stop-color:#F9B776"/>
				<stop  offset="1" style="stop-color:#F47960"/>
			</linearGradient>
			<path style="fill:url(#SVGID_00000079469080942752404760000015885314923868871610_);" d="M946.981,630.377
				c0,0,10.692,44.968-19.895,60.784c-7.357-0.977-4.528-13.196-4.528-13.196s12.408-6.111,10.772-39.343
				C937.588,635.12,946.981,630.377,946.981,630.377z"/>
			
				<linearGradient id="SVGID_00000007405289085277792400000011062199717161983132_" gradientUnits="userSpaceOnUse" x1="900.381" y1="637.9793" x2="897.2407" y2="765.1631">
				<stop  offset="0" style="stop-color:#2B3582"/>
				<stop  offset="1" style="stop-color:#150E42"/>
			</linearGradient>
			<path style="fill:url(#SVGID_00000007405289085277792400000011062199717161983132_);" d="M926.321,694.187h-53.486
				c-4.584,0-8.334-3.75-8.334-8.334v-30.709c0-4.584,3.751-8.334,8.334-8.334h53.486c4.584,0,8.334,3.751,8.334,8.334v30.709
				C934.655,690.436,930.905,694.187,926.321,694.187z"/>
			<g>
				
					<linearGradient id="SVGID_00000060717425604250970070000010476436136261899965_" gradientUnits="userSpaceOnUse" x1="933.8376" y1="687.6617" x2="967.0592" y2="687.6617" gradientTransform="matrix(1 0.0077 -0.0077 1 8.3312 19.9322)">
					<stop  offset="0" style="stop-color:#2C759E"/>
					<stop  offset="1" style="stop-color:#051042"/>
				</linearGradient>
				<path style="fill:url(#SVGID_00000060717425604250970070000010476436136261899965_);" d="M965.426,708.232
					c-8.029-1.843-26.585-0.852-26.585-0.852l-0.755,2.044l-1.25,10.159c0,0,17.671,3.185,26.382,3.177
					c0.889-0.001,1.702-0.134,2.444-0.365c0.265-0.238,0.525-0.485,0.771-0.753C970.129,717.606,969.062,711.677,965.426,708.232z"
					/>
				
					<linearGradient id="SVGID_00000052066791659298145210000002297397602237577385_" gradientUnits="userSpaceOnUse" x1="981.098" y1="681.4523" x2="951.9286" y2="681.1023" gradientTransform="matrix(1 0.0077 -0.0077 1 -1.6788 26.4772)">
					<stop  offset="0" style="stop-color:#53EAC9"/>
					<stop  offset="0.9964" style="stop-color:#45AED8"/>
				</linearGradient>
				<path style="fill:url(#SVGID_00000052066791659298145210000002297397602237577385_);" d="M966.222,708.434
					c-0.252-0.071-0.518-0.138-0.796-0.201c3.636,3.445,4.703,9.374,1.008,13.41c-0.246,0.268-0.505,0.515-0.771,0.753
					C972.197,720.362,972.971,710.333,966.222,708.434z"/>
				
					<linearGradient id="SVGID_00000152249215069849814480000003213247607705852331_" gradientUnits="userSpaceOnUse" x1="958.8013" y1="654.8845" x2="923.7336" y2="749.8693">
					<stop  offset="0" style="stop-color:#F9B776"/>
					<stop  offset="1" style="stop-color:#F47960"/>
				</linearGradient>
				<path style="fill:url(#SVGID_00000152249215069849814480000003213247607705852331_);" d="M933.51,706.808l3.142,0.134
					c1.688,0.072,3.279,0.895,4.414,2.282c1.135,1.388,1.719,3.224,1.62,5.094c-0.079,1.491-0.691,2.886-1.7,3.876
					c-1.009,0.989-2.332,1.492-3.677,1.396l-4.808-0.342L933.51,706.808z"/>
				<g>
					
						<linearGradient id="SVGID_00000067231374776078133020000006057056483999696780_" gradientUnits="userSpaceOnUse" x1="981.1693" y1="680.2045" x2="951.9938" y2="679.8544" gradientTransform="matrix(1 0.0077 -0.0077 1 -1.6788 26.4772)">
						<stop  offset="0" style="stop-color:#53EAC9"/>
						<stop  offset="0.9964" style="stop-color:#45AED8"/>
					</linearGradient>
					<path style="fill:url(#SVGID_00000067231374776078133020000006057056483999696780_);" d="M950.339,717.6
						c-0.203-0.002-0.388-0.151-0.445-0.378c-0.804-3.212-3.922-6.443-3.954-6.475c-0.189-0.194-0.2-0.52-0.025-0.73
						c0.175-0.209,0.469-0.222,0.658-0.028c0.136,0.14,3.344,3.46,4.219,6.957c0.069,0.275-0.076,0.559-0.324,0.636
						C950.424,717.594,950.381,717.6,950.339,717.6z"/>
					
						<linearGradient id="SVGID_00000096747255124210787940000010110486824793684872_" gradientUnits="userSpaceOnUse" x1="981.0482" y1="680.0062" x2="952.0118" y2="679.6577" gradientTransform="matrix(1 0.0077 -0.0077 1 -1.6788 26.4772)">
						<stop  offset="0" style="stop-color:#53EAC9"/>
						<stop  offset="0.9964" style="stop-color:#45AED8"/>
					</linearGradient>
					<path style="fill:url(#SVGID_00000096747255124210787940000010110486824793684872_);" d="M946.092,717.338
						c-0.045,0-0.09-0.008-0.135-0.024c-0.246-0.085-0.382-0.375-0.306-0.647c1.051-3.737,5.01-6.723,5.178-6.849
						c0.213-0.159,0.503-0.096,0.646,0.14c0.143,0.237,0.087,0.557-0.126,0.717c-0.039,0.029-3.856,2.912-4.809,6.3
						C946.477,717.197,946.292,717.339,946.092,717.338z"/>
					
						<linearGradient id="SVGID_00000062174037581407157990000010340348924524027790_" gradientUnits="userSpaceOnUse" x1="1017.9495" y1="474.6969" x2="988.5814" y2="474.3445" gradientTransform="matrix(0.9984 0.0564 -0.0564 0.9984 -15.2515 183.9575)">
						<stop  offset="0" style="stop-color:#53EAC9"/>
						<stop  offset="0.9964" style="stop-color:#45AED8"/>
					</linearGradient>
					<path style="fill:url(#SVGID_00000062174037581407157990000010340348924524027790_);" d="M958.864,718.101
						c-0.211-0.002-0.402-0.164-0.45-0.403c-0.661-3.252-3.634-6.647-3.664-6.681c-0.18-0.204-0.177-0.531,0.007-0.73
						c0.184-0.2,0.478-0.197,0.658,0.007c0.13,0.147,3.188,3.636,3.908,7.177c0.057,0.278-0.101,0.555-0.352,0.617
						C958.935,718.097,958.899,718.102,958.864,718.101z"/>
					
						<linearGradient id="SVGID_00000139999050232406674410000001404706179254678689_" gradientUnits="userSpaceOnUse" x1="1017.6718" y1="474.4985" x2="988.779" y2="474.1518" gradientTransform="matrix(0.9984 0.0564 -0.0564 0.9984 -15.2515 183.9575)">
						<stop  offset="0" style="stop-color:#53EAC9"/>
						<stop  offset="0.9964" style="stop-color:#45AED8"/>
					</linearGradient>
					<path style="fill:url(#SVGID_00000139999050232406674410000001404706179254678689_);" d="M954.634,717.61
						c-0.052,0-0.105-0.011-0.157-0.032c-0.241-0.098-0.365-0.395-0.277-0.663c1.214-3.675,5.299-6.445,5.473-6.561
						c0.22-0.147,0.506-0.07,0.639,0.175c0.133,0.244,0.063,0.561-0.158,0.709c-0.04,0.027-3.979,2.7-5.08,6.032
						C955.005,717.482,954.825,717.612,954.634,717.61z"/>
				</g>
			</g>
			<g>
				
					<linearGradient id="SVGID_00000070831919349313271510000017002909279420038043_" gradientUnits="userSpaceOnUse" x1="-6497.437" y1="643.7711" x2="-6464.2012" y2="643.7711" gradientTransform="matrix(-0.9998 -0.02 -0.02 0.9998 -5627.0151 -58.9706)">
					<stop  offset="0" style="stop-color:#2C759E"/>
					<stop  offset="1" style="stop-color:#051042"/>
				</linearGradient>
				<path style="fill:url(#SVGID_00000070831919349313271510000017002909279420038043_);" d="M827.855,707.255
					c8.072-1.596,26.596-0.036,26.596-0.036l0.703,2.066l0.996,10.194c0,0-17.744,2.642-26.451,2.367
					c-0.888-0.028-1.698-0.186-2.434-0.44c-0.26-0.246-0.513-0.501-0.751-0.777C822.919,716.481,824.134,710.587,827.855,707.255z"
					/>
				
					<linearGradient id="SVGID_00000064339385904089358700000016116137686297512874_" gradientUnits="userSpaceOnUse" x1="-8185.9609" y1="626.8982" x2="-8215.0352" y2="626.5493" gradientTransform="matrix(-0.9998 -0.02 -0.02 0.9998 -7352.8452 -76.2306)">
					<stop  offset="0" style="stop-color:#53EAC9"/>
					<stop  offset="0.9964" style="stop-color:#45AED8"/>
				</linearGradient>
				<path style="fill:url(#SVGID_00000064339385904089358700000016116137686297512874_);" d="M827.054,707.432
					c0.253-0.063,0.521-0.122,0.8-0.177c-3.72,3.332-4.935,9.226-1.342,13.374c0.239,0.276,0.492,0.531,0.751,0.777
					C820.783,719.172,820.26,709.123,827.054,707.432z"/>
				
					<linearGradient id="SVGID_00000071523677854235059980000003492684943640667839_" gradientUnits="userSpaceOnUse" x1="888.5424" y1="626.2607" x2="853.4562" y2="721.2955">
					<stop  offset="0" style="stop-color:#F9B776"/>
					<stop  offset="1" style="stop-color:#F47960"/>
				</linearGradient>
				<path style="fill:url(#SVGID_00000071523677854235059980000003492684943640667839_);" d="M859.794,706.811l-3.144,0.038
					c-1.689,0.02-3.3,0.794-4.469,2.146c-1.169,1.352-1.799,3.17-1.746,5.043c0.042,1.493,0.619,2.906,1.603,3.926
					c0.984,1.02,2.294,1.563,3.64,1.509l4.814-0.195L859.794,706.811z"/>
				<g>
					
						<linearGradient id="SVGID_00000054984564896004817770000015720777736473608086_" gradientUnits="userSpaceOnUse" x1="-8185.9697" y1="625.7009" x2="-8215.041" y2="625.3521" gradientTransform="matrix(-0.9998 -0.02 -0.02 0.9998 -7352.8452 -76.2306)">
						<stop  offset="0" style="stop-color:#53EAC9"/>
						<stop  offset="0.9964" style="stop-color:#45AED8"/>
					</linearGradient>
					<path style="fill:url(#SVGID_00000054984564896004817770000015720777736473608086_);" d="M842.703,717.082
						c0.202,0.005,0.392-0.139,0.454-0.365c0.883-3.186,4.081-6.32,4.113-6.351c0.194-0.188,0.213-0.514,0.044-0.729
						c-0.169-0.215-0.463-0.236-0.657-0.049c-0.14,0.135-3.429,3.356-4.39,6.825c-0.076,0.273,0.062,0.561,0.308,0.645
						C842.617,717.073,842.66,717.081,842.703,717.082z"/>
					
						<linearGradient id="SVGID_00000152249672801895230880000006253483834459218567_" gradientUnits="userSpaceOnUse" x1="-8185.9165" y1="625.5038" x2="-8215.0449" y2="625.1543" gradientTransform="matrix(-0.9998 -0.02 -0.02 0.9998 -7352.8452 -76.2306)">
						<stop  offset="0" style="stop-color:#53EAC9"/>
						<stop  offset="0.9964" style="stop-color:#45AED8"/>
					</linearGradient>
					<path style="fill:url(#SVGID_00000152249672801895230880000006253483834459218567_);" d="M846.954,716.95
						c0.045,0.001,0.091-0.005,0.136-0.02c0.248-0.078,0.392-0.363,0.322-0.637c-0.958-3.767-4.84-6.875-5.005-7.005
						c-0.209-0.165-0.5-0.111-0.649,0.121c-0.149,0.232-0.101,0.554,0.108,0.72c0.038,0.03,3.781,3.029,4.65,6.445
						C846.573,716.798,846.755,716.946,846.954,716.95z"/>
					
						<linearGradient id="SVGID_00000058559804195211022380000008720144538498643599_" gradientUnits="userSpaceOnUse" x1="-8140.6274" y1="866.368" x2="-8169.8853" y2="866.017" gradientTransform="matrix(-0.9996 0.0288 0.0288 0.9996 -7343.4497 82.534)">
						<stop  offset="0" style="stop-color:#53EAC9"/>
						<stop  offset="0.9964" style="stop-color:#45AED8"/>
					</linearGradient>
					<path style="fill:url(#SVGID_00000058559804195211022380000008720144538498643599_);" d="M834.168,717.321
						c0.211,0.005,0.406-0.152,0.46-0.389c0.742-3.23,3.799-6.533,3.83-6.566c0.185-0.198,0.19-0.525,0.011-0.73
						c-0.178-0.206-0.473-0.211-0.658-0.013c-0.134,0.143-3.277,3.537-4.085,7.054c-0.064,0.276,0.087,0.557,0.336,0.628
						C834.097,717.316,834.133,717.321,834.168,717.321z"/>
					
						<linearGradient id="SVGID_00000106133408141168087940000014401949905153856424_" gradientUnits="userSpaceOnUse" x1="-8140.7935" y1="866.17" x2="-8169.7651" y2="865.8224" gradientTransform="matrix(-0.9996 0.0288 0.0288 0.9996 -7343.4497 82.534)">
						<stop  offset="0" style="stop-color:#53EAC9"/>
						<stop  offset="0.9964" style="stop-color:#45AED8"/>
					</linearGradient>
					<path style="fill:url(#SVGID_00000106133408141168087940000014401949905153856424_);" d="M838.409,716.96
						c0.052,0.001,0.105-0.008,0.157-0.027c0.244-0.091,0.375-0.383,0.293-0.654c-1.122-3.711-5.136-6.605-5.307-6.726
						c-0.216-0.154-0.504-0.085-0.643,0.155c-0.139,0.24-0.076,0.559,0.14,0.714c0.039,0.028,3.91,2.821,4.927,6.186
						C838.041,716.82,838.217,716.956,838.409,716.96z"/>
				</g>
			</g>
			
				<linearGradient id="SVGID_00000062895438905565688770000000369408690847841191_" gradientUnits="userSpaceOnUse" x1="973.6649" y1="653.0511" x2="882.5017" y2="721.5325">
				<stop  offset="0" style="stop-color:#53D8FF"/>
				<stop  offset="1" style="stop-color:#3840F7"/>
			</linearGradient>
			<path style="fill:url(#SVGID_00000062895438905565688770000000369408690847841191_);" d="M967.671,676.384
				c-3.641-8.38-12.546-9.74-20.125-5.822c-0.132,0.173-48.133,24.774-90.464,35.556c1.212,3.885,1.835,8.019,1.971,12.082
				c0.025,0.905,0.009,1.798-0.044,2.679c32.462-1.667,67.693-12.493,97.967-22.007
				C966.363,695.845,971.707,685.671,967.671,676.384z"/>
			
				<linearGradient id="SVGID_00000011017052403348117520000010416156367649821831_" gradientUnits="userSpaceOnUse" x1="891.2255" y1="714.4721" x2="867.3328" y2="653.546">
				<stop  offset="0" style="stop-color:#53D8FF"/>
				<stop  offset="1" style="stop-color:#3840F7"/>
			</linearGradient>
			<path style="fill:url(#SVGID_00000011017052403348117520000010416156367649821831_);" d="M933.74,718.837
				c-0.127-4.684,0.784-9.044,2.732-13.08c0.056-0.185,0.122-0.362,0.181-0.545c-2.417-0.749-5.54-1.763-9.642-3.155
				c-30.059-10.287-52.991-20.674-74.877-32.631c-8.502-4.645-18.17-1.532-20.891,8.528c-2.43,8.981,2.906,16.649,11.004,19.343
				c24.227,8.062,11.613,5.822,19.525,8.369c21.249,6.571,47.691,12.556,72.02,14.19
				C933.773,719.516,933.752,719.176,933.74,718.837z"/>
			
				<linearGradient id="SVGID_00000001632617833409091370000013159037182303332795_" gradientUnits="userSpaceOnUse" x1="899.7531" y1="630.9199" x2="898.9442" y2="560.5407">
				<stop  offset="0" style="stop-color:#F9B776"/>
				<stop  offset="1" style="stop-color:#F47960"/>
			</linearGradient>
			<path style="fill:url(#SVGID_00000001632617833409091370000013159037182303332795_);" d="M881.186,596.395
				c0,0,3.233,14.009,18.928,13.718c15.986-0.291,17.411-13.764,17.411-13.764l-10.443-2.235l-0.873-11.636l-15.708,1.164
				l-0.291,11.054L881.186,596.395z"/>
			
				<linearGradient id="SVGID_00000140008952184556399960000009329192694347648444_" gradientUnits="userSpaceOnUse" x1="1015.7242" y1="-113.0795" x2="1018.2441" y2="-174.3216" gradientTransform="matrix(0.987 0.1608 -0.1608 0.987 -123.2953 540.1338)">
				<stop  offset="0" style="stop-color:#F9B776"/>
				<stop  offset="1" style="stop-color:#F47960"/>
			</linearGradient>
			<path style="fill:url(#SVGID_00000140008952184556399960000009329192694347648444_);" d="M892.708,549.512
				c0,0-18.001,34.87,3.352,43.33c15.062,5.967,24.506-23.156,21.689-31.044c-4.355-12.196-7.223-10.749-7.223-10.749
				L892.708,549.512z"/>
			
				<linearGradient id="SVGID_00000131331151926542160440000016618971133598180006_" gradientUnits="userSpaceOnUse" x1="1045.4927" y1="-217.3377" x2="1013.0562" y2="-150.4788" gradientTransform="matrix(0.987 0.1608 -0.1608 0.987 -123.2953 540.1338)">
				<stop  offset="0" style="stop-color:#2B3582"/>
				<stop  offset="1" style="stop-color:#150E42"/>
			</linearGradient>
			<path style="fill:url(#SVGID_00000131331151926542160440000016618971133598180006_);" d="M922.081,546.339
				c8.893,2.444,1.293,21.731-12.096,17.17c-13.389-4.561-18.65-4.494-20.737-0.818c-2.086,3.677-2.535,16.733-7.062,10.279
				c-4.963-7.075-7.731-21.276-1.645-25.854c5.438-4.091,6.707-10.435,13.23-10.215c8.658,0.292,15.354-3.546,19.262-0.778
				C917.522,539.303,915.537,544.54,922.081,546.339z"/>
			
				<linearGradient id="SVGID_00000078023079773470471050000005191188828821805981_" gradientUnits="userSpaceOnUse" x1="594.2234" y1="1084.452" x2="598.1721" y2="988.4804" gradientTransform="matrix(0.9911 -0.1329 0.1329 0.9911 156.1746 -396.0011)">
				<stop  offset="0" style="stop-color:#F9B776"/>
				<stop  offset="1" style="stop-color:#F47960"/>
			</linearGradient>
			<path style="fill:url(#SVGID_00000078023079773470471050000005191188828821805981_);" d="M888.424,565.69
				c0,0-3.839-4.131-4.454,0.848c-0.615,4.979,1.358,11.391,3.67,7.876C889.952,570.899,888.424,565.69,888.424,565.69z"/>
		</g>
		
			<linearGradient id="SVGID_00000156572735286964126730000014511216474208428465_" gradientUnits="userSpaceOnUse" x1="900.0298" y1="627.981" x2="897.9869" y2="725.7495">
			<stop  offset="0" style="stop-color:#53D8FF"/>
			<stop  offset="1" style="stop-color:#3840F7"/>
		</linearGradient>
		<path style="fill:url(#SVGID_00000156572735286964126730000014511216474208428465_);" d="M903.716,659.639
			c0.372,2.514-0.975,4.795-3.488,5.167c-2.514,0.372-4.853-1.364-5.225-3.878c-0.372-2.514,0.779-5.01,3.292-5.382
			C900.809,655.174,903.344,657.125,903.716,659.639z"/>
	</g>
	<g>
		<path style="fill:#FFFFFF;" d="M255.543,444.108l-2.902,0.898c-0.292,0.09-0.602-0.073-0.693-0.365
			c-0.09-0.292,0.073-0.602,0.365-0.692c0.005-0.002,0.01-0.003,0.015-0.004l0.04-0.011l2.857-0.784l0.035-0.01
			c0.269-0.074,0.547,0.085,0.62,0.353C255.953,443.756,255.802,444.028,255.543,444.108z"/>
		<path style="fill:#FFFFFF;" d="M245.668,446.297l-3.037,0.213c-0.394,0.028-0.735-0.269-0.763-0.663
			c-0.028-0.394,0.269-0.735,0.663-0.763c0.007,0,0.013-0.001,0.02-0.001l0.05-0.002l2.951-0.112l0.045-0.002
			c0.367-0.014,0.676,0.273,0.69,0.64C246.3,445.968,246.024,446.272,245.668,446.297z"/>
		<path style="fill:#FFFFFF;" d="M235.53,446.25l-3.02-0.418c-0.479-0.066-0.813-0.508-0.747-0.987
			c0.066-0.479,0.508-0.813,0.987-0.747c0.008,0.001,0.016,0.003,0.024,0.004l0.053,0.009l2.907,0.499l0.048,0.008
			c0.45,0.077,0.752,0.504,0.675,0.954C236.382,446.011,235.97,446.31,235.53,446.25z"/>
		<path style="fill:#FFFFFF;" d="M225.592,444.176l-2.892-0.973c-0.524-0.176-0.806-0.744-0.629-1.267
			c0.176-0.524,0.744-0.806,1.267-0.629c0.006,0.002,0.012,0.004,0.018,0.006l0.052,0.019l2.772,1.007l0.047,0.017
			c0.501,0.182,0.759,0.735,0.577,1.235C226.626,444.084,226.086,444.342,225.592,444.176z"/>
		<path style="fill:#FFFFFF;" d="M216.167,440.38l-2.696-1.432c-0.547-0.29-0.755-0.969-0.464-1.516
			c0.29-0.547,0.969-0.754,1.516-0.464c0.006,0.003,0.013,0.007,0.019,0.01l0.05,0.028l2.571,1.445l0.045,0.025
			c0.522,0.293,0.707,0.954,0.414,1.476C217.332,440.468,216.686,440.655,216.167,440.38z"/>
		<path style="fill:#FFFFFF;" d="M207.458,435.13l-2.448-1.83c-0.549-0.41-0.661-1.188-0.251-1.737
			c0.41-0.549,1.188-0.661,1.737-0.251c0.006,0.005,0.013,0.01,0.019,0.014l0.049,0.038l2.316,1.819l0.044,0.034
			c0.523,0.411,0.614,1.168,0.203,1.691C208.721,435.425,207.98,435.52,207.458,435.13z"/>
		<path style="fill:#FFFFFF;" d="M199.635,428.605l-2.148-2.19c-0.526-0.536-0.518-1.398,0.018-1.924
			c0.537-0.526,1.398-0.518,1.925,0.018c0.006,0.006,0.012,0.012,0.018,0.019l0.048,0.051l2.009,2.149l0.043,0.046
			c0.499,0.534,0.471,1.372-0.063,1.872C200.959,429.137,200.137,429.116,199.635,428.605z"/>
		<path style="fill:#FFFFFF;" d="M192.882,420.966l-1.816-2.456c-0.486-0.658-0.348-1.585,0.31-2.072
			c0.658-0.486,1.585-0.347,2.072,0.31c0.006,0.008,0.011,0.015,0.017,0.023l0.035,0.05l1.694,2.41l0.032,0.045
			c0.459,0.653,0.302,1.554-0.351,2.012C194.231,421.741,193.347,421.594,192.882,420.966z"/>
		<path style="fill:#FFFFFF;" d="M187.181,412.537l-1.515-2.649c-0.439-0.768-0.173-1.746,0.595-2.185
			c0.768-0.439,1.746-0.173,2.185,0.595c0.005,0.009,0.01,0.018,0.015,0.027l0.028,0.052l1.402,2.593l0.025,0.046
			c0.411,0.76,0.128,1.709-0.632,2.12C188.535,413.541,187.602,413.271,187.181,412.537z"/>
		<path style="fill:#FFFFFF;" d="M182.46,403.535l-1.239-2.784c-0.387-0.868,0.004-1.886,0.873-2.273
			c0.868-0.386,1.886,0.004,2.273,0.873c0.005,0.01,0.009,0.02,0.013,0.03l0.021,0.051l1.135,2.726l0.018,0.044
			c0.358,0.859-0.048,1.845-0.907,2.203C183.801,404.758,182.831,404.367,182.46,403.535z"/>
		<path style="fill:#FFFFFF;" d="M178.637,394.134l-0.984-2.878c-0.323-0.946,0.181-1.974,1.126-2.298
			c0.946-0.323,1.974,0.181,2.298,1.126c0.002,0.005,0.004,0.011,0.005,0.016l0.016,0.048l0.916,2.813l0.013,0.04
			c0.306,0.938-0.207,1.947-1.146,2.252C179.952,395.557,178.953,395.055,178.637,394.134z"/>
		<path style="fill:#FFFFFF;" d="M175.604,384.471l-0.782-2.938c-0.268-1.005,0.33-2.037,1.335-2.304
			c1.005-0.268,2.037,0.33,2.304,1.336c0.001,0.006,0.003,0.011,0.004,0.017l0.011,0.043l0.721,2.881l0.009,0.035
			c0.25,0.997-0.356,2.007-1.353,2.257C176.867,386.044,175.865,385.451,175.604,384.471z"/>
		<path style="fill:#FFFFFF;" d="M173.204,374.646l-0.614-2.966c-0.219-1.058,0.461-2.094,1.52-2.313
			c1.058-0.219,2.094,0.461,2.313,1.52c0.001,0.006,0.002,0.012,0.004,0.018l0.007,0.038l0.559,2.918l0.006,0.029
			c0.201,1.049-0.487,2.063-1.536,2.264C174.423,376.353,173.419,375.678,173.204,374.646z"/>
		<path style="fill:#FFFFFF;" d="M171.319,364.732l-0.481-2.987c-0.178-1.107,0.575-2.15,1.682-2.328
			c1.107-0.178,2.149,0.575,2.328,1.682c0.001,0.006,0.002,0.013,0.003,0.019l0.005,0.036l0.43,2.943l0.004,0.025
			c0.16,1.098-0.6,2.117-1.697,2.277C172.505,366.559,171.494,365.813,171.319,364.732z"/>
		<path style="fill:#FFFFFF;" d="M169.862,354.753l-0.356-3.005c-0.137-1.154,0.688-2.201,1.842-2.337
			c1.154-0.137,2.201,0.688,2.337,1.842c0.001,0.007,0.001,0.013,0.002,0.02l0.004,0.037l0.306,2.958l0.003,0.026
			c0.118,1.144-0.713,2.167-1.857,2.285C171.01,356.696,169.996,355.88,169.862,354.753z"/>
		<path style="fill:#FFFFFF;" d="M168.822,344.718l-0.23-3.018c-0.091-1.2,0.807-2.246,2.006-2.338
			c1.199-0.091,2.246,0.807,2.338,2.006c0.001,0.007,0.001,0.013,0.001,0.02l0.002,0.039l0.182,2.967l0.002,0.027
			c0.073,1.188-0.831,2.211-2.019,2.284C169.927,346.779,168.912,345.89,168.822,344.718z"/>
		<path style="fill:#FFFFFF;" d="M168.202,334.646l-0.104-3.026c-0.043-1.243,0.93-2.285,2.173-2.328
			c1.243-0.043,2.285,0.931,2.328,2.173c0,0.007,0,0.014,0.001,0.021l0.001,0.04l0.058,2.971l0.001,0.028
			c0.024,1.231-0.954,2.249-2.186,2.273C169.254,336.823,168.244,335.861,168.202,334.646z"/>
		<path style="fill:#FFFFFF;" d="M168.004,324.553l0.024-3.029c0.01-1.284,1.059-2.318,2.344-2.307
			c1.284,0.01,2.318,1.059,2.307,2.344c0,0.007,0,0.015,0,0.022l-0.001,0.042l-0.067,2.97l-0.001,0.029
			c-0.029,1.272-1.083,2.28-2.355,2.251C168.995,326.845,167.995,325.809,168.004,324.553z"/>
		<path style="fill:#FFFFFF;" d="M168.233,314.456l0.153-3.027c0.067-1.324,1.194-2.342,2.518-2.275
			c1.323,0.067,2.342,1.194,2.275,2.518c0,0.008-0.001,0.015-0.001,0.022l-0.003,0.043l-0.194,2.963l-0.002,0.031
			c-0.086,1.31-1.217,2.302-2.527,2.217C169.155,316.863,168.169,315.75,168.233,314.456z"/>
		<path style="fill:#FFFFFF;" d="M168.898,304.373l0.286-3.019c0.129-1.36,1.335-2.358,2.695-2.229
			c1.36,0.129,2.358,1.335,2.229,2.695c-0.001,0.008-0.002,0.015-0.002,0.023l-0.005,0.046l-0.323,2.95l-0.004,0.033
			c-0.147,1.345-1.357,2.317-2.703,2.169C169.739,306.894,168.773,305.703,168.898,304.373z"/>
		<path style="fill:#FFFFFF;" d="M170.007,294.323l0.421-3.005c0.195-1.393,1.483-2.364,2.876-2.169
			c1.393,0.195,2.364,1.483,2.169,2.876c-0.001,0.008-0.002,0.016-0.003,0.023l-0.007,0.048l-0.455,2.93l-0.005,0.035
			c-0.214,1.378-1.504,2.321-2.882,2.107C170.756,296.956,169.817,295.686,170.007,294.323z"/>
		<path style="fill:#FFFFFF;" d="M171.572,284.327l0.56-2.985c0.267-1.422,1.636-2.359,3.059-2.092
			c1.423,0.267,2.359,1.637,2.092,3.059c-0.001,0.008-0.003,0.016-0.005,0.024l-0.01,0.05l-0.589,2.904l-0.007,0.036
			c-0.285,1.406-1.657,2.315-3.063,2.03C172.216,287.069,171.312,285.719,171.572,284.327z"/>
		<path style="fill:#FFFFFF;" d="M173.627,274.413l0.713-2.954c0.345-1.429,1.783-2.307,3.212-1.962
			c1.429,0.345,2.307,1.783,1.962,3.212l-0.005,0.02l-0.01,0.038l-0.717,2.873l-0.01,0.038c-0.354,1.42-1.793,2.283-3.212,1.929
			C174.148,277.252,173.286,275.825,173.627,274.413z"/>
		<path style="fill:#FFFFFF;" d="M176.176,264.606l0.861-2.917c0.422-1.43,1.923-2.247,3.353-1.825
			c1.43,0.422,2.247,1.923,1.825,3.353l-0.006,0.02l-0.012,0.039l-0.859,2.831l-0.012,0.04c-0.431,1.421-1.932,2.223-3.352,1.792
			C176.56,267.51,175.759,266.021,176.176,264.606z"/>
		<path style="fill:#FFFFFF;" d="M179.22,254.935l1.012-2.87c0.503-1.426,2.067-2.174,3.493-1.672
			c1.426,0.503,2.174,2.067,1.672,3.493l-0.007,0.02l-0.015,0.041l-1.005,2.78l-0.015,0.041c-0.512,1.416-2.074,2.149-3.49,1.638
			C179.456,257.896,178.723,256.345,179.22,254.935z"/>
		<path style="fill:#FFFFFF;" d="M182.775,245.43l1.168-2.814c0.588-1.416,2.213-2.088,3.629-1.5c1.416,0.588,2.087,2.212,1.5,3.628
			l-0.008,0.02l-0.018,0.042l-1.153,2.719l-0.018,0.043c-0.596,1.406-2.219,2.062-3.625,1.466
			C182.85,248.441,182.194,246.83,182.775,245.43z"/>
		<path style="fill:#FFFFFF;" d="M186.854,236.128l1.329-2.747c0.677-1.399,2.36-1.985,3.759-1.308
			c1.399,0.677,1.985,2.36,1.308,3.759l-0.009,0.02l-0.022,0.044l-1.306,2.649l-0.022,0.044c-0.685,1.388-2.365,1.959-3.754,1.274
			C186.756,239.181,186.185,237.512,186.854,236.128z"/>
		<path style="fill:#FFFFFF;" d="M191.47,227.067l1.49-2.663c0.769-1.375,2.508-1.866,3.883-1.097
			c1.375,0.769,1.866,2.508,1.097,3.883l-0.011,0.019l-0.026,0.045l-1.459,2.561l-0.026,0.045c-0.777,1.363-2.512,1.839-3.875,1.062
			C191.186,230.15,190.709,228.428,191.47,227.067z"/>
		<path style="fill:#FFFFFF;" d="M196.629,218.296l1.655-2.568c0.865-1.342,2.654-1.729,3.997-0.864
			c1.342,0.865,1.729,2.654,0.864,3.997l-0.012,0.019l-0.03,0.046l-1.614,2.463l-0.03,0.046c-0.872,1.33-2.657,1.702-3.987,0.83
			C196.148,221.397,195.774,219.624,196.629,218.296z"/>
		<path style="fill:#FFFFFF;" d="M202.339,209.862l1.825-2.453c0.963-1.294,2.792-1.562,4.085-0.6
			c1.294,0.962,1.562,2.792,0.6,4.085l-0.005,0.006l-0.035,0.046l-1.762,2.356l-0.035,0.046c-0.965,1.289-2.792,1.552-4.081,0.588
			C201.643,212.972,201.375,211.151,202.339,209.862z"/>
		<path style="fill:#FFFFFF;" d="M208.613,201.828l1.987-2.327c1.052-1.232,2.903-1.378,4.135-0.326
			c1.232,1.052,1.378,2.903,0.326,4.135l-0.005,0.006l-0.039,0.045l-1.915,2.231l-0.039,0.046c-1.054,1.227-2.903,1.368-4.13,0.314
			C207.705,204.898,207.559,203.055,208.613,201.828z"/>
		<path style="fill:#FFFFFF;" d="M215.421,194.232l2.144-2.186c1.139-1.162,3.005-1.18,4.167-0.04
			c1.162,1.139,1.18,3.005,0.04,4.167l-0.006,0.006l-0.043,0.044l-2.063,2.092l-0.043,0.044c-1.141,1.157-3.004,1.17-4.161,0.029
			C214.298,197.246,214.28,195.389,215.421,194.232z"/>
		<path style="fill:#FFFFFF;" d="M222.744,187.124l2.292-2.029c1.224-1.083,3.095-0.97,4.178,0.254
			c1.083,1.224,0.97,3.094-0.254,4.178l-0.006,0.005l-0.047,0.042l-2.203,1.939l-0.047,0.042c-1.225,1.079-3.093,0.96-4.172-0.265
			C221.407,190.065,221.519,188.203,222.744,187.124z"/>
		<path style="fill:#FFFFFF;" d="M230.547,180.554l2.43-1.863c1.303-0.999,3.169-0.753,4.169,0.55
			c0.999,1.303,0.753,3.169-0.55,4.168l-0.006,0.005l-0.049,0.037l-2.336,1.782l-0.049,0.038c-1.304,0.994-3.167,0.743-4.161-0.561
			C228.999,183.406,229.243,181.548,230.547,180.554z"/>
		<path style="fill:#FFFFFF;" d="M238.791,174.542l2.549-1.692c1.374-0.912,3.228-0.538,4.14,0.837
			c0.912,1.374,0.538,3.228-0.837,4.14l-0.007,0.004l-0.05,0.033l-2.454,1.619l-0.05,0.033c-1.375,0.907-3.225,0.528-4.132-0.847
			C237.043,177.295,237.416,175.449,238.791,174.542z"/>
		<path style="fill:#FFFFFF;" d="M247.414,169.101l2.653-1.52c1.437-0.824,3.271-0.326,4.094,1.111
			c0.824,1.437,0.326,3.27-1.111,4.094l-0.007,0.004l-0.05,0.029l-2.557,1.456l-0.05,0.029c-1.438,0.819-3.267,0.317-4.086-1.12
			C245.481,171.746,245.976,169.92,247.414,169.101z"/>
		<path style="fill:#FFFFFF;" d="M256.364,164.233l2.741-1.35c1.493-0.735,3.299-0.121,4.035,1.372
			c0.735,1.493,0.121,3.299-1.372,4.035l-0.007,0.003l-0.05,0.024l-2.645,1.294l-0.05,0.024c-1.493,0.73-3.295,0.112-4.025-1.381
			C254.26,166.762,254.871,164.963,256.364,164.233z"/>
		<path style="fill:#FFFFFF;" d="M265.591,159.93l2.815-1.182c1.541-0.647,3.315,0.078,3.962,1.619
			c0.647,1.541-0.078,3.315-1.619,3.962l-0.007,0.003l-0.049,0.02l-2.72,1.133l-0.049,0.021c-1.541,0.642-3.311-0.087-3.952-1.628
			C263.329,162.339,264.051,160.572,265.591,159.93z"/>
		<path style="fill:#FFFFFF;" d="M275.056,156.197l2.879-1.009c1.573-0.551,3.296,0.277,3.847,1.85
			c0.551,1.573-0.277,3.295-1.85,3.847l-0.04,0.014l-2.78,0.983l-0.048,0.017c-1.574,0.557-3.301-0.268-3.858-1.842
			c-0.557-1.574,0.268-3.301,1.842-3.858L275.056,156.197z"/>
		<path style="fill:#FFFFFF;" d="M284.714,153.021l2.926-0.847c1.594-0.462,3.26,0.456,3.722,2.05
			c0.462,1.594-0.456,3.26-2.05,3.722l-0.039,0.011l-2.83,0.828l-0.047,0.014c-1.595,0.467-3.266-0.448-3.733-2.042
			c-0.467-1.595,0.448-3.266,2.042-3.733L284.714,153.021z"/>
		<path style="fill:#FFFFFF;" d="M294.52,150.379l2.969-0.691c1.609-0.374,3.216,0.626,3.591,2.234
			c0.375,1.609-0.626,3.216-2.234,3.591l-0.037,0.009l-2.875,0.678l-0.046,0.011c-1.61,0.38-3.223-0.617-3.602-2.227
			c-0.38-1.61,0.617-3.223,2.227-3.602L294.52,150.379z"/>
		<path style="fill:#FFFFFF;" d="M304.45,148.255l3.001-0.538c1.618-0.29,3.165,0.786,3.455,2.404
			c0.29,1.618-0.786,3.165-2.404,3.455l-0.036,0.007l-2.91,0.531l-0.044,0.008c-1.62,0.295-3.172-0.778-3.467-2.398
			c-0.295-1.62,0.778-3.172,2.398-3.467L304.45,148.255z"/>
		<path style="fill:#FFFFFF;" d="M314.472,146.638l3.023-0.388c1.623-0.208,3.107,0.938,3.316,2.561
			c0.208,1.623-0.938,3.107-2.561,3.316l-0.035,0.005l-2.935,0.385l-0.043,0.006c-1.625,0.213-3.114-0.931-3.327-2.555
			c-0.213-1.624,0.931-3.114,2.555-3.327L314.472,146.638z"/>
		<path style="fill:#FFFFFF;" d="M324.558,145.519l3.036-0.24c1.623-0.128,3.043,1.083,3.172,2.706
			c0.128,1.623-1.083,3.044-2.707,3.172l-0.034,0.003l-2.95,0.242l-0.042,0.003c-1.625,0.133-3.051-1.076-3.184-2.702
			c-0.133-1.625,1.076-3.051,2.701-3.184L324.558,145.519z"/>
		<path style="fill:#FFFFFF;" d="M334.68,144.888l3.036-0.097c1.62-0.052,2.975,1.219,3.027,2.839
			c0.052,1.62-1.219,2.975-2.839,3.027l-0.031,0.001l-2.957,0.103l-0.039,0.001c-1.622,0.057-2.983-1.213-3.039-2.835
			c-0.056-1.622,1.213-2.983,2.835-3.039L334.68,144.888z"/>
		<path style="fill:#FFFFFF;" d="M344.804,144.719l3.037,0.035c1.613,0.018,2.905,1.341,2.887,2.954
			c-0.019,1.613-1.341,2.905-2.954,2.887l-0.029,0l-2.963-0.025l-0.037,0c-1.615-0.014-2.913-1.335-2.899-2.95
			c0.014-1.615,1.335-2.913,2.95-2.899H344.804z"/>
		<path style="fill:#FFFFFF;" d="M354.921,144.983l3.031,0.16c1.603,0.085,2.834,1.452,2.749,3.055
			c-0.085,1.603-1.453,2.834-3.056,2.749l-0.027-0.001l-2.961-0.148l-0.035-0.002c-1.606-0.08-2.842-1.447-2.762-3.052
			c0.08-1.605,1.447-2.842,3.052-2.762L354.921,144.983z"/>
		<path style="fill:#FFFFFF;" d="M365.013,145.655l3.02,0.278c1.591,0.146,2.762,1.554,2.615,3.145
			c-0.146,1.591-1.554,2.762-3.145,2.615l-0.025-0.002l-2.955-0.263l-0.033-0.003c-1.594-0.142-2.77-1.549-2.628-3.142
			c0.142-1.594,1.549-2.77,3.142-2.628L365.013,145.655z"/>
		<path style="fill:#FFFFFF;" d="M375.064,146.712l3.006,0.388c1.577,0.204,2.69,1.647,2.486,3.223
			c-0.204,1.577-1.647,2.69-3.223,2.486l-0.022-0.003l-2.946-0.372l-0.03-0.004c-1.579-0.2-2.698-1.642-2.499-3.221
			s1.642-2.698,3.221-2.499L375.064,146.712z"/>
		<path style="fill:#FFFFFF;" d="M385.064,148.128l2.989,0.491c1.561,0.256,2.618,1.73,2.362,3.291
			c-0.257,1.561-1.73,2.619-3.291,2.362l-0.02-0.003l-2.933-0.473l-0.028-0.005c-1.564-0.253-2.627-1.725-2.375-3.289
			c0.252-1.564,1.725-2.627,3.289-2.375L385.064,148.128z"/>
		<path style="fill:#FFFFFF;" d="M395.004,149.877l2.967,0.586c1.544,0.305,2.549,1.804,2.244,3.349
			c-0.305,1.544-1.804,2.549-3.349,2.244l-0.018-0.004l-2.916-0.567l-0.026-0.005c-1.547-0.301-2.558-1.8-2.257-3.347
			c0.301-1.548,1.8-2.558,3.347-2.257L395.004,149.877z"/>
		<path style="fill:#FFFFFF;" d="M404.872,151.936l2.948,0.674c1.527,0.349,2.482,1.87,2.132,3.398
			c-0.349,1.527-1.87,2.482-3.397,2.132l-0.016-0.004l-2.902-0.655l-0.024-0.005c-1.53-0.346-2.491-1.866-2.145-3.397
			c0.346-1.53,1.866-2.491,3.397-2.145L404.872,151.936z"/>
		<path style="fill:#FFFFFF;" d="M414.677,154.281l2.928,0.756c1.509,0.39,2.417,1.929,2.027,3.438
			c-0.39,1.509-1.929,2.417-3.438,2.027l-0.014-0.004l-2.887-0.737l-0.022-0.006c-1.513-0.386-2.426-1.925-2.04-3.438
			c0.386-1.512,1.925-2.426,3.438-2.04L414.677,154.281z"/>
		<path style="fill:#FFFFFF;" d="M424.413,156.891l2.907,0.831c1.491,0.426,2.354,1.981,1.928,3.472
			c-0.426,1.491-1.981,2.355-3.472,1.928l-0.012-0.004l-2.869-0.812l-0.02-0.006c-1.495-0.423-2.364-1.977-1.941-3.472
			c0.423-1.495,1.977-2.364,3.472-1.941L424.413,156.891z"/>
		<path style="fill:#FFFFFF;" d="M434.071,159.742l2.884,0.899c1.473,0.459,2.295,2.026,1.836,3.499
			c-0.459,1.473-2.026,2.295-3.5,1.836l-0.011-0.003l-2.85-0.88l-0.018-0.006c-1.477-0.456-2.304-2.023-1.848-3.5
			c0.456-1.477,2.023-2.304,3.5-1.848L434.071,159.742z"/>
		<path style="fill:#FFFFFF;" d="M443.656,162.813l2.86,0.961c1.456,0.489,2.239,2.066,1.75,3.521
			c-0.489,1.456-2.066,2.239-3.521,1.75l-0.009-0.003l-2.83-0.942l-0.017-0.005c-1.459-0.486-2.248-2.063-1.762-3.522
			c0.486-1.459,2.062-2.248,3.522-1.762L443.656,162.813z"/>
		<path style="fill:#FFFFFF;" d="M453.163,166.083l2.837,1.017c1.438,0.516,2.186,2.099,1.67,3.538s-2.099,2.186-3.538,1.671
			l-0.008-0.003l-2.809-0.998l-0.015-0.005c-1.442-0.512-2.195-2.097-1.683-3.538c0.512-1.442,2.097-2.195,3.538-1.683
			L453.163,166.083z"/>
		<path style="fill:#FFFFFF;" d="M462.602,169.539l2.815,1.071c1.421,0.541,2.134,2.131,1.593,3.551
			c-0.541,1.421-2.131,2.134-3.551,1.593l-0.008-0.003l-2.788-1.052l-0.015-0.006c-1.424-0.538-2.143-2.128-1.606-3.552
			c0.538-1.424,2.128-2.143,3.552-1.606L462.602,169.539z"/>
		<path style="fill:#FFFFFF;" d="M471.968,173.176l2.797,1.125c1.403,0.564,2.083,2.159,1.518,3.563
			c-0.564,1.403-2.159,2.083-3.562,1.518l-0.007-0.003l-2.772-1.106l-0.014-0.006c-1.407-0.561-2.092-2.157-1.531-3.564
			c0.561-1.407,2.157-2.092,3.564-1.531L471.968,173.176z"/>
		<path style="fill:#FFFFFF;" d="M481.268,176.986l2.776,1.176c1.385,0.587,2.033,2.186,1.446,3.571
			c-0.587,1.385-2.186,2.033-3.571,1.446l-0.007-0.003l-2.752-1.157l-0.014-0.006c-1.389-0.584-2.042-2.183-1.458-3.573
			c0.584-1.389,2.184-2.042,3.573-1.458L481.268,176.986z"/>
		<path style="fill:#FFFFFF;" d="M490.495,180.963l2.754,1.225c1.368,0.608,1.984,2.21,1.376,3.577
			c-0.608,1.368-2.21,1.984-3.578,1.376l-0.006-0.003l-2.732-1.205l-0.013-0.006c-1.372-0.605-1.993-2.208-1.388-3.579
			s2.208-1.993,3.579-1.388L490.495,180.963z"/>
		<path style="fill:#FFFFFF;" d="M499.65,185.1l2.733,1.271c1.35,0.628,1.936,2.232,1.308,3.582
			c-0.628,1.35-2.232,1.936-3.582,1.308l-0.005-0.002l-2.711-1.252L497.38,190c-1.354-0.625-1.945-2.23-1.32-3.584
			c0.625-1.354,2.23-1.945,3.584-1.32L499.65,185.1z"/>
		<path style="fill:#FFFFFF;" d="M508.733,189.388l2.711,1.315c1.333,0.647,1.889,2.251,1.242,3.584
			c-0.647,1.333-2.251,1.889-3.584,1.242l-0.005-0.002l-2.691-1.296l-0.012-0.006c-1.337-0.644-1.898-2.25-1.254-3.586
			c0.644-1.337,2.25-1.898,3.586-1.254L508.733,189.388z"/>
		<path style="fill:#FFFFFF;" d="M517.744,193.822l2.689,1.358c1.315,0.664,1.844,2.269,1.179,3.584
			c-0.664,1.316-2.269,1.844-3.584,1.179l-0.004-0.002l-2.671-1.339l-0.011-0.006c-1.32-0.661-1.853-2.267-1.191-3.587
			c0.661-1.32,2.267-1.853,3.587-1.191L517.744,193.822z"/>
		<path style="fill:#FFFFFF;" d="M526.675,198.409l2.659,1.404c1.284,0.678,1.776,2.269,1.098,3.553
			c-0.674,1.277-2.251,1.77-3.531,1.109l-0.012-0.006l-2.651-1.369l-0.01-0.005c-1.297-0.67-1.805-2.264-1.135-3.561
			c0.67-1.297,2.264-1.805,3.561-1.135L526.675,198.409z"/>
		<path style="fill:#FFFFFF;" d="M535.524,203.138l2.639,1.442c1.253,0.685,1.713,2.256,1.029,3.508
			c-0.681,1.246-2.238,1.708-3.487,1.04l-0.011-0.006l-2.632-1.408l-0.01-0.005c-1.265-0.677-1.742-2.252-1.065-3.517
			c0.677-1.266,2.252-1.742,3.517-1.065L535.524,203.138z"/>
		<path style="fill:#FFFFFF;" d="M544.303,207.993l2.619,1.479c1.222,0.69,1.653,2.24,0.963,3.462
			c-0.686,1.215-2.223,1.648-3.441,0.975l-0.01-0.006l-2.614-1.446l-0.009-0.005c-1.234-0.683-1.681-2.237-0.999-3.471
			s2.237-1.682,3.472-0.999L544.303,207.993z"/>
		<path style="fill:#FFFFFF;" d="M553.014,212.967l2.599,1.514c1.192,0.694,1.595,2.223,0.901,3.414
			c-0.69,1.185-2.205,1.59-3.394,0.913l-0.01-0.006l-2.595-1.481l-0.008-0.005c-1.204-0.687-1.623-2.22-0.936-3.424
			c0.687-1.204,2.22-1.623,3.424-0.936L553.014,212.967z"/>
		<path style="fill:#FFFFFF;" d="M561.656,218.053l2.58,1.547c1.162,0.697,1.539,2.203,0.842,3.365
			c-0.693,1.155-2.186,1.534-3.345,0.854l-0.009-0.005l-2.578-1.515l-0.008-0.005c-1.174-0.69-1.567-2.201-0.877-3.375
			c0.69-1.174,2.201-1.567,3.375-0.877L561.656,218.053z"/>
		<path style="fill:#FFFFFF;" d="M570.234,223.247l2.561,1.578c1.132,0.698,1.485,2.181,0.787,3.314
			c-0.694,1.126-2.164,1.48-3.294,0.799l-0.008-0.005l-2.561-1.547l-0.007-0.004c-1.145-0.691-1.512-2.18-0.821-3.325
			c0.691-1.145,2.18-1.512,3.325-0.821L570.234,223.247z"/>
		<path style="fill:#FFFFFF;" d="M578.751,228.544l2.543,1.608c1.103,0.698,1.432,2.158,0.735,3.261
			c-0.694,1.097-2.141,1.429-3.243,0.747l-0.008-0.005l-2.544-1.577l-0.007-0.004c-1.116-0.692-1.46-2.157-0.768-3.273
			c0.692-1.116,2.157-1.46,3.273-0.768L578.751,228.544z"/>
		<path style="fill:#FFFFFF;" d="M587.208,233.936l2.526,1.636c1.075,0.696,1.382,2.133,0.686,3.208
			c-0.692,1.069-2.116,1.379-3.19,0.698l-0.007-0.005l-2.527-1.605l-0.006-0.004c-1.088-0.691-1.409-2.132-0.718-3.22
			c0.691-1.087,2.132-1.409,3.22-0.718L587.208,233.936z"/>
		<path style="fill:#FFFFFF;" d="M595.606,239.419l2.508,1.662c1.048,0.694,1.334,2.106,0.64,3.153
			c-0.69,1.042-2.09,1.331-3.135,0.652l-0.007-0.004l-2.511-1.632l-0.006-0.004c-1.06-0.689-1.361-2.106-0.672-3.166
			c0.689-1.06,2.106-1.361,3.166-0.672L595.606,239.419z"/>
		<path style="fill:#FFFFFF;" d="M603.947,244.987l2.492,1.686c1.021,0.691,1.288,2.077,0.597,3.098
			c-0.687,1.015-2.062,1.285-3.081,0.609l-0.006-0.004l-2.496-1.657l-0.005-0.004c-1.033-0.685-1.314-2.078-0.629-3.111
			c0.685-1.033,2.078-1.314,3.111-0.629L603.947,244.987z"/>
		<path style="fill:#FFFFFF;" d="M612.233,250.633l2.475,1.708c0.994,0.686,1.244,2.048,0.557,3.042
			c-0.682,0.988-2.032,1.241-3.025,0.569l-0.006-0.004l-2.481-1.68l-0.005-0.003c-1.006-0.681-1.269-2.049-0.588-3.055
			c0.681-1.006,2.049-1.269,3.055-0.588L612.233,250.633z"/>
		<path style="fill:#FFFFFF;" d="M620.466,256.353l2.46,1.729c0.968,0.68,1.201,2.017,0.52,2.985
			c-0.677,0.962-2.002,1.198-2.968,0.532l-0.005-0.004l-2.466-1.701l-0.004-0.003c-0.98-0.676-1.226-2.018-0.55-2.998
			c0.676-0.98,2.019-1.226,2.998-0.55L620.466,256.353z"/>
		<path style="fill:#FFFFFF;" d="M628.646,262.14l2.444,1.748c0.943,0.674,1.16,1.985,0.486,2.927
			c-0.67,0.937-1.975,1.154-2.916,0.494l-2.452-1.721c-0.956-0.668-1.19-1.984-0.522-2.94c0.668-0.956,1.984-1.19,2.94-0.522
			L628.646,262.14z"/>
		<path style="fill:#FFFFFF;" d="M636.779,267.989l2.431,1.762c0.918,0.666,1.123,1.95,0.458,2.868
			c-0.662,0.913-1.938,1.119-2.855,0.467l-2.443-1.738c-0.931-0.661-1.15-1.951-0.489-2.882c0.661-0.931,1.951-1.15,2.882-0.489
			L636.779,267.989z"/>
		<path style="fill:#FFFFFF;" d="M644.875,273.864l2.427,1.761c0.899,0.651,1.1,1.907,0.449,2.806
			c-0.647,0.894-1.895,1.096-2.793,0.458l-2.445-1.741c-0.91-0.648-1.122-1.911-0.475-2.821c0.648-0.91,1.911-1.122,2.821-0.475
			L644.875,273.864z"/>
		<path style="fill:#FFFFFF;" d="M652.971,279.719l2.434,1.745l0.004,0.003c0.882,0.632,1.084,1.86,0.452,2.742
			c-0.629,0.877-1.847,1.081-2.728,0.462l-2.458-1.729c-0.894-0.629-1.108-1.863-0.479-2.757c0.629-0.894,1.863-1.108,2.757-0.479
			L652.971,279.719z"/>
		<path style="fill:#FFFFFF;" d="M661.101,285.504l2.451,1.715l0.007,0.005c0.869,0.608,1.081,1.806,0.473,2.675
			c-0.605,0.864-1.793,1.078-2.661,0.482l-2.48-1.703c-0.881-0.605-1.104-1.809-0.5-2.689c0.605-0.881,1.809-1.104,2.689-0.5
			l0.014,0.01L661.101,285.504z"/>
		<path style="fill:#FFFFFF;" d="M669.301,291.172l2.478,1.67l0.01,0.007c0.859,0.579,1.087,1.745,0.508,2.605
			c-0.576,0.855-1.733,1.084-2.591,0.517l-2.513-1.661c-0.871-0.575-1.11-1.748-0.534-2.619c0.576-0.871,1.748-1.11,2.619-0.535
			l0.014,0.009L669.301,291.172z"/>
		<path style="fill:#FFFFFF;" d="M677.603,296.671l2.515,1.609l0.013,0.008c0.852,0.545,1.101,1.678,0.556,2.531
			c-0.542,0.848-1.666,1.098-2.517,0.565l-2.554-1.602c-0.864-0.542-1.124-1.681-0.583-2.544c0.542-0.863,1.681-1.124,2.544-0.583
			l0.014,0.009L677.603,296.671z"/>
		<path style="fill:#FFFFFF;" d="M686.026,301.962l2.559,1.541l0.015,0.009c0.833,0.502,1.102,1.584,0.601,2.418
			c-0.497,0.826-1.565,1.097-2.396,0.614l-2.612-1.521c-0.851-0.496-1.139-1.588-0.644-2.439c0.496-0.851,1.588-1.139,2.439-0.644
			c0.005,0.003,0.009,0.005,0.014,0.008L686.026,301.962z"/>
		<path style="fill:#FFFFFF;" d="M694.61,306.988l2.607,1.443l0.018,0.01c0.816,0.452,1.111,1.479,0.66,2.295
			c-0.447,0.808-1.461,1.105-2.273,0.672l-2.663-1.423c-0.833-0.445-1.148-1.482-0.702-2.315c0.445-0.833,1.482-1.148,2.315-0.702
			c0.005,0.002,0.009,0.005,0.014,0.007L694.61,306.988z"/>
		<path style="fill:#FFFFFF;" d="M703.366,311.669l2.661,1.327l0.02,0.01c0.798,0.398,1.123,1.368,0.725,2.166
			c-0.394,0.791-1.351,1.116-2.145,0.735l-2.721-1.307c-0.815-0.392-1.158-1.37-0.767-2.185c0.392-0.815,1.37-1.158,2.185-0.767
			c0.005,0.002,0.009,0.004,0.014,0.007L703.366,311.669z"/>
		<path style="fill:#FFFFFF;" d="M712.316,315.947l2.721,1.194l0.022,0.01c0.78,0.342,1.135,1.252,0.793,2.032
			c-0.339,0.773-1.236,1.128-2.011,0.802l-2.783-1.173c-0.796-0.335-1.17-1.253-0.834-2.049c0.336-0.796,1.253-1.17,2.049-0.834
			c0.004,0.002,0.009,0.004,0.013,0.006L712.316,315.947z"/>
		<path style="fill:#FFFFFF;" d="M721.464,319.756l2.786,1.043l0.026,0.01c0.76,0.285,1.145,1.131,0.861,1.891
			c-0.282,0.753-1.117,1.138-1.871,0.868l-2.852-1.02c-0.775-0.278-1.179-1.131-0.902-1.907c0.277-0.775,1.131-1.179,1.906-0.902
			c0.004,0.002,0.009,0.003,0.013,0.005L721.464,319.756z"/>
		<path style="fill:#FFFFFF;" d="M730.818,323.01l2.847,0.85l0.028,0.008c0.739,0.22,1.159,0.998,0.938,1.737
			c-0.218,0.732-0.985,1.151-1.717,0.944l-2.915-0.824c-0.754-0.213-1.192-0.997-0.979-1.75s0.997-1.192,1.75-0.979
			c0.004,0.001,0.008,0.002,0.013,0.004L730.818,323.01z"/>
		<path style="fill:#FFFFFF;" d="M740.373,325.61l2.9,0.649l0.028,0.006c0.713,0.159,1.161,0.867,1.002,1.58
			c-0.158,0.706-0.855,1.153-1.561,1.006l-2.965-0.618c-0.727-0.152-1.194-0.864-1.042-1.591c0.152-0.727,0.864-1.194,1.591-1.042
			c0.004,0.001,0.008,0.002,0.012,0.002L740.373,325.61z"/>
		<path style="fill:#FFFFFF;" d="M750.09,327.531l2.94,0.438l0.028,0.004c0.683,0.102,1.154,0.738,1.052,1.42
			c-0.101,0.676-0.727,1.145-1.402,1.054l-3.001-0.403c-0.696-0.094-1.185-0.733-1.091-1.43c0.093-0.696,0.733-1.185,1.43-1.091
			c0.004,0,0.008,0.001,0.012,0.002L750.09,327.531z"/>
		<path style="fill:#FFFFFF;" d="M759.923,328.734l2.964,0.214l0.028,0.002c0.648,0.047,1.136,0.61,1.089,1.258
			c-0.046,0.642-0.6,1.126-1.241,1.09l-3.023-0.173c-0.661-0.038-1.166-0.604-1.128-1.265c0.038-0.661,0.604-1.166,1.265-1.128
			c0.004,0,0.007,0,0.011,0.001L759.923,328.734z"/>
		<path style="fill:#FFFFFF;" d="M769.819,329.169l2.972-0.028l0.028,0c0.609-0.006,1.108,0.484,1.114,1.093
			c0.006,0.604-0.475,1.099-1.077,1.113l-3.028,0.073c-0.622,0.015-1.137-0.477-1.152-1.098c-0.015-0.621,0.477-1.137,1.098-1.152
			c0.003,0,0.007,0,0.01,0L769.819,329.169z"/>
		<path style="fill:#FFFFFF;" d="M779.715,328.775l2.957-0.289l0.029-0.003c0.566-0.055,1.07,0.359,1.126,0.925
			c0.055,0.561-0.352,1.061-0.91,1.124l-3.01,0.339c-0.578,0.065-1.099-0.35-1.164-0.928c-0.065-0.578,0.35-1.099,0.928-1.164
			c0.003,0,0.006-0.001,0.01-0.001L779.715,328.775z"/>
		<path style="fill:#FFFFFF;" d="M789.533,327.488l2.917-0.564l0.028-0.006c0.514-0.099,1.011,0.237,1.111,0.751
			c0.098,0.507-0.229,0.999-0.732,1.107l-2.962,0.634c-0.528,0.113-1.048-0.224-1.161-0.752c-0.113-0.528,0.224-1.048,0.752-1.161
			c0.005-0.001,0.009-0.002,0.014-0.003L789.533,327.488z"/>
		<path style="fill:#FFFFFF;" d="M799.18,325.258l2.843-0.866l0.027-0.008c0.449-0.137,0.924,0.116,1.06,0.565
			c0.135,0.443-0.111,0.912-0.549,1.055l-2.879,0.94c-0.462,0.151-0.958-0.101-1.109-0.563c-0.151-0.462,0.101-0.958,0.563-1.109
			c0.004-0.001,0.008-0.003,0.012-0.004L799.18,325.258z"/>
		<path style="fill:#FFFFFF;" d="M808.534,322.003l2.727-1.183l0.024-0.011c0.381-0.165,0.823,0.01,0.988,0.39
			c0.163,0.376-0.006,0.812-0.377,0.982l-2.753,1.259c-0.392,0.179-0.856,0.007-1.035-0.385c-0.179-0.392-0.007-0.856,0.385-1.035
			c0.003-0.002,0.007-0.003,0.01-0.005L808.534,322.003z"/>
		<path style="fill:#FFFFFF;" d="M817.452,317.683l2.567-1.504l0.021-0.012c0.311-0.182,0.711-0.078,0.893,0.233
			c0.18,0.307,0.08,0.701-0.222,0.887l-2.579,1.58c-0.321,0.197-0.742,0.096-0.938-0.225c-0.197-0.322-0.096-0.742,0.225-0.938
			c0.003-0.002,0.006-0.003,0.008-0.005L817.452,317.683z"/>
	</g>
</g>
</svg>
