<?xml version="1.0" encoding="utf-8"?>
<!-- Generator: Adobe Illustrator 26.0.0, SVG Export Plug-In . SVG Version: 6.00 Build 0)  -->
<svg version="1.1" xmlns="http://www.w3.org/2000/svg" xmlns:xlink="http://www.w3.org/1999/xlink" x="0px" y="0px"
	 viewBox="0 0 7056 1512" style="enable-background:new 0 0 7056 1512;" xml:space="preserve">
<style type="text/css">
	.st0{fill-rule:evenodd;clip-rule:evenodd;fill:#FFFFFF;}
	.st1{fill-rule:evenodd;clip-rule:evenodd;fill:#0177B5;}
	.st2{fill-rule:evenodd;clip-rule:evenodd;fill:#5B0A0A;}
	.st3{fill-rule:evenodd;clip-rule:evenodd;fill:none;stroke:#FFFFFF;stroke-width:5.9734;stroke-miterlimit:2.6131;}
	.st4{fill-rule:evenodd;clip-rule:evenodd;fill:#00A651;}
</style>
<g id="Guides_For_Artboard">
</g>
<g id="Layer_1">
	<polygon class="st0" points="371.2,943.6 661.2,686.7 813.9,831.7 361.7,1218.2 96,987.7 251.9,852.8 	"/>
	<path class="st1" d="M196.9,101.3h905.9c54.5,0,99.1,48.8,99.1,108.4v944.4c0,59.6-44.6,108.4-99.1,108.4H196.9
		c-54.5,0-99.1-48.8-99.1-108.4V209.7C97.8,150,142.4,101.3,196.9,101.3z"/>
	<path class="st0" d="M119.6,1016.7h1060.7v127.4c0,51.8-36.2,94.1-83.5,94.1H203.1c-47.3,0-83.5-42.4-83.5-94.1V1016.7z"/>
	<path class="st2" d="M333.8,1162.6c0,16.2-2.8,27.4-8.4,33.5c-5.3,5.8-14.3,8.7-27.1,8.7h-62v-151.2h59.8c13.4,0,22.6,3.2,27.7,9.5
		c4.8,5.9,7.2,15.9,7.2,29.8c0,11.6-1.6,20-4.9,25.2c-2.5,3.9-6.5,6.7-12.1,8.3v0.8c10.7,1.5,17,8.1,18.8,19.6
		C333.5,1151.3,333.8,1156.6,333.8,1162.6L333.8,1162.6z M308.1,1095.6c0-6.7-1-11.3-2.9-13.7c-1-1.2-2.4-2.1-4.2-2.7
		c-2.1-0.6-5.5-1-10.2-1h-31.7v38.5h31.4c3.7,0,6.2-0.1,7.5-0.4C304.7,1115,308.1,1108.1,308.1,1095.6L308.1,1095.6z M310.8,1160.2
		c0-8.3-1-14-3-16.9c-2.3-2.8-6.7-4.2-13.1-4.2h-35.5v40.9h34.2c4.2,0,7.4-0.4,9.8-1.2C308.3,1176.5,310.8,1170.2,310.8,1160.2
		L310.8,1160.2z M447.3,1098.4c0,16.7-1.8,27.7-5.3,33.1c-3.2,4.9-8.5,8.2-15.9,9.9v0.6c7,0.8,12.3,3.9,15.9,9
		c2.9,5.8,4.3,14.4,4.3,25.6v28h-23.1v-22.8c0-11-1.2-18.3-3.7-21.7c-2.6-3.7-7.5-5.5-14.6-5.5h-32v50h-22.9v-151.2h58.7
		c15.5,0,25.9,3.8,31.4,11.5C445,1071.7,447.3,1082.9,447.3,1098.4L447.3,1098.4z M424.3,1103.1c0-9.5-0.9-16-2.7-19.4
		c-2.3-3.6-7.7-5.4-16.2-5.4H373v51.6h33c7,0,12-1.9,15-5.8C423.2,1120.5,424.3,1113.4,424.3,1103.1L424.3,1103.1z M568.9,1204.7
		h-23.4l-7.6-28.5h-51.7l-7.7,28.5h-23.7l39.8-151.2h33.6L568.9,1204.7L568.9,1204.7z M532.5,1154.3l-20.5-78.9l-0.1,0l-20.6,78.8
		H532.5L532.5,1154.3z M601.5,1204.7h-23.1v-151.2h23.1V1204.7L601.5,1204.7z M733.3,1204.7h-38.4l-50.6-126.4h-0.9l1.3,62.7
		l0.6,63.7h-23.1v-151.2h38l51.3,126.4h0.6l-1.9-126.4h23.1V1204.7z"/>
	<path class="st2" d="M921.2,1053.5l-32,151.2H856l-23.9-115.3h-0.6l-24.7,115.3h-32.9l-31-151.2H766l24.8,127.6h0.6l27.3-127.6
		h26.4l26.7,127.6h0.7l25.8-127.6H921.2L921.2,1053.5z M953.9,1204.7h-23.1v-151.2h23.1V1204.7L953.9,1204.7z M1063.5,1204.7H968
		v-24.4l66.1-102h-62.9v-24.8h91.4v24.8l-65.9,101.6h66.9V1204.7z"/>
	<path class="st0" d="M565.2,192.2h125v645.9c263.8-42.9,195.5-353.9,11-352.8L753.9,383c363.7,98.6,285.5,549.5-96,570.7h-92.6
		V192.2z"/>
	<g>
		<polygon class="st3" points="240,842 327.5,769.4 411.7,830.9 614.8,658.3 700.2,736.1 404.2,978.7 		"/>
		<path class="st4" d="M240,842l87.5-72.6l84.3,61.5l203.1-172.6l85.3,77.7l-296,242.6L240,842z"/>
	</g>
	<path class="st1" d="M2039.4,652.8c0,81.9-19,138.3-56.9,169.2c-35.6,29.2-96.4,43.8-182.7,43.8h-418.5V101.3H1785
		c90.4,0,152.6,16,186.8,48.1c32.2,29.9,48.3,80.2,48.3,150.7c0,58.8-11.1,101.3-33.3,127.4c-16.6,19.9-43.8,33.8-81.6,41.8v4.1
		c72.5,7.8,114.9,41,127,99.2C2037.1,596.1,2039.4,622.7,2039.4,652.8L2039.4,652.8z M1865.5,314.3c0-34-6.4-57.1-19.3-69.3
		c-6.8-6.1-16.1-10.5-28.1-13.4c-14.3-3.2-37.2-4.9-68.5-4.9H1536v194.7h211.7c25,0,41.9-0.7,50.3-2
		C1843,412.2,1865.5,377.2,1865.5,314.3L1865.5,314.3z M1883.8,640.8c0-42.1-6.8-70.7-20.4-85.6c-15.7-14.3-45.1-21.4-88-21.4H1536
		v206.8h231c28.1,0,50.1-2,66.2-5.9C1866.9,723,1883.8,691.6,1883.8,640.8L1883.8,640.8z M2805,328.4c0,84.3-11.8,140.2-35.6,167.4
		c-21.8,24.8-57.4,41.5-107.4,50v3.1c47.2,4.2,83,19.5,107.2,45.7c19.5,29.4,29.2,72.7,29.2,129.6v141.7h-155.7V750.7
		c0-55.7-8.2-92.4-24.7-109.9c-17.4-18.5-50.5-27.7-98.8-27.7h-215.8v252.8h-154.6V101.3H2545c104.5,0,175,19.4,211.5,57.9
		C2788.9,193.4,2805,249.9,2805,328.4L2805,328.4z M2649.3,352.2c0-48.3-6.1-80.9-18.4-98.2c-15.7-18.2-52.2-27.4-109.5-27.4h-217.9
		v261h222.4c47.4,0,81.2-9.9,100.9-29.4C2641.8,439.9,2649.3,404.4,2649.3,352.2L2649.3,352.2z M3624.8,865.9h-157.6L3415.6,722
		h-348.7l-51.7,143.9h-160l268.4-764.6h226.5L3624.8,865.9L3624.8,865.9z M3379.1,611l-138.5-398.8l-0.9,0.2L3101.1,611H3379.1
		L3379.1,611z M3845,865.9h-155.7V101.3H3845V865.9L3845,865.9z M4733.5,865.9h-258.7l-341.5-639.2h-6.3l8.8,317.1l4.1,322.2h-155.7
		V101.3h256.6l345.7,639.2h4.3l-12.9-639.2h155.7V865.9z"/>
	<path class="st4" d="M6001.3,101.3l-215.8,764.6h-224.4L5400,282.7h-3.9l-166.6,583.1h-222.2l-209.2-764.6h155.8l167.3,645.3h4.3
		L5310,101.3h178.2l180.3,645.3h4.5l173.7-645.3H6001.3L6001.3,101.3z M6221.5,865.9h-155.7V101.3h155.7V865.9L6221.5,865.9z
		 M6961,865.9h-644.3V742.4l445.5-515.7h-424V101.3h616.2v125.4L6510,740.5h451V865.9z"/>
	<path class="st1" d="M1413.6,1205.7V976h42v84.7h127.2V976h42v229.7h-42v-111.6h-127.2v111.6H1413.6L1413.6,1205.7z M1709.7,1275.7
		h-39.4l45.9-82.9l-61.5-135.9h42.4l30.7,77c1.8,4.7,3.3,9.5,4.7,14.4c1.3,4.9,2.4,9.8,3.2,14.8c1.5-5.2,5.2-13.5,10.9-25l0.9-1.9
		l41.3-79.4h41.5L1709.7,1275.7L1709.7,1275.7z M1971.5,1130.8c0-15.4-4-27.3-12.1-35.9c-8.1-8.6-19.3-12.9-33.8-12.9
		c-14.5,0-25.9,4.4-34.2,13.3c-8.2,8.8-12.4,21.1-12.4,36.8c0,15.8,4,28,12,36.6c8,8.6,19.3,12.9,33.9,12.9
		c13.9,0,25.1-4.6,33.8-13.9C1967.1,1158.4,1971.5,1146.2,1971.5,1130.8L1971.5,1130.8z M1970.4,962.5h38.3v243.2h-38.3v-19.3
		c-6.8,8.6-14.8,14.9-23.9,19.1c-9.1,4.2-19.5,6.3-31.3,6.3c-23.6,0-42.2-7.2-55.9-21.6c-13.6-14.4-20.4-34.1-20.4-59.1
		c0-23.7,6.9-42.9,20.9-57.5c13.9-14.6,32-21.9,54.4-21.9c13.6,0,25.3,2.5,35,7.6c9.7,5.1,16.8,12.4,21.3,21.9V962.5L1970.4,962.5z
		 M2222.9,1136.4h-133.9c1,13.9,5.6,24.7,14,32.6c8.3,7.8,19.5,11.7,33.4,11.7c12.4,0,22.7-2.3,30.9-6.9
		c8.2-4.6,15.4-12.1,21.6-22.3l32.3,16c-9.4,14.9-21.1,26.1-35,33.4c-13.9,7.3-30.2,11-48.9,11c-26.8,0-48.2-7.3-64.1-21.8
		c-15.9-14.6-23.9-34-23.9-58.2c0-23.4,8.2-42.5,24.7-57.5c16.4-15,37.5-22.5,63.3-22.5c26.9,0,48,6.9,63,20.6
		c15.1,13.7,22.6,32.9,22.6,57.6V1136.4L2222.9,1136.4z M2183.2,1113.4c-1.5-10.7-6.2-18.8-13.8-24.4c-7.7-5.6-18.1-8.4-31.4-8.4
		c-12.6,0-22.7,2.7-30.4,8.1c-7.7,5.5-13,13.7-16.1,24.6H2183.2L2183.2,1113.4z M2301.2,1080.6c4.1-9.8,9.6-17.1,16.3-21.8
		c6.8-4.7,15.1-7.1,25.2-7.1c5.4,0,10.7,0.6,16,1.7c5.3,1.2,10.4,2.8,15.4,5l-13.8,28.9c-3.3-2.1-6.8-3.6-10.7-4.6
		c-3.8-1-8.1-1.5-12.8-1.5c-12.7,0-21.8,4.5-27.4,13.5c-5.5,9.1-8.3,24.3-8.3,45.6v65.3h-38.3v-149.1h38.3V1080.6L2301.2,1080.6z
		 M2553.4,1205.7h-38.3v-19.3c-6.8,8.6-14.8,14.9-23.9,19.1c-9.1,4.2-19.5,6.3-31.3,6.3c-23.6,0-42.2-7.2-55.9-21.6
		c-13.6-14.4-20.4-34.1-20.4-59.1c0-23.7,6.9-42.9,20.9-57.5c13.9-14.6,32-21.9,54.4-21.9c13.6,0,25.3,2.5,35,7.6
		c9.7,5.1,16.8,12.4,21.3,21.9V1057h38.3V1205.7L2553.4,1205.7z M2516.2,1130.8c0-15.4-4-27.3-12.1-35.9
		c-8.1-8.6-19.3-12.9-33.8-12.9c-14.5,0-25.9,4.4-34.2,13.3c-8.3,8.8-12.4,21.1-12.4,36.8c0,15.8,4,28,12,36.6
		c8,8.6,19.3,12.9,33.9,12.9c13.8,0,25-4.7,33.6-14C2511.8,1158.3,2516.2,1146.1,2516.2,1130.8L2516.2,1130.8z M2643.5,1130.8
		c0,15.2,4.4,27.4,13.2,36.7c8.7,9.3,20.1,14,33.9,14c14.5,0,25.7-4.3,33.6-12.9c8-8.6,11.9-20.8,11.9-36.6c0-15.7-4.2-28-12.4-36.8
		c-8.3-8.8-19.7-13.3-34.2-13.3c-14.5,0-25.8,4.3-33.9,12.9C2647.6,1103.5,2643.5,1115.5,2643.5,1130.8L2643.5,1130.8z
		 M2644.7,962.5v118.7c4.5-9.4,11.6-16.7,21.5-21.8c9.8-5.1,21.6-7.7,35.2-7.7c22.2,0,40.3,7.3,54.1,21.9
		c13.8,14.6,20.7,33.7,20.7,57.5c0,25-6.8,44.7-20.4,59.1c-13.6,14.4-32.2,21.6-55.9,21.6c-11.8,0-22.2-2.1-31.3-6.3
		c-9.1-4.2-17.1-10.6-23.9-19.1v19.3h-38.3V962.5H2644.7L2644.7,962.5z M2974.3,1205.7H2936v-19.3c-6.8,8.6-14.8,14.9-23.9,19.1
		c-9.1,4.2-19.5,6.3-31.3,6.3c-23.6,0-42.2-7.2-55.9-21.6c-13.6-14.4-20.4-34.1-20.4-59.1c0-23.7,6.9-42.9,20.9-57.5
		c13.9-14.6,32-21.9,54.4-21.9c13.6,0,25.3,2.5,35,7.6c9.7,5.1,16.8,12.4,21.3,21.9V1057h38.3V1205.7L2974.3,1205.7z M2937.1,1130.8
		c0-15.4-4-27.3-12.1-35.9c-8.1-8.6-19.3-12.9-33.8-12.9c-14.5,0-25.9,4.4-34.2,13.3c-8.2,8.8-12.4,21.1-12.4,36.8
		c0,15.8,4,28,12,36.6c8,8.6,19.3,12.9,33.9,12.9c13.8,0,25-4.7,33.6-14C2932.8,1158.3,2937.1,1146.1,2937.1,1130.8L2937.1,1130.8z
		 M3147.6,1130.8c0-15.4-4-27.3-12.1-35.9c-8.1-8.6-19.3-12.9-33.8-12.9c-14.5,0-25.8,4.4-34.2,13.3c-8.2,8.8-12.4,21.1-12.4,36.8
		c0,15.8,4,28,12,36.6c8,8.6,19.3,12.9,33.9,12.9c13.9,0,25.1-4.6,33.7-13.9C3143.2,1158.4,3147.6,1146.2,3147.6,1130.8
		L3147.6,1130.8z M3146.5,962.5h38.3v243.2h-38.3v-19.3c-6.8,8.6-14.8,14.9-23.9,19.1c-9.1,4.2-19.5,6.3-31.3,6.3
		c-23.6,0-42.2-7.2-55.9-21.6c-13.6-14.4-20.4-34.1-20.4-59.1c0-23.7,6.9-42.9,20.9-57.5c13.9-14.6,32-21.9,54.4-21.9
		c13.6,0,25.3,2.5,35,7.6c9.7,5.1,16.8,12.4,21.3,21.9V962.5L3146.5,962.5z M3226.5,980.4h28.9v87.4h-28.9V980.4L3226.5,980.4z
		 M3277.6,1178.7l31.8-15.4c2.3,7.5,6.7,13.1,13.1,17c6.4,3.9,14.5,5.8,24.6,5.8c8.6,0,15.3-1.8,20.2-5.2c4.9-3.5,7.4-8.3,7.4-14.4
		c0-8.1-8.7-15-26.1-20.7c-5.9-1.9-10.4-3.4-13.6-4.7c-17.9-6.6-30.4-13.3-37.5-20.1c-7.1-6.8-10.7-15-10.7-24.8
		c0-13.3,5.8-24.1,17.6-32.4c11.7-8.2,27.2-12.4,46.5-12.4c13,0,24.1,2.1,33.3,6.4c9.2,4.2,16,10.2,20.2,18.1l-27.2,16.7
		c-2-4.7-5.5-8.5-10.5-11.3c-5-2.8-10.8-4.2-17.4-4.2c-7.3,0-13.1,1.6-17.5,4.7c-4.4,3.1-6.6,7.2-6.6,12.3c0,7.7,9.9,14.8,29.7,21.2
		c6.3,2,11.1,3.6,14.5,4.9c15.4,5.4,26.5,11.6,33.1,18.4c6.7,6.9,10,15.4,10,25.7c0,14.8-6.1,26.5-18.2,34.9
		c-12.1,8.4-28.8,12.6-50.1,12.6c-16.4,0-30-2.7-40.8-8.1C3292.1,1198.2,3283.7,1189.9,3277.6,1178.7L3277.6,1178.7z M3604.3,1073
		h16c20,0,34.2-2.4,42.5-7.3c8.3-4.9,12.4-13.1,12.4-24.6c0-12.5-3.8-21.4-11.4-26.5c-7.7-5.1-22.1-7.6-43.5-7.6h-16V1073
		L3604.3,1073z M3604.3,1174.5h14.5c14.7,0,25.7-0.5,33-1.6c7.3-1.1,13-2.9,17.3-5.5c5.2-3,9.2-7.1,12-12.2c2.8-5.1,4.2-10.8,4.2-17
		c0-7.3-1.7-13.7-5.1-19.1c-3.4-5.5-8.3-9.7-14.6-12.7c-4-1.8-8.6-3.1-13.7-4c-5.1-0.8-11.9-1.2-20.4-1.2h-12.7h-14.5V1174.5
		L3604.3,1174.5z M3563.1,1205.7V976h65.2c18.6,0,32.4,0.9,41.2,2.7c8.9,1.8,16.4,4.7,22.7,8.8c8,5.3,14.2,12.1,18.6,20.6
		c4.4,8.5,6.6,17.8,6.6,28.1c0,12.3-3.2,22.5-9.5,30.7c-6.4,8.2-15.6,13.9-27.7,17.2c15.1,2.1,26.9,8.2,35.6,18.3
		c8.6,10.1,13,22.8,13,38.2c0,9.3-1.8,18.2-5.5,26.5c-3.6,8.4-8.8,15.5-15.6,21.4c-7.1,6.4-15.8,10.9-26.3,13.5
		c-10.5,2.6-28.1,3.9-52.8,3.9H3563.1L3563.1,1205.7z M3929.5,1136.4h-133.9c1,13.9,5.6,24.7,14,32.6c8.3,7.8,19.5,11.7,33.4,11.7
		c12.4,0,22.7-2.3,30.9-6.9c8.3-4.6,15.4-12.1,21.6-22.3l32.3,16c-9.4,14.9-21.1,26.1-35,33.4c-13.9,7.3-30.2,11-48.9,11
		c-26.8,0-48.2-7.3-64.1-21.8c-15.9-14.6-23.9-34-23.9-58.2c0-23.4,8.2-42.5,24.7-57.5c16.4-15,37.5-22.5,63.3-22.5
		c26.9,0,48,6.9,63,20.6c15.1,13.7,22.6,32.9,22.6,57.6V1136.4L3929.5,1136.4z M3889.8,1113.4c-1.5-10.7-6.1-18.8-13.8-24.4
		c-7.7-5.6-18.1-8.4-31.4-8.4c-12.6,0-22.7,2.7-30.4,8.1c-7.7,5.5-13,13.7-16.1,24.6H3889.8L3889.8,1113.4z M3950.2,1178.7
		l31.8-15.4c2.3,7.5,6.7,13.1,13.1,17c6.4,3.9,14.5,5.8,24.6,5.8c8.6,0,15.3-1.8,20.2-5.2c4.9-3.5,7.3-8.3,7.3-14.4
		c0-8.1-8.7-15-26.1-20.7c-5.9-1.9-10.4-3.4-13.6-4.7c-17.9-6.6-30.4-13.3-37.5-20.1c-7.1-6.8-10.7-15-10.7-24.8
		c0-13.3,5.8-24.1,17.6-32.4c11.7-8.2,27.2-12.4,46.5-12.4c13,0,24,2.1,33.3,6.4c9.2,4.2,16,10.2,20.2,18.1l-27.2,16.7
		c-2-4.7-5.5-8.5-10.5-11.3c-5-2.8-10.8-4.2-17.4-4.2c-7.3,0-13.1,1.6-17.5,4.7c-4.4,3.1-6.6,7.2-6.6,12.3c0,7.7,9.9,14.8,29.7,21.2
		c6.3,2,11.1,3.6,14.5,4.9c15.4,5.4,26.5,11.6,33.1,18.4c6.7,6.9,10,15.4,10,25.7c0,14.8-6.1,26.5-18.2,34.9
		c-12.1,8.4-28.8,12.6-50.1,12.6c-16.4,0-30-2.7-40.8-8.1C3964.7,1198.2,3956.3,1189.9,3950.2,1178.7L3950.2,1178.7z M4132.4,1205.7
		v-118.9h-29.3V1057h29.3v-56.3h38.3v56.3h29.3v29.8h-29.3v118.9H4132.4L4132.4,1205.7z M4346.1,1205.7V976h42v229.7H4346.1
		L4346.1,1205.7z M4445.3,1205.7V1057h36v24.3c7.7-10.3,16.6-17.7,27-22.4c10.4-4.7,23-7.1,37.8-7.1c12.5,0,23.1,1.8,31.9,5.3
		c8.7,3.5,15.6,8.7,20.6,15.6c3,4.1,5.1,8.8,6.4,14.2c1.3,5.5,1.9,15,1.9,28.5v90.3h-38.7v-76.4c0-19.5-2.6-32.6-8-39
		c-5.4-6.4-14.9-9.6-28.5-9.6c-9,0-16.9,1.5-23.9,4.4c-7,2.9-12.5,7.1-16.5,12.4c-2.8,3.6-4.8,8.1-5.9,13.8
		c-1.1,5.6-1.7,14.5-1.7,26.7v67.8H4445.3L4445.3,1205.7z M4638.6,1178.7l31.8-15.4c2.3,7.5,6.7,13.1,13.1,17
		c6.4,3.9,14.5,5.8,24.6,5.8c8.6,0,15.3-1.8,20.2-5.2c4.9-3.5,7.3-8.3,7.3-14.4c0-8.1-8.7-15-26.1-20.7c-5.9-1.9-10.4-3.4-13.6-4.7
		c-17.9-6.6-30.4-13.3-37.5-20.1c-7.1-6.8-10.7-15-10.7-24.8c0-13.3,5.8-24.1,17.6-32.4c11.7-8.2,27.2-12.4,46.5-12.4
		c13,0,24,2.1,33.3,6.4c9.2,4.2,16,10.2,20.2,18.1l-27.2,16.7c-2-4.7-5.5-8.5-10.5-11.3c-5-2.8-10.8-4.2-17.4-4.2
		c-7.3,0-13.1,1.6-17.5,4.7c-4.4,3.1-6.6,7.2-6.6,12.3c0,7.7,9.9,14.8,29.7,21.2c6.3,2,11.1,3.6,14.5,4.9
		c15.4,5.4,26.5,11.6,33.1,18.4c6.7,6.9,10,15.4,10,25.7c0,14.8-6.1,26.5-18.2,34.9c-12.1,8.4-28.8,12.6-50.1,12.6
		c-16.4,0-30-2.7-40.8-8.1C4653.2,1198.2,4644.8,1189.9,4638.6,1178.7L4638.6,1178.7z M4820.9,1205.7v-118.9h-29.3V1057h29.3v-56.3
		h38.3v56.3h29.3v29.8h-29.3v118.9H4820.9L4820.9,1205.7z M4918.1,992.6c0-5.8,2.4-10.8,7.2-14.9c4.8-4.2,10.4-6.3,17-6.3
		c6.9,0,12.5,2,17.1,6.1c4.5,4,6.8,9.1,6.8,15.2c0,6.1-2.3,11.1-6.9,15.3c-4.6,4.1-10.2,6.2-17,6.2c-6.6,0-12.2-2.1-17-6.4
		C4920.5,1003.5,4918.1,998.5,4918.1,992.6L4918.1,992.6z M4923.3,1205.7V1057h38.3v148.7H4923.3L4923.3,1205.7z M5025.3,1205.7
		v-118.9H4996V1057h29.3v-56.3h38.3v56.3h29.3v29.8h-29.3v118.9H5025.3L5025.3,1205.7z M5163,1057v83.8c0,14.5,3.4,24.8,10.1,31.1
		c6.7,6.3,17.6,9.4,32.7,9.4c15,0,25.9-3.2,32.6-9.4c6.7-6.3,10.1-16.6,10.1-31.1V1057h38.3v73.6c0,28.4-6.4,49.1-19.2,62
		c-12.8,12.9-33.3,19.3-61.5,19.3c-28.6,0-49.3-6.4-62.1-19.1c-12.8-12.8-19.2-33.5-19.2-62.1V1057H5163L5163,1057z M5347.5,1205.7
		v-118.9h-29.3V1057h29.3v-56.3h38.3v56.3h29.3v29.8h-29.3v118.9H5347.5L5347.5,1205.7z M5609.3,1136.4h-133.9
		c1,13.9,5.6,24.7,14,32.6c8.3,7.8,19.5,11.7,33.4,11.7c12.4,0,22.7-2.3,30.9-6.9c8.2-4.6,15.4-12.1,21.6-22.3l32.3,16
		c-9.4,14.9-21.1,26.1-35,33.4c-13.9,7.3-30.2,11-48.9,11c-26.8,0-48.2-7.3-64.1-21.8c-15.9-14.6-23.9-34-23.9-58.2
		c0-23.4,8.2-42.5,24.7-57.5c16.4-15,37.5-22.5,63.3-22.5c26.9,0,48,6.9,63,20.6c15.1,13.7,22.6,32.9,22.6,57.6V1136.4
		L5609.3,1136.4z M5569.6,1113.4c-1.5-10.7-6.2-18.8-13.8-24.4c-7.7-5.6-18.1-8.4-31.4-8.4c-12.6,0-22.7,2.7-30.4,8.1
		c-7.7,5.5-13,13.7-16.1,24.6H5569.6L5569.6,1113.4z M5763.6,1205.7v-118.9h-29.3V1057h29.3v-39.9c0-19.8,4.6-34.3,13.9-43.8
		c9.2-9.4,23.6-14.1,43-14.1c4.2,0,8.4,0.3,12.7,0.8c4.4,0.5,8.8,1.3,13.3,2.5v30.7c-3.1-1.6-6.2-2.7-9.3-3.5
		c-3.1-0.8-6.3-1.2-9.4-1.2c-9.2,0-15.8,2.5-19.8,7.5c-4,5-6,13.5-6,25.4v35.5h40.3v29.8H5802v118.9H5763.6L5763.6,1205.7z
		 M6000.6,1131.8c0-13.8-5-25.5-15-35.1c-10-9.6-22.2-14.3-36.7-14.3c-14.4,0-26.6,4.8-36.6,14.3c-10.1,9.6-15.1,21.3-15.1,35.1
		c0,13.8,5.1,25.5,15.1,35.1c10.1,9.6,22.2,14.4,36.6,14.4c14.3,0,26.5-4.8,36.6-14.4C5995.5,1157.3,6000.6,1145.6,6000.6,1131.8
		L6000.6,1131.8z M5856.7,1131.5c0-10.9,2.3-21.2,7-30.8c4.6-9.7,11.3-18.3,20-25.8c8.6-7.4,18.5-13.1,29.7-17.1
		c11.2-4,22.8-5.9,35.1-5.9c12.6,0,24.4,2,35.6,5.9c11.2,4,21.1,9.9,30,17.6c8.8,7.7,15.6,16.3,20.1,25.9c4.6,9.6,6.9,19.7,6.9,30.3
		c0,11-2.3,21.3-6.8,30.9c-4.5,9.6-11.2,18.2-19.8,25.6c-9.2,7.8-19.4,13.8-30.6,17.8c-11.2,4-23,6.1-35.3,6.1
		c-12.2,0-23.8-2-35-6.1c-11.2-4-21.1-9.9-29.8-17.5c-8.8-7.8-15.5-16.5-20.1-26.1C5859,1152.6,5856.7,1142.4,5856.7,1131.5
		L5856.7,1131.5z M6119.9,1080.6c4.1-9.8,9.6-17.1,16.3-21.8c6.7-4.7,15.1-7.1,25.2-7.1c5.4,0,10.7,0.6,16,1.7
		c5.2,1.2,10.4,2.8,15.4,5l-13.8,28.9c-3.3-2.1-6.8-3.6-10.7-4.6c-3.8-1-8.1-1.5-12.8-1.5c-12.7,0-21.8,4.5-27.4,13.5
		c-5.5,9.1-8.3,24.3-8.3,45.6v65.3h-38.3v-149.1h38.3V1080.6L6119.9,1080.6z M6534.6,1031.9c-11.9-9-24.5-15.7-37.7-20.2
		c-13.3-4.5-27.2-6.8-41.8-6.8c-28.3,0-51.2,8-69,24.2c-17.7,16.1-26.6,37-26.6,62.6c0,24.8,8.6,45.3,25.9,61.4
		c17.2,16.1,39,24.2,65.3,24.2c15.2,0,29.8-2.4,43.7-7.2c13.8-4.8,27.1-12.1,39.8-21.8v42.2c-11.3,7.2-23.6,12.6-36.9,16.1
		c-13.3,3.6-27.7,5.4-43.3,5.4c-19.8,0-38-2.9-54.8-8.6c-16.7-5.8-31.5-14.2-44.2-25.4c-12.6-11-22.2-23.9-29-38.8
		c-6.8-14.9-10.1-30.8-10.1-47.6c0-16.9,3.4-32.7,10.1-47.5c6.8-14.8,16.6-27.8,29.4-39c12.8-11.3,27.5-19.9,44.2-25.7
		c16.6-5.8,34.5-8.7,53.8-8.7c15.2,0,29.7,2,43.4,5.9c13.7,3.9,27.1,9.9,40.1,17.8L6534.6,1031.9L6534.6,1031.9z M6628.7,1073.9h7.6
		c22.2,0,37-2.3,44.3-6.9c7.3-4.6,11-12.7,11-24.5c0-12.6-3.9-21.5-11.8-26.7c-7.8-5.2-22.4-7.8-43.5-7.8h-7.6V1073.9L6628.7,1073.9
		z M6626,1102.9v102.8h-39.4V976h58.6c17.2,0,30.6,1,40,3c9.5,2,17.5,5.2,24.3,9.9c8,5.6,14.2,12.7,18.6,21.5
		c4.3,8.8,6.5,18.4,6.5,28.9c0,18.4-5,32.8-15,43.2c-10,10.4-24.8,16.7-44.4,18.7l89,104.5h-47.5l-86-102.8H6626L6626,1102.9z
		 M6872.7,1007.7h68.3V976H6762v31.7h68.7v198h42V1007.7z"/>
</g>
</svg>
