<svg width="5580" height="1175" viewBox="0 0 5580 1175" fill="none" xmlns="http://www.w3.org/2000/svg">
<path fill-rule="evenodd" clip-rule="evenodd" d="M658.4 551.602C658.4 633.502 639.4 689.902 601.5 720.802C565.9 750.002 505.1 764.602 418.8 764.602H0.299805V0.101562H404C494.4 0.101562 556.6 16.1016 590.8 48.2016C623 78.1016 639.1 128.402 639.1 198.902C639.1 257.702 628 300.202 605.8 326.302C589.2 346.202 562 360.102 524.2 368.102V372.202C596.7 380.002 639.1 413.202 651.2 471.402C656.1 494.902 658.4 521.502 658.4 551.602ZM484.5 213.102C484.5 179.102 478.1 156.002 465.2 143.802C458.4 137.702 449.1 133.302 437.1 130.402C422.8 127.202 399.9 125.502 368.6 125.502H155V320.202H366.7C391.7 320.202 408.6 319.502 417 318.202C462 311.002 484.5 276.002 484.5 213.102ZM502.8 539.602C502.8 497.502 496 468.902 482.4 454.002C466.7 439.702 437.3 432.602 394.4 432.602H155V639.402H386C414.1 639.402 436.1 637.402 452.2 633.502C485.9 621.802 502.8 590.402 502.8 539.602ZM1424 227.202C1424 311.502 1412.2 367.402 1388.4 394.602C1366.6 419.402 1331 436.102 1281 444.602V447.702C1328.2 451.902 1364 467.202 1388.2 493.402C1407.7 522.802 1417.4 566.102 1417.4 623.002V764.702H1261.7V649.502C1261.7 593.802 1253.5 557.102 1237 539.602C1219.6 521.102 1186.5 511.902 1138.2 511.902H922.4V764.702H767.8V0.101562H1164C1268.5 0.101562 1339 19.5016 1375.5 58.0016C1407.9 92.2016 1424 148.702 1424 227.202ZM1268.3 251.002C1268.3 202.702 1262.2 170.102 1249.9 152.802C1234.2 134.602 1197.7 125.402 1140.4 125.402H922.5V386.402H1144.9C1192.3 386.402 1226.1 376.502 1245.8 357.002C1260.8 338.702 1268.3 303.202 1268.3 251.002ZM2243.8 764.702H2086.2L2034.6 620.802H1685.9L1634.2 764.702H1474.2L1742.6 0.101562H1969.1L2243.8 764.702ZM1998.1 509.802L1859.6 111.002L1858.7 111.202L1720.1 509.802H1998.1ZM2464 764.702H2308.3V0.101562H2464V764.702ZM3352.5 764.702H3093.8L2752.3 125.502H2746L2754.8 442.602L2758.9 764.802H2603.2V0.101562H2859.8L3205.5 639.302H3209.8L3196.9 0.101562H3352.6V764.702H3352.5Z" fill="#0177B5"/>
<path fill-rule="evenodd" clip-rule="evenodd" d="M4620.3 0.100006L4404.5 764.7H4180.1L4019 181.5H4015.1L3848.5 764.6H3626.3L3417.1 0H3572.9L3740.2 645.3H3744.5L3929 0.100006H4107.2L4287.5 645.4H4292L4465.7 0.100006H4620.3ZM4840.5 764.7H4684.8V0.100006H4840.5V764.7ZM5580 764.7H4935.7V641.2L5381.2 125.5H4957.2V0.100006H5573.4V125.5L5129 639.3H5580V764.7Z" fill="#00A651"/>
<path fill-rule="evenodd" clip-rule="evenodd" d="M32.5996 1104.5V874.8H74.5996V959.5H201.8V874.8H243.8V1104.5H201.8V992.9H74.5996V1104.5H32.5996ZM328.7 1174.5H289.3L335.2 1091.6L273.7 955.7H316.1L346.8 1032.7C348.6 1037.4 350.1 1042.2 351.5 1047.1C352.8 1052 353.9 1056.9 354.7 1061.9C356.2 1056.7 359.9 1048.4 365.6 1036.9L366.5 1035L407.8 955.6H449.3L328.7 1174.5ZM590.5 1029.6C590.5 1014.2 586.5 1002.3 578.4 993.7C570.3 985.1 559.1 980.8 544.6 980.8C530.1 980.8 518.7 985.2 510.4 994.1C502.2 1002.9 498 1015.2 498 1030.9C498 1046.7 502 1058.9 510 1067.5C518 1076.1 529.3 1080.4 543.9 1080.4C557.8 1080.4 569 1075.8 577.7 1066.5C586.1 1057.2 590.5 1045 590.5 1029.6ZM589.4 861.3H627.7V1104.5H589.4V1085.2C582.6 1093.8 574.6 1100.1 565.5 1104.3C556.4 1108.5 546 1110.6 534.2 1110.6C510.6 1110.6 492 1103.4 478.3 1089C464.7 1074.6 457.9 1054.9 457.9 1029.9C457.9 1006.2 464.8 987 478.8 972.4C492.7 957.8 510.8 950.5 533.2 950.5C546.8 950.5 558.5 953 568.2 958.1C577.9 963.2 585 970.5 589.5 980V861.3H589.4ZM841.9 1035.2H708C709 1049.1 713.6 1059.9 722 1067.8C730.3 1075.6 741.5 1079.5 755.4 1079.5C767.8 1079.5 778.1 1077.2 786.3 1072.6C794.5 1068 801.7 1060.5 807.9 1050.3L840.2 1066.3C830.8 1081.2 819.1 1092.4 805.2 1099.7C791.3 1107 775 1110.7 756.3 1110.7C729.5 1110.7 708.1 1103.4 692.2 1088.9C676.3 1074.3 668.3 1054.9 668.3 1030.7C668.3 1007.3 676.5 988.2 693 973.2C709.4 958.2 730.5 950.7 756.3 950.7C783.2 950.7 804.3 957.6 819.3 971.3C834.4 985 841.9 1004.2 841.9 1028.9V1035.2ZM802.2 1012.2C800.7 1001.5 796 993.4 788.4 987.8C780.7 982.2 770.3 979.4 757 979.4C744.4 979.4 734.3 982.1 726.6 987.5C718.9 993 713.6 1001.2 710.5 1012.1H802.2V1012.2ZM920.2 979.4C924.3 969.6 929.8 962.3 936.5 957.6C943.3 952.9 951.6 950.5 961.7 950.5C967.1 950.5 972.4 951.1 977.7 952.2C983 953.4 988.1 955 993.1 957.2L979.3 986.1C976 984 972.5 982.5 968.6 981.5C964.8 980.5 960.5 980 955.8 980C943.1 980 934 984.5 928.4 993.5C922.9 1002.6 920.1 1017.8 920.1 1039.1V1104.4H881.8V955.3H920.1V979.4H920.2ZM1172.4 1104.5H1134.1V1085.2C1127.3 1093.8 1119.3 1100.1 1110.2 1104.3C1101.1 1108.5 1090.7 1110.6 1078.9 1110.6C1055.3 1110.6 1036.7 1103.4 1023 1089C1009.4 1074.6 1002.6 1054.9 1002.6 1029.9C1002.6 1006.2 1009.5 987 1023.5 972.4C1037.4 957.8 1055.5 950.5 1077.9 950.5C1091.5 950.5 1103.2 953 1112.9 958.1C1122.6 963.2 1129.7 970.5 1134.2 980V955.8H1172.5V1104.5H1172.4ZM1135.2 1029.6C1135.2 1014.2 1131.2 1002.3 1123.1 993.7C1115 985.1 1103.8 980.8 1089.3 980.8C1074.8 980.8 1063.4 985.2 1055.1 994.1C1046.8 1002.9 1042.7 1015.2 1042.7 1030.9C1042.7 1046.7 1046.7 1058.9 1054.7 1067.5C1062.7 1076.1 1074 1080.4 1088.6 1080.4C1102.4 1080.4 1113.6 1075.7 1122.2 1066.4C1130.8 1057.1 1135.2 1044.9 1135.2 1029.6ZM1262.5 1029.6C1262.5 1044.8 1266.9 1057 1275.7 1066.3C1284.4 1075.6 1295.8 1080.3 1309.6 1080.3C1324.1 1080.3 1335.3 1076 1343.2 1067.4C1351.2 1058.8 1355.1 1046.6 1355.1 1030.8C1355.1 1015.1 1350.9 1002.8 1342.7 994C1334.4 985.2 1323 980.7 1308.5 980.7C1294 980.7 1282.7 985 1274.6 993.6C1266.6 1002.3 1262.5 1014.3 1262.5 1029.6ZM1263.7 861.3V980C1268.2 970.6 1275.3 963.3 1285.2 958.2C1295 953.1 1306.8 950.5 1320.4 950.5C1342.6 950.5 1360.7 957.8 1374.5 972.4C1388.3 987 1395.2 1006.1 1395.2 1029.9C1395.2 1054.9 1388.4 1074.6 1374.8 1089C1361.2 1103.4 1342.6 1110.6 1318.9 1110.6C1307.1 1110.6 1296.7 1108.5 1287.6 1104.3C1278.5 1100.1 1270.5 1093.7 1263.7 1085.2V1104.5H1225.4V861.3H1263.7ZM1593.3 1104.5H1555V1085.2C1548.2 1093.8 1540.2 1100.1 1531.1 1104.3C1522 1108.5 1511.6 1110.6 1499.8 1110.6C1476.2 1110.6 1457.6 1103.4 1443.9 1089C1430.3 1074.6 1423.5 1054.9 1423.5 1029.9C1423.5 1006.2 1430.4 987 1444.4 972.4C1458.3 957.8 1476.4 950.5 1498.8 950.5C1512.4 950.5 1524.1 953 1533.8 958.1C1543.5 963.2 1550.6 970.5 1555.1 980V955.8H1593.4V1104.5H1593.3ZM1556.1 1029.6C1556.1 1014.2 1552.1 1002.3 1544 993.7C1535.9 985.1 1524.7 980.8 1510.2 980.8C1495.7 980.8 1484.3 985.2 1476 994.1C1467.8 1002.9 1463.6 1015.2 1463.6 1030.9C1463.6 1046.7 1467.6 1058.9 1475.6 1067.5C1483.6 1076.1 1494.9 1080.4 1509.5 1080.4C1523.3 1080.4 1534.5 1075.7 1543.1 1066.4C1551.8 1057.1 1556.1 1044.9 1556.1 1029.6ZM1766.6 1029.6C1766.6 1014.2 1762.6 1002.3 1754.5 993.7C1746.4 985.1 1735.2 980.8 1720.7 980.8C1706.2 980.8 1694.9 985.2 1686.5 994.1C1678.3 1002.9 1674.1 1015.2 1674.1 1030.9C1674.1 1046.7 1678.1 1058.9 1686.1 1067.5C1694.1 1076.1 1705.4 1080.4 1720 1080.4C1733.9 1080.4 1745.1 1075.8 1753.7 1066.5C1762.2 1057.2 1766.6 1045 1766.6 1029.6ZM1765.5 861.3H1803.8V1104.5H1765.5V1085.2C1758.7 1093.8 1750.7 1100.1 1741.6 1104.3C1732.5 1108.5 1722.1 1110.6 1710.3 1110.6C1686.7 1110.6 1668.1 1103.4 1654.4 1089C1640.8 1074.6 1634 1054.9 1634 1029.9C1634 1006.2 1640.9 987 1654.9 972.4C1668.8 957.8 1686.9 950.5 1709.3 950.5C1722.9 950.5 1734.6 953 1744.3 958.1C1754 963.2 1761.1 970.5 1765.6 980V861.3H1765.5ZM1845.5 879.2H1874.4V966.6H1845.5V879.2ZM1896.6 1077.5L1928.4 1062.1C1930.7 1069.6 1935.1 1075.2 1941.5 1079.1C1947.9 1083 1956 1084.9 1966.1 1084.9C1974.7 1084.9 1981.4 1083.1 1986.3 1079.7C1991.2 1076.2 1993.7 1071.4 1993.7 1065.3C1993.7 1057.2 1985 1050.3 1967.6 1044.6C1961.7 1042.7 1957.2 1041.2 1954 1039.9C1936.1 1033.3 1923.6 1026.6 1916.5 1019.8C1909.4 1013 1905.8 1004.8 1905.8 995C1905.8 981.7 1911.6 970.9 1923.4 962.6C1935.1 954.4 1950.6 950.2 1969.9 950.2C1982.9 950.2 1994 952.3 2003.2 956.6C2012.4 960.8 2019.2 966.8 2023.4 974.7L1996.2 991.4C1994.2 986.7 1990.7 982.9 1985.7 980.1C1980.7 977.3 1974.9 975.9 1968.3 975.9C1961 975.9 1955.2 977.5 1950.8 980.6C1946.4 983.7 1944.2 987.8 1944.2 992.9C1944.2 1000.6 1954.1 1007.7 1973.9 1014.1C1980.2 1016.1 1985 1017.7 1988.4 1019C2003.8 1024.4 2014.9 1030.6 2021.5 1037.4C2028.2 1044.3 2031.5 1052.8 2031.5 1063.1C2031.5 1077.9 2025.4 1089.6 2013.3 1098C2001.2 1106.4 1984.5 1110.6 1963.2 1110.6C1946.8 1110.6 1933.2 1107.9 1922.4 1102.5C1911.1 1097 1902.7 1088.7 1896.6 1077.5ZM2223.3 971.8H2239.3C2259.3 971.8 2273.5 969.4 2281.8 964.5C2290.1 959.6 2294.2 951.4 2294.2 939.9C2294.2 927.4 2290.4 918.5 2282.8 913.4C2275.1 908.3 2260.7 905.8 2239.3 905.8H2223.3V971.8ZM2223.3 1073.3H2237.8C2252.5 1073.3 2263.5 1072.8 2270.8 1071.7C2278.1 1070.6 2283.8 1068.8 2288.1 1066.2C2293.3 1063.2 2297.3 1059.1 2300.1 1054C2302.9 1048.9 2304.3 1043.2 2304.3 1037C2304.3 1029.7 2302.6 1023.3 2299.2 1017.9C2295.8 1012.4 2290.9 1008.2 2284.6 1005.2C2280.6 1003.4 2276 1002.1 2270.9 1001.2C2265.8 1000.4 2259 1000 2250.5 1000H2237.8H2223.3V1073.3ZM2182.1 1104.5V874.8H2247.3C2265.9 874.8 2279.7 875.7 2288.5 877.5C2297.4 879.3 2304.9 882.2 2311.2 886.3C2319.2 891.6 2325.4 898.4 2329.8 906.9C2334.2 915.4 2336.4 924.7 2336.4 935C2336.4 947.3 2333.2 957.5 2326.9 965.7C2320.5 973.9 2311.3 979.6 2299.2 982.9C2314.3 985 2326.1 991.1 2334.8 1001.2C2343.4 1011.3 2347.8 1024 2347.8 1039.4C2347.8 1048.7 2346 1057.6 2342.3 1065.9C2338.7 1074.3 2333.5 1081.4 2326.7 1087.3C2319.6 1093.7 2310.9 1098.2 2300.4 1100.8C2289.9 1103.4 2272.3 1104.7 2247.6 1104.7H2182.1V1104.5ZM2548.5 1035.2H2414.6C2415.6 1049.1 2420.2 1059.9 2428.6 1067.8C2436.9 1075.6 2448.1 1079.5 2462 1079.5C2474.4 1079.5 2484.7 1077.2 2492.9 1072.6C2501.2 1068 2508.3 1060.5 2514.5 1050.3L2546.8 1066.3C2537.4 1081.2 2525.7 1092.4 2511.8 1099.7C2497.9 1107 2481.6 1110.7 2462.9 1110.7C2436.1 1110.7 2414.7 1103.4 2398.8 1088.9C2382.9 1074.3 2374.9 1054.9 2374.9 1030.7C2374.9 1007.3 2383.1 988.2 2399.6 973.2C2416 958.2 2437.1 950.7 2462.9 950.7C2489.8 950.7 2510.9 957.6 2525.9 971.3C2541 985 2548.5 1004.2 2548.5 1028.9V1035.2ZM2508.8 1012.2C2507.3 1001.5 2502.7 993.4 2495 987.8C2487.3 982.2 2476.9 979.4 2463.6 979.4C2451 979.4 2440.9 982.1 2433.2 987.5C2425.5 993 2420.2 1001.2 2417.1 1012.1H2508.8V1012.2ZM2569.2 1077.5L2601 1062.1C2603.3 1069.6 2607.7 1075.2 2614.1 1079.1C2620.5 1083 2628.6 1084.9 2638.7 1084.9C2647.3 1084.9 2654 1083.1 2658.9 1079.7C2663.8 1076.2 2666.2 1071.4 2666.2 1065.3C2666.2 1057.2 2657.5 1050.3 2640.1 1044.6C2634.2 1042.7 2629.7 1041.2 2626.5 1039.9C2608.6 1033.3 2596.1 1026.6 2589 1019.8C2581.9 1013 2578.3 1004.8 2578.3 995C2578.3 981.7 2584.1 970.9 2595.9 962.6C2607.6 954.4 2623.1 950.2 2642.4 950.2C2655.4 950.2 2666.4 952.3 2675.7 956.6C2684.9 960.8 2691.7 966.8 2695.9 974.7L2668.7 991.4C2666.7 986.7 2663.2 982.9 2658.2 980.1C2653.2 977.3 2647.4 975.9 2640.8 975.9C2633.5 975.9 2627.7 977.5 2623.3 980.6C2618.9 983.7 2616.7 987.8 2616.7 992.9C2616.7 1000.6 2626.6 1007.7 2646.4 1014.1C2652.7 1016.1 2657.5 1017.7 2660.9 1019C2676.3 1024.4 2687.4 1030.6 2694 1037.4C2700.7 1044.3 2704 1052.8 2704 1063.1C2704 1077.9 2697.9 1089.6 2685.8 1098C2673.7 1106.4 2657 1110.6 2635.7 1110.6C2619.3 1110.6 2605.7 1107.9 2594.9 1102.5C2583.7 1097 2575.3 1088.7 2569.2 1077.5ZM2751.4 1104.5V985.6H2722.1V955.8H2751.4V899.5H2789.7V955.8H2819V985.6H2789.7V1104.5H2751.4ZM2965.1 1104.5V874.8H3007.1V1104.5H2965.1ZM3064.3 1104.5V955.8H3100.3V980.1C3108 969.8 3116.9 962.4 3127.3 957.7C3137.7 953 3150.3 950.6 3165.1 950.6C3177.6 950.6 3188.2 952.4 3197 955.9C3205.7 959.4 3212.6 964.6 3217.6 971.5C3220.6 975.6 3222.7 980.3 3224 985.7C3225.3 991.2 3225.9 1000.7 3225.9 1014.2V1104.5H3187.2V1028.1C3187.2 1008.6 3184.6 995.5 3179.2 989.1C3173.8 982.7 3164.3 979.5 3150.7 979.5C3141.7 979.5 3133.8 981 3126.8 983.9C3119.8 986.8 3114.3 991 3110.3 996.3C3107.5 999.9 3105.5 1004.4 3104.4 1010.1C3103.3 1015.7 3102.7 1024.6 3102.7 1036.8V1104.6H3064.3V1104.5ZM3257.6 1077.5L3289.4 1062.1C3291.7 1069.6 3296.1 1075.2 3302.5 1079.1C3308.9 1083 3317 1084.9 3327.1 1084.9C3335.7 1084.9 3342.4 1083.1 3347.3 1079.7C3352.2 1076.2 3354.6 1071.4 3354.6 1065.3C3354.6 1057.2 3345.9 1050.3 3328.5 1044.6C3322.6 1042.7 3318.1 1041.2 3314.9 1039.9C3297 1033.3 3284.5 1026.6 3277.4 1019.8C3270.3 1013 3266.7 1004.8 3266.7 995C3266.7 981.7 3272.5 970.9 3284.3 962.6C3296 954.4 3311.5 950.2 3330.8 950.2C3343.8 950.2 3354.8 952.3 3364.1 956.6C3373.3 960.8 3380.1 966.8 3384.3 974.7L3357.1 991.4C3355.1 986.7 3351.6 982.9 3346.6 980.1C3341.6 977.3 3335.8 975.9 3329.2 975.9C3321.9 975.9 3316.1 977.5 3311.7 980.6C3307.3 983.7 3305.1 987.8 3305.1 992.9C3305.1 1000.6 3315 1007.7 3334.8 1014.1C3341.1 1016.1 3345.9 1017.7 3349.3 1019C3364.7 1024.4 3375.8 1030.6 3382.4 1037.4C3389.1 1044.3 3392.4 1052.8 3392.4 1063.1C3392.4 1077.9 3386.3 1089.6 3374.2 1098C3362.1 1106.4 3345.4 1110.6 3324.1 1110.6C3307.7 1110.6 3294.1 1107.9 3283.3 1102.5C3272.2 1097 3263.8 1088.7 3257.6 1077.5ZM3439.9 1104.5V985.6H3410.6V955.8H3439.9V899.5H3478.2V955.8H3507.5V985.6H3478.2V1104.5H3439.9ZM3537.1 891.4C3537.1 885.6 3539.5 880.6 3544.3 876.5C3549.1 872.3 3554.7 870.2 3561.3 870.2C3568.2 870.2 3573.8 872.2 3578.4 876.3C3582.9 880.3 3585.2 885.4 3585.2 891.5C3585.2 897.6 3582.9 902.6 3578.3 906.8C3573.7 910.9 3568.1 913 3561.3 913C3554.7 913 3549.1 910.9 3544.3 906.6C3539.5 902.3 3537.1 897.3 3537.1 891.4ZM3542.3 1104.5V955.8H3580.6V1104.5H3542.3ZM3644.3 1104.5V985.6H3615V955.8H3644.3V899.5H3682.6V955.8H3711.9V985.6H3682.6V1104.5H3644.3ZM3782 955.8V1039.6C3782 1054.1 3785.4 1064.4 3792.1 1070.7C3798.8 1077 3809.7 1080.1 3824.8 1080.1C3839.8 1080.1 3850.7 1076.9 3857.4 1070.7C3864.1 1064.4 3867.5 1054.1 3867.5 1039.6V955.8H3905.8V1029.4C3905.8 1057.8 3899.4 1078.5 3886.6 1091.4C3873.8 1104.3 3853.3 1110.7 3825.1 1110.7C3796.5 1110.7 3775.8 1104.3 3763 1091.6C3750.2 1078.8 3743.8 1058.1 3743.8 1029.5V955.8H3782ZM3966.5 1104.5V985.6H3937.2V955.8H3966.5V899.5H4004.8V955.8H4034.1V985.6H4004.8V1104.5H3966.5ZM4228.3 1035.2H4094.4C4095.4 1049.1 4100 1059.9 4108.4 1067.8C4116.7 1075.6 4127.9 1079.5 4141.8 1079.5C4154.2 1079.5 4164.5 1077.2 4172.7 1072.6C4180.9 1068 4188.1 1060.5 4194.3 1050.3L4226.6 1066.3C4217.2 1081.2 4205.5 1092.4 4191.6 1099.7C4177.7 1107 4161.4 1110.7 4142.7 1110.7C4115.9 1110.7 4094.5 1103.4 4078.6 1088.9C4062.7 1074.3 4054.7 1054.9 4054.7 1030.7C4054.7 1007.3 4062.9 988.2 4079.4 973.2C4095.8 958.2 4116.9 950.7 4142.7 950.7C4169.6 950.7 4190.7 957.6 4205.7 971.3C4220.8 985 4228.3 1004.2 4228.3 1028.9V1035.2ZM4188.6 1012.2C4187.1 1001.5 4182.4 993.4 4174.8 987.8C4167.1 982.2 4156.7 979.4 4143.4 979.4C4130.8 979.4 4120.7 982.1 4113 987.5C4105.3 993 4100 1001.2 4096.9 1012.1H4188.6V1012.2ZM4382.6 1104.5V985.6H4353.3V955.8H4382.6V915.9C4382.6 896.1 4387.2 881.6 4396.5 872.1C4405.7 862.7 4420.1 858 4439.5 858C4443.7 858 4447.9 858.3 4452.2 858.8C4456.6 859.3 4461 860.1 4465.5 861.3V892C4462.4 890.4 4459.3 889.3 4456.2 888.5C4453.1 887.7 4449.9 887.3 4446.8 887.3C4437.6 887.3 4431 889.8 4427 894.8C4423 899.8 4421 908.3 4421 920.2V955.7H4461.3V985.5H4421V1104.4H4382.6V1104.5ZM4619.6 1030.6C4619.6 1016.8 4614.6 1005.1 4604.6 995.5C4594.6 985.9 4582.4 981.2 4567.9 981.2C4553.5 981.2 4541.3 986 4531.3 995.5C4521.2 1005.1 4516.2 1016.8 4516.2 1030.6C4516.2 1044.4 4521.3 1056.1 4531.3 1065.7C4541.4 1075.3 4553.5 1080.1 4567.9 1080.1C4582.2 1080.1 4594.4 1075.3 4604.5 1065.7C4614.5 1056.1 4619.6 1044.4 4619.6 1030.6ZM4475.7 1030.3C4475.7 1019.4 4478 1009.1 4482.7 999.5C4487.3 989.8 4494 981.2 4502.7 973.7C4511.3 966.3 4521.2 960.6 4532.4 956.6C4543.6 952.6 4555.2 950.7 4567.5 950.7C4580.1 950.7 4591.9 952.7 4603.1 956.6C4614.3 960.6 4624.2 966.5 4633.1 974.2C4641.9 981.9 4648.7 990.5 4653.2 1000.1C4657.8 1009.7 4660.1 1019.8 4660.1 1030.4C4660.1 1041.4 4657.8 1051.7 4653.3 1061.3C4648.8 1070.9 4642.1 1079.5 4633.5 1086.9C4624.3 1094.7 4614.1 1100.7 4602.9 1104.7C4591.7 1108.7 4579.9 1110.8 4567.6 1110.8C4555.4 1110.8 4543.8 1108.8 4532.6 1104.7C4521.4 1100.7 4511.5 1094.8 4502.8 1087.2C4494 1079.4 4487.3 1070.7 4482.7 1061.1C4478 1051.4 4475.7 1041.2 4475.7 1030.3ZM4738.9 979.4C4743 969.6 4748.5 962.3 4755.2 957.6C4761.9 952.9 4770.3 950.5 4780.4 950.5C4785.8 950.5 4791.1 951.1 4796.4 952.2C4801.6 953.4 4806.8 955 4811.8 957.2L4798 986.1C4794.7 984 4791.2 982.5 4787.3 981.5C4783.5 980.5 4779.2 980 4774.5 980C4761.8 980 4752.7 984.5 4747.1 993.5C4741.6 1002.6 4738.8 1017.8 4738.8 1039.1V1104.4H4700.5V955.3H4738.8V979.4H4738.9ZM5153.6 930.7C5141.7 921.7 5129.1 915 5115.9 910.5C5102.6 906 5088.7 903.7 5074.1 903.7C5045.8 903.7 5022.9 911.7 5005.1 927.9C4987.4 944 4978.5 964.9 4978.5 990.5C4978.5 1015.3 4987.1 1035.8 5004.4 1051.9C5021.6 1068 5043.4 1076.1 5069.7 1076.1C5084.9 1076.1 5099.5 1073.7 5113.4 1068.9C5127.2 1064.1 5140.5 1056.8 5153.2 1047.1V1089.3C5141.9 1096.5 5129.6 1101.9 5116.3 1105.4C5103 1109 5088.6 1110.8 5073 1110.8C5053.2 1110.8 5035 1107.9 5018.2 1102.2C5001.5 1096.4 4986.7 1088 4974 1076.8C4961.4 1065.8 4951.8 1052.9 4945 1038C4938.2 1023.1 4934.9 1007.2 4934.9 990.4C4934.9 973.5 4938.3 957.7 4945 942.9C4951.8 928.1 4961.6 915.1 4974.4 903.9C4987.2 892.6 5001.9 884 5018.6 878.2C5035.2 872.4 5053.1 869.5 5072.4 869.5C5087.6 869.5 5102.1 871.5 5115.8 875.4C5129.5 879.3 5142.9 885.3 5155.9 893.2L5153.6 930.7ZM5247.7 972.7H5255.3C5277.5 972.7 5292.3 970.4 5299.6 965.8C5306.9 961.2 5310.6 953.1 5310.6 941.3C5310.6 928.7 5306.7 919.8 5298.8 914.6C5291 909.4 5276.4 906.8 5255.3 906.8H5247.7V972.7ZM5245 1001.7V1104.5H5205.6V874.8H5264.2C5281.4 874.8 5294.8 875.8 5304.2 877.8C5313.7 879.8 5321.7 883 5328.5 887.7C5336.5 893.3 5342.7 900.4 5347.1 909.2C5351.4 918 5353.6 927.6 5353.6 938.1C5353.6 956.5 5348.6 970.9 5338.6 981.3C5328.6 991.7 5313.8 998 5294.2 1000L5383.2 1104.5H5335.7L5249.7 1001.7H5245ZM5491.7 906.5H5560V874.8H5381V906.5H5449.7V1104.5H5491.7V906.5Z" fill="#0177B5"/>
</svg>
