<?xml version="1.0" encoding="utf-8"?>
<!-- Generator: Adobe Illustrator 27.5.0, SVG Export Plug-In . SVG Version: 6.00 Build 0)  -->
<svg version="1.1" xmlns="http://www.w3.org/2000/svg" xmlns:xlink="http://www.w3.org/1999/xlink" x="0px" y="0px"
	 viewBox="0 0 3710 3710" style="enable-background:new 0 0 3710 3710;" xml:space="preserve">
 
<g id="Illustration">
	<g>
		<linearGradient id="SVGID_1_" gradientUnits="userSpaceOnUse" x1="3344.2283" y1="3527.0977" x2="1364.6781" y2="1390.4402">
			<stop  offset="0" style="stop-color:#B37CFF"/>
			<stop  offset="1" style="stop-color:#F895E7"/>
		</linearGradient>
		<path style="opacity:0.3;fill:url(#SVGID_1_);" d="M3068.365,2309.497c-272.005,635.779-990.009,908.861-1552.577,862.3
			c-153.604-12.713-462.658-38.292-703.971-266.493c-463.423-438.246-392.052-1354.3,51.577-1893.623
			c57.13-69.453,452.578-534.785,1068.808-528.557c451.171,4.561,767.843,259.421,806.349,291.171
			c48.643,40.11,155.932,135.423,252.624,286.632C3218.37,1416.215,3238.341,1912.198,3068.365,2309.497z"/>
		<g>
			<g>
				
					<linearGradient id="SVGID_00000073715585328292898630000012788283876315163266_" gradientUnits="userSpaceOnUse" x1="2049.2603" y1="2649.7385" x2="3300.8005" y2="1789.6495" gradientTransform="matrix(0.2342 -0.9722 0.9722 0.2342 -89.7886 4295.2822)">
					<stop  offset="0" style="stop-color:#CB236D"/>
					<stop  offset="1" style="stop-color:#4C246D"/>
				</linearGradient>
				<path style="fill:url(#SVGID_00000073715585328292898630000012788283876315163266_);" d="M2625.973,2960.398
					c0,0-208.02-640.01-150.67-964.219c51.182-289.339,150.561-691.726,171.345-774.934c1.423-5.695,9.072-6.749,11.966-1.642
					c47.357,83.568,280.429,538.185,105.583,1113.91C2570.356,2971.781,2625.973,2960.398,2625.973,2960.398z"/>
				<path style="opacity:0.43;fill:#FFFFFF;" d="M2680.975,1428.451c1.907,95.421-0.767,190.75-6.023,285.966
					c-5.309,95.207-13.987,190.238-26.191,284.844c-6.221,47.288-13.458,94.445-21.625,141.451
					c-8.359,46.975-17.929,93.736-28.601,140.261c-11.049,46.439-23.312,92.601-37.246,138.296
					c-14.275,45.59-30.175,90.688-48.193,134.997c-1.082,2.659-4.115,3.939-6.775,2.857c-2.66-1.082-3.939-4.115-2.858-6.774
					l0.009-0.021l0.021-0.051c18.069-43.89,34.066-88.632,48.461-133.909c14.057-45.389,26.465-91.29,37.673-137.497
					c10.831-46.299,20.573-92.86,29.111-139.66c8.346-46.833,15.771-93.836,22.183-140.989
					c12.588-94.337,21.664-189.16,27.379-284.194c5.663-95.011,8.746-190.302,7.259-285.422l-0.001-0.057
					c-0.023-1.496,1.17-2.728,2.666-2.751C2679.719,1425.773,2680.951,1426.955,2680.975,1428.451z"/>
			</g>
			<g>
				
					<linearGradient id="SVGID_00000183966881479488968080000012574949595079643579_" gradientUnits="userSpaceOnUse" x1="2595.2473" y1="4154.7397" x2="3846.7747" y2="3294.6594" gradientTransform="matrix(0.5728 -0.8197 0.8197 0.5728 -1983.7446 2936.4121)">
					<stop  offset="0" style="stop-color:#A737D5"/>
					<stop  offset="1" style="stop-color:#EF497A"/>
				</linearGradient>
				<path style="fill:url(#SVGID_00000183966881479488968080000012574949595079643579_);" d="M2578.19,3099.066
					c0,0,39.89-671.784,211.601-952.704c153.243-250.706,392.614-589.074,442.331-658.958c3.403-4.783,10.909-2.973,11.74,2.838
					c13.594,95.087,64.685,603.407-308.207,1075.617C2522.254,3089.366,2578.19,3099.066,2578.19,3099.066z"/>
				<path style="opacity:0.43;fill:#FFFFFF;" d="M3188.463,1692.846c-33.047,89.536-70.326,177.316-109.968,264.046
					c-39.688,86.704-82.446,172.014-128.334,255.641c-23.049,41.757-46.998,83.02-71.755,123.803
					c-24.925,40.685-50.9,80.728-77.814,120.15c-27.236,39.204-55.498,77.707-85.148,115.165
					c-29.927,37.237-61.189,73.422-94.134,108.099c-1.978,2.082-5.269,2.167-7.351,0.188c-2.082-1.978-2.166-5.268-0.188-7.351
					l0.016-0.016l0.039-0.04c32.839-34.269,64.061-70.088,93.987-106.989c29.653-37.13,57.955-75.336,85.253-114.266
					c26.98-39.153,53.042-78.948,78.071-119.404c24.862-40.557,48.927-81.609,72.106-123.17
					c46.146-83.236,89.2-168.208,129.203-254.602c39.945-86.392,77.591-173.985,110.919-263.088l0.02-0.054
					c0.524-1.401,2.086-2.113,3.487-1.589C3188.271,1689.895,3188.986,1691.444,3188.463,1692.846z"/>
			</g>
		</g>
		<g>
			<g>
				
					<linearGradient id="SVGID_00000183234624881969917110000007646956328176557493_" gradientUnits="userSpaceOnUse" x1="-797.9789" y1="3519.7605" x2="66.8807" y2="3519.7605" gradientTransform="matrix(-0.1683 -1.306 0.9918 -0.1278 -2447.21 2100.6184)">
					<stop  offset="0" style="stop-color:#A737D5"/>
					<stop  offset="1" style="stop-color:#EF497A"/>
				</linearGradient>
				<path style="fill:url(#SVGID_00000183234624881969917110000007646956328176557493_);" d="M457.197,1391.524
					c61.991,178.05,454.225,1197.923,1229.841,956.168c0,0-130.085-746.129-1217.522-977.911
					C460.003,1367.754,453.148,1379.892,457.197,1391.524z"/>
				<path style="opacity:0.43;fill:#FFFFFF;" d="M589.728,1490.937c33.214,45.271,68.193,89.346,103.862,132.768
					c35.74,43.383,72.417,85.991,110.019,127.762c75.224,83.505,154.107,163.777,237.638,238.905
					c83.563,74.992,171.783,145.147,266.747,204.901c23.778,14.848,47.888,29.167,72.543,42.472
					c24.662,13.284,49.757,25.743,75.314,37.143c51.142,22.669,104.331,40.859,159.007,52.03l0.036,0.007
					c2.813,0.575,4.628,3.322,4.053,6.135c-0.575,2.813-3.321,4.628-6.134,4.053l-0.023-0.005
					c-55.546-11.604-109.318-30.286-160.872-53.409c-25.76-11.629-51.018-24.308-75.815-37.808
					c-24.788-13.52-48.998-28.043-72.857-43.091c-95.277-60.546-183.492-131.36-266.959-206.934
					c-83.43-75.711-162.102-156.488-237.074-240.459c-37.475-42.004-74.014-84.835-109.608-128.435
					c-35.537-43.656-70.325-87.887-103.456-133.468c-0.715-0.984-0.498-2.361,0.486-3.077c0.983-0.715,2.361-0.497,3.076,0.487
					L589.728,1490.937z"/>
			</g>
			<g>
				
					<linearGradient id="SVGID_00000082333112153348087710000006141987536593129631_" gradientUnits="userSpaceOnUse" x1="1037.5175" y1="1333.5957" x2="1890.9575" y2="1333.5957" gradientTransform="matrix(-0.9989 0.0502 0.0502 0.9989 2613.1455 -0.9473)">
					<stop  offset="0" style="stop-color:#A737D5"/>
					<stop  offset="1" style="stop-color:#EF497A"/>
				</linearGradient>
				<path style="fill:url(#SVGID_00000082333112153348087710000006141987536593129631_);" d="M1043.536,470.767
					c2.401-15.839,17.192-12.743,29.76-2.81c688.129,543.786,958.955,1564.703,781.033,1857.919
					C1854.329,2325.876,782.029,2196.513,1043.536,470.767z"/>
				<path style="opacity:0.43;fill:#FFFFFF;" d="M1090.454,681.094c0.672,3.839,1.724,8.135,2.641,12.257l2.997,12.454l6.275,24.855
					c4.277,16.55,8.732,33.055,13.231,49.548c9.095,32.96,18.599,65.805,28.403,98.559c19.531,65.53,40.295,130.69,62.323,195.413
					c44.27,129.36,92.627,257.358,147.413,382.594c27.632,62.495,55.884,124.738,86.568,185.794
					c3.708,7.696,7.603,15.296,11.552,22.869l11.758,22.764l11.757,22.764c3.976,7.557,8.136,15.015,12.195,22.528
					c8.219,14.97,16.214,30.068,24.616,44.934l25.486,44.445c2.132,3.698,4.2,7.437,6.385,11.104l6.632,10.956l13.264,21.914
					l13.265,21.916c4.512,7.248,9.215,14.375,13.814,21.569l13.87,21.537c4.684,7.137,9.102,14.457,14.046,21.419l29.036,42.208
					c39.419,55.785,81.505,109.676,126.609,161.057l0.013,0.015c0.616,0.702,0.546,1.771-0.155,2.386
					c-0.691,0.606-1.739,0.547-2.359-0.125c-46.444-50.384-89.343-103.951-129.806-159.268l-29.563-42.056
					c-5.033-6.94-9.538-14.232-14.311-21.347l-14.136-21.466c-4.687-7.171-9.48-14.278-14.08-21.504l-13.532-21.85l-13.532-21.853
					l-6.766-10.928c-2.231-3.657-4.342-7.384-6.518-11.074c-69.686-118.061-130.88-240.977-185.479-366.627l-20.228-47.23
					l-19.514-47.526c-6.613-15.799-12.668-31.819-19.015-47.724l-9.417-23.898l-9.101-24.019
					c-24.379-64.005-47.444-128.512-68.823-193.571c-21.438-65.037-41.859-130.412-60.57-196.279
					c-9.308-32.947-18.313-65.978-26.906-99.116c-4.248-16.583-8.452-33.177-12.478-49.816l-5.9-24.998l-2.813-12.539
					c-0.859-4.243-1.837-8.263-2.524-12.872c-0.136-0.917,0.495-1.771,1.413-1.907c0.902-0.135,1.743,0.476,1.9,1.368
					L1090.454,681.094z"/>
			</g>
		</g>
		<g>
			<g>
				<g>
					
						<linearGradient id="SVGID_00000163036351357742403090000007211224430383906235_" gradientUnits="userSpaceOnUse" x1="10253.2461" y1="2790.99" x2="8435.7529" y2="3969.179" gradientTransform="matrix(-1 0 0 1 11862.3076 0)">
						<stop  offset="0" style="stop-color:#53D8FF"/>
						<stop  offset="1" style="stop-color:#3840F7"/>
					</linearGradient>
					<path style="fill:url(#SVGID_00000163036351357742403090000007211224430383906235_);" d="M901.498,3166.052l1965.444,0.002
						v-393.383l-1965.444,0.003C943.567,2772.674,943.567,3166.052,901.498,3166.052z"/>
					
						<linearGradient id="SVGID_00000075852812034119600410000005470626046221881734_" gradientUnits="userSpaceOnUse" x1="1808.2449" y1="3075.1213" x2="3285.7598" y2="1368.6976">
						<stop  offset="0" style="stop-color:#CB236D"/>
						<stop  offset="1" style="stop-color:#4C246D"/>
					</linearGradient>
					<path style="fill:url(#SVGID_00000075852812034119600410000005470626046221881734_);" d="M2866.942,3067.612v-180.029
						c0-63.463-38.841-114.909-86.753-114.909H909.786c-37.679,0-68.223-30.544-68.223-68.223v-0.001
						c0-11.448,9.281-20.728,20.728-20.728h2044.205c46.88,0,121.311,73.706,121.311,164.628v251.431
						c0,85.725-72.259,155.219-116.459,155.219H873.045c-17.386,0-31.482-14.095-31.482-31.482
						c0-31.738,25.729-57.467,57.466-57.467h1893.595C2833.668,3166.052,2866.942,3121.979,2866.942,3067.612z"/>
				</g>
				<path style="fill:#FFFFFF;" d="M2812.431,2856.768H969.56c-1.868,0-3.382-1.514-3.382-3.382c0-1.868,1.514-3.382,3.382-3.382
					h1842.87c1.868,0,3.382,1.514,3.382,3.382C2815.813,2855.254,2814.299,2856.768,2812.431,2856.768z"/>
				<path style="fill:#FFFFFF;" d="M2812.431,2915.157H969.56c-1.868,0-3.382-1.514-3.382-3.382c0-1.868,1.514-3.382,3.382-3.382
					h1842.87c1.868,0,3.382,1.514,3.382,3.382C2815.813,2913.643,2814.299,2915.157,2812.431,2915.157z"/>
				<path style="fill:#FFFFFF;" d="M2812.431,2973.549H969.56c-1.868,0-3.382-1.514-3.382-3.382c0-1.868,1.514-3.382,3.382-3.382
					h1842.87c1.868,0,3.382,1.514,3.382,3.382C2815.813,2972.035,2814.299,2973.549,2812.431,2973.549z"/>
				<path style="fill:#FFFFFF;" d="M2812.431,3031.939H969.56c-1.868,0-3.382-1.514-3.382-3.382c0-1.868,1.514-3.382,3.382-3.382
					h1842.87c1.868,0,3.382,1.514,3.382,3.382C2815.813,3030.425,2814.299,3031.939,2812.431,3031.939z"/>
				<path style="fill:#FFFFFF;" d="M2812.431,3090.33H969.56c-1.868,0-3.382-1.514-3.382-3.382c0-1.868,1.514-3.382,3.382-3.382
					h1842.87c1.868,0,3.382,1.514,3.382,3.382C2815.813,3088.815,2814.299,3090.33,2812.431,3090.33z"/>
			</g>
			<g>
				
					<linearGradient id="SVGID_00000142158863414123539140000014990592601081320117_" gradientUnits="userSpaceOnUse" x1="3009.9658" y1="557.0141" x2="1970.2201" y2="2486.4419">
					<stop  offset="0" style="stop-color:#53D8FF"/>
					<stop  offset="1" style="stop-color:#3840F7"/>
				</linearGradient>
				<path style="fill:url(#SVGID_00000142158863414123539140000014990592601081320117_);" d="M1115.73,2681.933h1728.333
					c11.098,0,20.095-8.997,20.095-20.095v-386.704c0-11.098-8.997-20.095-20.095-20.095H1115.73
					c-11.098,0-20.095,8.997-20.095,20.095v386.704C1095.635,2672.936,1104.632,2681.933,1115.73,2681.933z"/>
				
					<linearGradient id="SVGID_00000002351300345408013680000000320268666612961973_" gradientUnits="userSpaceOnUse" x1="3427.2915" y1="1400.7412" x2="1653.05" y2="3586.0869">
					<stop  offset="0" style="stop-color:#53D8FF"/>
					<stop  offset="1" style="stop-color:#3840F7"/>
				</linearGradient>
				<path style="fill:url(#SVGID_00000002351300345408013680000000320268666612961973_);" d="M2463.77,2632.871h193.278
					c4,0,7.242-3.242,7.242-7.242v-314.286c0-4-3.242-7.242-7.242-7.242H2463.77c-4,0-7.242,3.242-7.242,7.242v314.286
					C2456.528,2629.629,2459.77,2632.871,2463.77,2632.871z"/>
				
					<linearGradient id="SVGID_00000144308997329460909540000014444363889594764983_" gradientUnits="userSpaceOnUse" x1="3312.2483" y1="1328.8416" x2="1563.0741" y2="3483.312">
					<stop  offset="0" style="stop-color:#53D8FF"/>
					<stop  offset="1" style="stop-color:#3840F7"/>
				</linearGradient>
				<path style="fill:url(#SVGID_00000144308997329460909540000014444363889594764983_);" d="M2351.684,2632.871h70.616
					c2.027,0,3.669-1.643,3.669-3.67v-321.43c0-2.027-1.643-3.67-3.669-3.67h-70.616c-2.027,0-3.669,1.643-3.669,3.669v321.43
					C2348.015,2631.228,2349.657,2632.871,2351.684,2632.871z"/>
			</g>
			<g>
				
					<linearGradient id="SVGID_00000021804175114569990910000008229708929663552159_" gradientUnits="userSpaceOnUse" x1="2050.7188" y1="1290.0662" x2="1860.8553" y2="3863.7668">
					<stop  offset="0" style="stop-color:#53D8FF"/>
					<stop  offset="1" style="stop-color:#3840F7"/>
				</linearGradient>
				<path style="fill:url(#SVGID_00000021804175114569990910000008229708929663552159_);" d="M989.657,2257.298H2996.5
					c11.098,0,20.095-8.997,20.095-20.095v-331.585c0-11.098-8.997-20.095-20.095-20.095H989.657
					c-11.098,0-20.095,8.997-20.095,20.095v331.585C969.562,2248.301,978.558,2257.298,989.657,2257.298z"/>
				
					<linearGradient id="SVGID_00000098199790123872872920000007544432297454890909_" gradientUnits="userSpaceOnUse" x1="3386.5161" y1="783.9572" x2="2011.5321" y2="3252.4297">
					<stop  offset="0" style="stop-color:#53D8FF"/>
					<stop  offset="1" style="stop-color:#3840F7"/>
				</linearGradient>
				<path style="fill:url(#SVGID_00000098199790123872872920000007544432297454890909_);" d="M2552.014,2204.437h225.997
					c4,0,7.242-3.242,7.242-7.242v-235.881c0-4-3.242-7.242-7.242-7.242h-225.997c-4,0-7.242,3.242-7.242,7.242v235.881
					C2544.772,2201.194,2548.014,2204.437,2552.014,2204.437z"/>
				
					<linearGradient id="SVGID_00000144309123946008217660000004740439915348516234_" gradientUnits="userSpaceOnUse" x1="3232.1672" y1="719.3736" x2="1876.7194" y2="3152.7734">
					<stop  offset="0" style="stop-color:#53D8FF"/>
					<stop  offset="1" style="stop-color:#3840F7"/>
				</linearGradient>
				<path style="fill:url(#SVGID_00000144309123946008217660000004740439915348516234_);" d="M2433.243,2204.437h82.892
					c2.027,0,3.669-1.643,3.669-3.669v-243.026c0-2.027-1.643-3.67-3.669-3.67h-82.893c-2.027,0-3.669,1.643-3.669,3.67v243.026
					C2429.573,2202.794,2431.217,2204.437,2433.243,2204.437z"/>
				
					<linearGradient id="SVGID_00000066496175401481530010000004307105360879569297_" gradientUnits="userSpaceOnUse" x1="3507.5173" y1="876.5193" x2="2150.5349" y2="3312.6743">
					<stop  offset="0" style="stop-color:#53D8FF"/>
					<stop  offset="1" style="stop-color:#3840F7"/>
				</linearGradient>
				<path style="fill:url(#SVGID_00000066496175401481530010000004307105360879569297_);" d="M2813.118,2194.195h60.319
					c2.027,0,3.669-1.643,3.669-3.669V1947.5c0-2.027-1.643-3.67-3.67-3.67h-60.318c-2.027,0-3.67,1.643-3.67,3.67v243.026
					C2809.448,2192.552,2811.091,2194.195,2813.118,2194.195z"/>
			</g>
		</g>
		<g>
			
				<linearGradient id="SVGID_00000167393945638840494400000001817258857450709162_" gradientUnits="userSpaceOnUse" x1="19026.8652" y1="1795.158" x2="18403.9883" y2="2150.687" gradientTransform="matrix(-1 0 0 1 19947.5723 0)">
				<stop  offset="0" style="stop-color:#F9B776"/>
				<stop  offset="1" style="stop-color:#F47960"/>
			</linearGradient>
			<path style="fill:url(#SVGID_00000167393945638840494400000001817258857450709162_);" d="M1015.406,2374.753
				c0.735-0.282,395.818-692.169,449.206-757.28c8.983-10.951,22.882-16.528,36.947-14.852l110.274,13.141l129.549,280.262
				l-215.825-125.694c21.356,147.7-255.9,367.199-350.988,447.292c-9.65,8.128-10.442,22.687-1.726,31.81l37.961,39.739
				c-62.323,63.173-134.24,103.737-215.408,122.498L1015.406,2374.753z"/>
			
				<linearGradient id="SVGID_00000047056684648727547800000005675499341383271076_" gradientUnits="userSpaceOnUse" x1="-8655.5537" y1="-4267.1475" x2="-8703.3701" y2="-3533.9709" gradientTransform="matrix(0.8974 -0.4412 0.4412 0.8974 10652.2939 2161.1482)">
				<stop  offset="0" style="stop-color:#2B3582"/>
				<stop  offset="1" style="stop-color:#150E42"/>
			</linearGradient>
			<path style="fill:url(#SVGID_00000047056684648727547800000005675499341383271076_);" d="M1188.845,2267.725
				c0,0,24.229,7.827,32.431,29.405c3.924,10.324-0.306,22.017-9.284,28.45c-39.895,28.582-171.49,120.859-232.216,138.932
				c-4.978,1.481-9.714-3.022-8.594-8.094c3.117-14.107,13.197-42.279,45.672-83.519l-2.914,5.893
				c-3.687,7.458,4.434,15.223,11.68,11.134C1066.238,2366.998,1148.968,2316.813,1188.845,2267.725z"/>
			
				<linearGradient id="SVGID_00000159466000458496654950000003826348484045005216_" gradientUnits="userSpaceOnUse" x1="18966.6094" y1="1883.8239" x2="21097.7832" y2="549.6765" gradientTransform="matrix(-1 0 0 1 19947.5723 0)">
				<stop  offset="0" style="stop-color:#F9B776"/>
				<stop  offset="1" style="stop-color:#F47960"/>
			</linearGradient>
			<path style="fill:url(#SVGID_00000159466000458496654950000003826348484045005216_);" d="M1169.294,2544.565
				c0.662-0.425,59.938-143.239,60.6-143.663c54.348-330.898,186.949-614.287,226.054-688.856
				c6.58-12.542,19.063-20.816,33.177-22.021l110.652-9.448l183.587,248.245l-236.796-79.414
				c50.805,140.321-176.292,411.389-253.204,509.068c-7.805,9.913-5.635,24.331,4.747,31.502l45.218,31.234
				c-48.249,74.478-110.468,128.757-186.159,163.556L1169.294,2544.565z"/>
			
				<linearGradient id="SVGID_00000088111470379896660460000006742807609328607110_" gradientUnits="userSpaceOnUse" x1="-7017.4072" y1="-6548.3047" x2="-7065.2202" y2="-5815.1763" gradientTransform="matrix(0.7895 -0.6137 0.6137 0.7895 10669.8828 3191.1018)">
				<stop  offset="0" style="stop-color:#2B3582"/>
				<stop  offset="1" style="stop-color:#150E42"/>
			</linearGradient>
			<path style="fill:url(#SVGID_00000088111470379896660460000006742807609328607110_);" d="M1317.484,2404.652
				c0,0,25.311,2.76,37.712,22.233c5.932,9.316,4.156,21.623-3.335,29.74c-33.285,36.064-143.482,153.063-199.294,183.052
				c-4.575,2.459-10.124-0.994-10.054-6.187c0.197-14.446,4.367-44.075,27.825-91.034l-1.66,6.361
				c-2.101,8.051,7.423,14.011,13.691,8.54C1217.504,2526.683,1288.367,2460.794,1317.484,2404.652z"/>
			<g>
				
					<linearGradient id="SVGID_00000022550450949558166480000015950494301955135674_" gradientUnits="userSpaceOnUse" x1="10611.7256" y1="1348.7556" x2="10099.4326" y2="1910.1716" gradientTransform="matrix(-1 0 0 1 12115.873 0)">
					<stop  offset="0" style="stop-color:#CB236D"/>
					<stop  offset="1" style="stop-color:#4C246D"/>
				</linearGradient>
				<path style="fill:url(#SVGID_00000022550450949558166480000015950494301955135674_);" d="M2117.726,1628.295
					c0,0,100.099,148.885,108.313,216.8c8.213,67.914-27.679,91.401-132.449,100.062c-311.778,25.774-465.472-67.668-465.472-67.668
					c-21.328-135.986-36.504-170.581-214.629-244.52c0,0,225.297,17.887,270.64,0.291
					C1729.47,1615.664,2117.726,1628.295,2117.726,1628.295z"/>
			</g>
			<g>
				
					<linearGradient id="SVGID_00000174594895832088362510000003191857885115127718_" gradientUnits="userSpaceOnUse" x1="-11329.748" y1="-1517.3125" x2="-11176.5811" y2="-1133.0968" gradientTransform="matrix(0.9446 -0.3283 0.3283 0.9446 12812.0361 -1699.1722)">
					<stop  offset="0" style="stop-color:#2B3582"/>
					<stop  offset="1" style="stop-color:#150E42"/>
				</linearGradient>
				<path style="fill:url(#SVGID_00000174594895832088362510000003191857885115127718_);" d="M1718.564,794.148
					c0,0,69.718-82.488,143.838,18.718c13.424,18.33,64.985,3.208,83.886,41.575c9.76,19.81,30.84,31.063,52.556,27.057
					c54.086-9.976,142.491-10.816,186.14,73.94c33.317,64.694,7.594,102.556-25.711,124.141
					c-24.461,15.855-33.191,48.042-18.4,73.159c14.188,24.092,16.855,56.715-19.778,95.979
					c-82.094,87.985-244.602-55.837-244.602-55.837l-129.029-304.898L1718.564,794.148z"/>
				
					<linearGradient id="SVGID_00000111873323535028471270000003441635239068115886_" gradientUnits="userSpaceOnUse" x1="18315.1641" y1="1116.2111" x2="16846.8066" y2="2532.595" gradientTransform="matrix(-1 0 0 1 19947.5723 0)">
					<stop  offset="0" style="stop-color:#FDF53F"/>
					<stop  offset="1" style="stop-color:#D93C65"/>
				</linearGradient>
				<path style="fill:url(#SVGID_00000111873323535028471270000003441635239068115886_);" d="M1847.018,1608.585
					c0,0-116.566-110.995-173.945-184.512c-31.016-39.74-40.757-92.055-26.413-140.381c26.197-88.258,72.752-179.668,76.998-193.896
					c6.508-21.807,137.209-20.899,137.209-20.899s257.194,166.922,358.246,449.674l-113.488,35.331
					c0,0-67.154-112.662-133.505-184.29c0,0,114.812,151.67,118.855,213.76L1847.018,1608.585z"/>
				
					<linearGradient id="SVGID_00000170973522371026529680000000057100852109231537_" gradientUnits="userSpaceOnUse" x1="-9539.458" y1="1590.2273" x2="-8918.9805" y2="1590.2273" gradientTransform="matrix(1 0 0 1 11551.1094 0)">
					<stop  offset="0" style="stop-color:#F9B776"/>
					<stop  offset="1" style="stop-color:#F47960"/>
				</linearGradient>
				<path style="fill:url(#SVGID_00000170973522371026529680000000057100852109231537_);" d="M1624.922,1652.386l87.588-95.296
					l101.154,27.238c0,0,117.931,18.271,185.426,0c67.496-18.271,67.496-18.271,67.496-18.271l152.527-47.486l23.955,67.701
					c6.083,17.189-0.03,36.271-14.891,46.832c-13.196,9.377-28.664,19.682-38.523,23.995c-20.087,8.787-462.709,2.778-462.709,2.778
					L1624.922,1652.386z"/>
				
					<linearGradient id="SVGID_00000144307341616161752210000017688197699139856004_" gradientUnits="userSpaceOnUse" x1="-11513.9072" y1="364.0605" x2="-11483.5762" y2="142.1631" gradientTransform="matrix(0.9974 -0.0717 0.0717 0.9974 13216.9805 105.0094)">
					<stop  offset="0" style="stop-color:#F9B776"/>
					<stop  offset="1" style="stop-color:#F47960"/>
				</linearGradient>
				<path style="fill:url(#SVGID_00000144307341616161752210000017688197699139856004_);" d="M1771.039,911.75l87.844,163.35
					c-5.8,35.658-95.609,36.663-109.482,15.371c-1.413-2.166-2.22-4.673-2.756-7.204l-52.549-109.146
					c-2.256-10.643,26.921-46.505,36.525-51.616l34.916-18.586C1778.982,896.763,1722.881,896.201,1771.039,911.75z"/>
				<g>
					
						<linearGradient id="SVGID_00000163052023651562796900000008890261070189782940_" gradientUnits="userSpaceOnUse" x1="-9468.0322" y1="-4594.9531" x2="-9182.4434" y2="-5103.2056" gradientTransform="matrix(0.5458 -0.8379 0.8379 0.5458 10797.9961 -4320.769)">
						<stop  offset="0" style="stop-color:#F9B776"/>
						<stop  offset="1" style="stop-color:#F47960"/>
					</linearGradient>
					<path style="fill:url(#SVGID_00000163052023651562796900000008890261070189782940_);" d="M1593.257,873.413
						c0,0-9.916,55.188,33.461,125.357c43.377,70.169,86.571,67.001,108.517,41.977c21.945-25.024,48.232-66.702,36.271-136.688
						C1759.546,834.074,1608.24,803.036,1593.257,873.413z"/>
					
						<linearGradient id="SVGID_00000134935615059047929140000003119306184462892206_" gradientUnits="userSpaceOnUse" x1="-9406.6191" y1="-5037.5615" x2="-9263.8262" y2="-4679.3677" gradientTransform="matrix(0.5458 -0.8379 0.8379 0.5458 10797.9961 -4320.769)">
						<stop  offset="0" style="stop-color:#2B3582"/>
						<stop  offset="1" style="stop-color:#150E42"/>
					</linearGradient>
					<path style="fill:url(#SVGID_00000134935615059047929140000003119306184462892206_);" d="M1718.995,911.665
						c0,0-70.238-92.257-124.163-11.833l0.91,27.782c0,0-70.123-3.279-62.519-67.91c7.604-64.633,64.854-108.785,144.22-86.703
						c79.366,22.082,125.742,47.23,134.704,102.334c8.963,55.104-36.032,46.101-36.032,46.101s-17.186-38.022-37.94-40.617
						c-20.753-2.597-13.254,27.478-13.254,27.478L1718.995,911.665z"/>
					
						<linearGradient id="SVGID_00000107546681200541551210000012534573097956589705_" gradientUnits="userSpaceOnUse" x1="-9407.2402" y1="-4560.7988" x2="-9121.6533" y2="-5069.0479" gradientTransform="matrix(0.5458 -0.8379 0.8379 0.5458 10797.9961 -4320.769)">
						<stop  offset="0" style="stop-color:#F9B776"/>
						<stop  offset="1" style="stop-color:#F47960"/>
					</linearGradient>
					<path style="fill:url(#SVGID_00000107546681200541551210000012534573097956589705_);" d="M1735.113,909.205
						c0,0-36.384-47.214-3.266-57.012c33.119-9.799,31.882,46.262,29.724,67.118L1735.113,909.205z"/>
				</g>
			</g>
			<g>
				
					<linearGradient id="SVGID_00000127742504360811439840000011665708995592593306_" gradientUnits="userSpaceOnUse" x1="-9595.5303" y1="1165.4735" x2="-9920.1211" y2="1254.4353" gradientTransform="matrix(0.9988 -0.0494 0.0494 0.9988 11509.6406 -55.0328)">
					<stop  offset="0" style="stop-color:#2B3582"/>
					<stop  offset="1" style="stop-color:#150E42"/>
				</linearGradient>
				<path style="fill:url(#SVGID_00000127742504360811439840000011665708995592593306_);" d="M1914.849,1690.102
					c-0.307,0.015-0.616,0.023-0.926,0.021l-402.866-0.44c-9.959-0.008-18.024-8.09-18.014-18.05
					c0.01-9.962,8.122-18.193,18.054-18.013l402.866,0.439c9.959,0.008,18.024,8.091,18.013,18.049
					C1931.964,1681.759,1924.377,1689.631,1914.849,1690.102z"/>
				
					<linearGradient id="SVGID_00000163774448351089063410000001257466622701234322_" gradientUnits="userSpaceOnUse" x1="1140.7543" y1="1530.8136" x2="4060.1052" y2="1285.1953">
					<stop  offset="0" style="stop-color:#2B3582"/>
					<stop  offset="1" style="stop-color:#150E42"/>
				</linearGradient>
				<path style="fill:url(#SVGID_00000163774448351089063410000001257466622701234322_);" d="M1148.899,1324.325h335.509
					c24.751,0,47.278,14.283,57.835,36.669l155.105,328.892h-416.948c-15.95,0-30.281-9.745-36.143-24.579l-120.277-304.341
					C1117.031,1343.381,1129.99,1324.325,1148.899,1324.325z"/>
				
					<linearGradient id="SVGID_00000139285249529284777050000017215615628041832355_" gradientUnits="userSpaceOnUse" x1="-10146.4619" y1="1433.9836" x2="-10250.9629" y2="1591.3507" gradientTransform="matrix(1 0 0 1 11551.1094 0)">
					<stop  offset="0" style="stop-color:#53D8FF"/>
					<stop  offset="1" style="stop-color:#3840F7"/>
				</linearGradient>
				<path style="fill:url(#SVGID_00000139285249529284777050000017215615628041832355_);" d="M1385.269,1492.958
					c7.27,22.589,1.9,44.526-11.997,48.999c-13.896,4.473-31.055-10.213-38.326-32.802c-7.271-22.588-1.9-44.526,11.997-48.998
					C1360.839,1455.684,1377.998,1470.369,1385.269,1492.958z"/>
			</g>
		</g>
		<g>
			
				<linearGradient id="SVGID_00000117679055171949792040000002796519794334107558_" gradientUnits="userSpaceOnUse" x1="3060.8931" y1="292.4895" x2="2051.9829" y2="1567.0435">
				<stop  offset="0" style="stop-color:#53D8FF"/>
				<stop  offset="1" style="stop-color:#3840F7"/>
			</linearGradient>
			<circle style="fill:url(#SVGID_00000117679055171949792040000002796519794334107558_);" cx="2642.036" cy="821.63" r="366.63"/>
			<path style="fill:#FFFFFF;" d="M2353.488,1007.451c-1.12,0-2.216-0.555-2.86-1.572c-34.882-55.044-53.319-118.756-53.319-184.249
				c0-190.084,154.644-344.727,344.727-344.727c3.194,0,6.351,0.033,9.512,0.134c14.891,0.403,29.875,1.777,44.517,4.082
				c1.844,0.291,3.105,2.021,2.814,3.868c-0.291,1.845-2.018,3.113-3.868,2.814c-14.354-2.261-29.044-3.607-43.661-4.003
				c-3.105-0.097-6.193-0.13-9.314-0.13c-186.353,0-337.963,151.61-337.963,337.963c0,64.208,18.073,126.67,52.268,180.629
				c0.999,1.577,0.532,3.666-1.047,4.667C2354.733,1007.281,2354.107,1007.451,2353.488,1007.451z"/>
			<path style="fill:#FFFFFF;" d="M2620.19,1165.67c-0.073,0-0.144-0.002-0.216-0.007c-57.651-3.645-113.843-21.925-162.503-52.866
				c-16.532-10.493-32.294-22.496-46.842-35.671c-1.384-1.254-1.49-3.392-0.236-4.778c1.253-1.382,3.392-1.491,4.778-0.236
				c14.264,12.919,29.716,24.686,45.927,34.976c47.702,30.332,102.788,48.252,159.302,51.824c1.865,0.117,3.28,1.724,3.163,3.589
				C2623.449,1164.292,2621.961,1165.67,2620.19,1165.67z"/>
			<path style="fill:#FFFFFF;" d="M2927.292,637.466c-1.1,0-2.178-0.535-2.827-1.521c-27.09-41.119-63.563-76.495-105.473-102.301
				c-1.59-0.979-2.086-3.063-1.106-4.654c0.978-1.59,3.06-2.089,4.654-1.106c42.746,26.321,79.945,62.4,107.574,104.339
				c1.027,1.561,0.596,3.658-0.963,4.685C2928.577,637.286,2927.932,637.466,2927.292,637.466z"/>
			<g>
				<polygon style="fill:#FFFFFF;" points="2642.037,664.774 2335.481,758.215 2642.037,851.656 2948.592,758.215 				"/>
				<path style="fill:#FFFFFF;" d="M2642.037,884.414l-192.938-58.81V959.95c0,22.05,15.42,41.122,36.991,45.695
					c103.613,21.968,203.242,22.65,298.639,0.719c21.132-4.858,36.03-23.792,36.03-45.475V829.937L2642.037,884.414z"/>
				<path style="fill:#FFFFFF;" d="M2406.485,940.141c-16.761,7.446-31.418,7.602-43.972,0.469
					c-3.671-2.086-5.497-6.374-4.664-10.513l27.285-135.663l27.078,134.637C2413.131,933.644,2410.748,938.247,2406.485,940.141z"/>
				<polygon style="fill:#FFFFFF;" points="2642.037,744.373 2381.163,772.093 2381.163,817.347 2388.894,817.347 2389.688,777.687 
									"/>
			</g>
		</g>
	</g>
</g>
</svg>
